<?xml version="1.0" standalone="no"?>
<!DOCTYPE svg PUBLIC "-//W3C//DTD SVG 1.1//EN" "http://www.w3.org/Graphics/SVG/1.1/DTD/svg11.dtd" >
<svg>
<metadata>
Created by FontForge 20090622 at Mon Mar 27 15:24:44 2017
 By deploy user
Copyright (c) Mark Simonson, 2005. All rights reserved.
</metadata>
<defs>
<font id="ProximaNovaCond-Semibold" horiz-adv-x="467" >
  <font-face 
    font-family="Proxima Nova Cn Lt"
    font-weight="600"
    font-stretch="normal"
    units-per-em="1000"
    panose-1="2 0 5 6 3 0 0 2 0 4"
    ascent="790"
    descent="-210"
    x-height="483"
    cap-height="667"
    bbox="-136 -280 954 887"
    underline-thickness="20"
    underline-position="-113"
    unicode-range="U+000D-U+FB04"
  />
<missing-glyph horiz-adv-x="479" 
d="M415 -90h-351v842h351v-842zM383 -60v782h-288v-782h288z" />
    <glyph glyph-name="f_f_j" unicode="ffj" horiz-adv-x="765" 
d="M453 0h-100v396h-63v87h63v45q0 71 36 110t95 39q44 0 73 -16l-21 -77q-10 9 -31 9q-24 0 -38 -17t-14 -48v-45h80v-87h-80v-396zM656 544q-26 0 -44.5 18.5t-18.5 43.5q0 26 18.5 44.5t44.5 18.5t44 -18.5t18 -44.5t-18 -44t-44 -18zM566 -196q-53 0 -87 31l28 75
q20 -22 47 -22q52 0 52 71v524h100v-524q0 -155 -140 -155zM179 0h-100v396h-63v87h63v45q0 70 36.5 109.5t99.5 39.5q62 0 97 -34l-34 -70q-20 20 -45 20q-54 0 -54 -65v-45h80v-87h-80v-396z" />
    <glyph glyph-name="f_j" unicode="fj" horiz-adv-x="491" 
d="M179 0h-100v396h-63v87h63v45q0 71 36 110t95 39q44 0 73 -16l-21 -77q-11 9 -31 9q-24 0 -38 -17t-14 -48v-45h80v-87h-80v-396zM383 544q-26 0 -44.5 18.5t-18.5 43.5q0 26 18.5 44.5t44.5 18.5t44 -18.5t18 -44.5t-18.5 -44t-43.5 -18zM293 -196q-53 0 -87 31l28 75
q20 -22 47 -22q52 0 52 71v524h100v-524q0 -155 -140 -155z" />
    <glyph glyph-name="f_f" unicode="ff" horiz-adv-x="547" 
d="M179 0h-100v396h-63v87h63v45q0 70 36.5 109.5t99.5 39.5q62 0 97 -34l-34 -70q-20 20 -45 20q-54 0 -54 -65v-45h80v-87h-80v-396zM453 0h-100v396h-63v87h63v45q0 70 36.5 109.5t99.5 39.5q62 0 97 -34l-34 -70q-20 20 -45 20q-54 0 -54 -65v-45h80v-87h-80v-396z" />
    <glyph glyph-name="fi" unicode="fi" horiz-adv-x="491" 
d="M179 0h-100v396h-63v87h63v45q0 71 36 110t95 39q44 0 73 -16l-21 -77q-11 9 -31 9q-24 0 -38 -17t-14 -48v-45h80v-87h-80v-396zM383 544q-26 0 -44.5 18.5t-18.5 43.5q0 26 18.5 44.5t44.5 18.5t44 -18.5t18 -44.5t-18.5 -44t-43.5 -18zM433 0h-100v483h100v-483z" />
    <glyph glyph-name="fl" unicode="fl" horiz-adv-x="491" 
d="M179 0h-100v396h-63v87h63v45q0 71 36 110t95 39q44 0 73 -16l-21 -77q-11 9 -31 9q-24 0 -38 -17t-14 -48v-45h80v-87h-80v-396zM433 0h-100v667h100v-667z" />
    <glyph glyph-name="f_f_i" unicode="ffi" horiz-adv-x="765" 
d="M453 0h-100v396h-63v87h63v45q0 71 36 110t95 39q44 0 73 -16l-21 -77q-10 9 -31 9q-24 0 -38 -17t-14 -48v-45h80v-87h-80v-396zM656 544q-26 0 -44.5 18.5t-18.5 43.5q0 26 18.5 44.5t44.5 18.5t44 -18.5t18 -44.5t-18 -44t-44 -18zM706 0h-100v483h100v-483zM179 0
h-100v396h-63v87h63v45q0 70 36.5 109.5t99.5 39.5q62 0 97 -34l-34 -70q-20 20 -45 20q-54 0 -54 -65v-45h80v-87h-80v-396z" />
    <glyph glyph-name="f_f_l" unicode="ffl" horiz-adv-x="765" 
d="M453 0h-100v396h-63v87h63v45q0 71 36 110t95 39q44 0 73 -16l-21 -77q-10 9 -31 9q-24 0 -38 -17t-14 -48v-45h80v-87h-80v-396zM706 0h-100v667h100v-667zM179 0h-100v396h-63v87h63v45q0 70 36.5 109.5t99.5 39.5q62 0 97 -34l-34 -70q-20 20 -45 20q-54 0 -54 -65
v-45h80v-87h-80v-396z" />
    <glyph glyph-name="f_b" unicode="fb" horiz-adv-x="767" 
d="M179 0h-100v396h-63v87h63v45q0 71 36 110t95 39q44 0 73 -16l-21 -77q-11 9 -31 9q-24 0 -38 -17t-14 -48v-45h80v-87h-80v-396zM433 142q13 -28 39.5 -47t54.5 -19q50 0 76.5 46t26.5 119q0 74 -26.5 120t-76.5 46q-28 0 -54.5 -19.5t-39.5 -47.5v-198zM433 0h-100v667
h100v-249q43 77 124 77t128.5 -69.5t47.5 -184.5q0 -116 -47.5 -184.5t-128.5 -68.5q-78 0 -124 76v-64z" />
    <glyph glyph-name="f_h" unicode="fh" horiz-adv-x="758" 
d="M179 0h-100v396h-63v87h63v45q0 71 36 110t95 39q44 0 73 -16l-21 -77q-11 9 -31 9q-24 0 -38 -17t-14 -48v-45h80v-87h-80v-396zM700 0h-99v331q0 76 -70 76q-30 0 -56 -19.5t-42 -47.5v-340h-100v667h100v-249q21 32 59.5 54.5t81.5 22.5q126 0 126 -130v-365z" />
    <glyph glyph-name="f_k" unicode="fk" horiz-adv-x="729" 
d="M179 0h-100v396h-63v87h63v45q0 71 36 110t95 39q44 0 73 -16l-21 -77q-11 9 -31 9q-24 0 -38 -17t-14 -48v-45h80v-87h-80v-396zM722 0h-117l-114 202l-58 -78v-124h-100v667h100v-421l170 237h116l-160 -217z" />
    <glyph glyph-name=".notdef" horiz-adv-x="479" 
d="M415 -90h-351v842h351v-842zM383 -60v782h-288v-782h288z" />
    <glyph glyph-name=".null" horiz-adv-x="0" 
 />
    <glyph glyph-name=".null" horiz-adv-x="0" 
 />
    <glyph glyph-name="nonmarkingreturn" horiz-adv-x="333" 
 />
    <glyph glyph-name="CR" unicode="&#xd;" horiz-adv-x="0" 
 />
    <glyph glyph-name="space" unicode=" " horiz-adv-x="212" 
 />
    <glyph glyph-name="exclam" unicode="!" horiz-adv-x="242" 
d="M164 201h-85l-19 466h122zM121 -11q-27 0 -47 20.5t-20 47.5t19.5 47t47.5 20t47.5 -20t19.5 -47t-20 -47.5t-47 -20.5z" />
    <glyph glyph-name="quotedbl" unicode="&#x22;" horiz-adv-x="373" 
d="M129 395h-46q-34 209 -34 226q0 23 17 39.5t40 16.5t39.5 -16.5t16.5 -39.5zM290 395h-45q-34 209 -34 226q0 23 16.5 39.5t40.5 16.5q23 0 39.5 -16.5t16.5 -39.5z" />
    <glyph glyph-name="numbersign" unicode="#" horiz-adv-x="524" 
d="M285 0h-76l51 176h-85l-49 -176h-76l49 176h-81l18 66h83l51 183h-83l17 65h85l50 177h76l-50 -177h84l49 177h76l-50 -177h82l-16 -65h-85l-51 -183h85l-17 -66h-87zM277 242l52 183h-83l-51 -183h82z" />
    <glyph glyph-name="dollar" unicode="$" horiz-adv-x="487" 
d="M213 -100v89q-116 9 -187 84l56 86q53 -60 131 -70v204q-38 17 -61 30.5t-51 36.5t-41.5 56t-13.5 76q0 70 45.5 120.5t121.5 62.5v93h77v-92q92 -10 155 -70l-54 -84q-42 42 -101 53v-186q37 -17 61 -31.5t51.5 -38.5t41.5 -58t14 -77q0 -75 -43.5 -127.5t-124.5 -64.5
v-92h-77zM345 175q0 47 -55 81v-161q55 23 55 80zM159 498q0 -42 54 -72v147q-54 -20 -54 -75z" />
    <glyph glyph-name="percent" unicode="%" horiz-adv-x="663" 
d="M172 347q-65 0 -105.5 46.5t-40.5 117.5q0 72 40.5 119t105.5 47t105.5 -47t40.5 -119q0 -71 -40.5 -117.5t-105.5 -46.5zM185 0h-56l351 667h57zM491 -12q-65 0 -105 46.5t-40 117.5q0 72 40 119.5t105 47.5t105.5 -47.5t40.5 -119.5q0 -71 -40.5 -117.5t-105.5 -46.5z
M172 410q33 0 53.5 28t20.5 73q0 46 -20 74t-54 28t-54 -28t-20 -74q0 -45 20.5 -73t53.5 -28zM491 52q34 0 54.5 28t20.5 72q0 46 -20.5 74.5t-54.5 28.5t-54 -28.5t-20 -74.5q0 -45 20 -72.5t54 -27.5z" />
    <glyph glyph-name="ampersand" unicode="&#x26;" horiz-adv-x="535" 
d="M527 0h-119q-36 44 -44 55q-69 -67 -156 -67q-78 0 -128 49t-50 137q0 69 32 113.5t90 83.5q-42 86 -42 145q0 70 43 115.5t109 45.5q59 0 99.5 -38t40.5 -98q0 -35 -10.5 -63.5t-33.5 -52t-41.5 -37t-51.5 -35.5q22 -38 52 -80l50 -73q29 58 49 134l81 -37
q-32 -97 -75 -168q33 -43 105 -129zM224 68q48 0 91 50q-50 65 -68 93q-37 54 -57 89q-56 -51 -56 -119q0 -51 26 -82t64 -31zM205 515q0 -38 25 -95q41 27 63 53.5t22 63.5q0 32 -14.5 49t-36.5 17q-27 0 -43 -23t-16 -65z" />
    <glyph glyph-name="quotesingle" unicode="'" horiz-adv-x="211" 
d="M129 395h-46q-34 209 -34 226q0 23 17 39.5t40 16.5t39.5 -16.5t16.5 -39.5z" />
    <glyph glyph-name="parenleft" unicode="(" horiz-adv-x="257" 
d="M238 -159l-67 -40q-126 197 -126 442q0 244 126 442l67 -39q-85 -195 -85 -403t85 -402z" />
    <glyph glyph-name="parenright" unicode=")" horiz-adv-x="257" 
d="M85 -199l-66 40q85 194 85 402t-85 403l66 39q127 -198 127 -442q0 -246 -127 -442z" />
    <glyph glyph-name="asterisk" unicode="*" horiz-adv-x="330" 
d="M192 379h-54l5 112l-94 -61l-27 47l100 51l-100 51l27 46l94 -60l-5 112h54l-6 -112l95 60l27 -46l-100 -51l100 -51l-27 -47l-95 61z" />
    <glyph glyph-name="plus" unicode="+" horiz-adv-x="442" 
d="M413 305h-157v-178h-70v178h-157v65h157v171h70v-171h157v-65z" />
    <glyph glyph-name="comma" unicode="," horiz-adv-x="242" 
d="M194 35q0 -50 -25 -94t-67 -73l-45 37q25 15 45.5 42t25.5 52q-6 -2 -16 -2q-25 0 -41.5 17t-16.5 44t19 46.5t46 19.5q31 0 53 -24t22 -65z" />
    <glyph glyph-name="hyphen" unicode="-" horiz-adv-x="269" 
d="M239 199h-209v86h209v-86z" />
    <glyph glyph-name="period" unicode="." horiz-adv-x="242" 
d="M121 -11q-27 0 -47 20t-20 48q0 27 20 47t47 20q28 0 47.5 -20t19.5 -47q0 -28 -19.5 -48t-47.5 -20z" />
    <glyph glyph-name="slash" unicode="/" horiz-adv-x="266" 
d="M74 -20h-74l192 707h74z" />
    <glyph glyph-name="zero" unicode="0" horiz-adv-x="526" 
d="M263 -12q-58 0 -102.5 30t-70 80.5t-38.5 110t-13 124.5t13 124.5t38.5 109.5t70 80t102.5 30q77 0 129.5 -52.5t74 -127.5t21.5 -164t-21.5 -164t-74 -128t-129.5 -53zM263 87q112 0 112 246t-112 246q-111 0 -111 -246t111 -246z" />
    <glyph glyph-name="one" unicode="1" horiz-adv-x="352" 
d="M288 0h-110v523l-102 -107l-65 68l181 183h96v-667z" />
    <glyph glyph-name="two" unicode="2" horiz-adv-x="507" 
d="M458 0h-410v90q189 197 241.5 265t52.5 128q0 44 -28 70t-68 26q-88 0 -142 -79l-68 69q77 108 211 108q90 0 149 -52.5t59 -140.5q0 -74 -52.5 -152.5t-192.5 -233.5h248v-98z" />
    <glyph glyph-name="three" unicode="3" horiz-adv-x="496" 
d="M240 -12q-73 0 -129 30.5t-87 78.5l68 69q55 -79 143 -79q55 0 82.5 28t27.5 77q0 100 -116 100q-49 0 -58 -2v100q10 -1 56 -1q49 0 79 23.5t30 68.5q0 48 -28.5 73t-75.5 25q-80 0 -134 -72l-65 64q72 106 207 106q94 0 150 -46.5t56 -132.5q0 -57 -36 -99.5t-87 -53.5
q52 -8 92 -52.5t40 -110.5q0 -86 -58 -140t-157 -54z" />
    <glyph glyph-name="four" unicode="4" horiz-adv-x="492" 
d="M400 0h-110v155h-268v93l236 419h142v-415h70v-97h-70v-155zM290 252v300l-168 -300h168z" />
    <glyph glyph-name="five" unicode="5" horiz-adv-x="512" 
d="M256 -12q-139 0 -212 107l69 70q53 -78 140 -78q49 0 79 35.5t30 86.5q0 58 -27.5 90.5t-76.5 32.5q-66 0 -114 -58l-81 23v370h374v-97h-263v-198q44 56 122 56q77 0 127.5 -57.5t50.5 -158.5q0 -99 -60 -161.5t-158 -62.5z" />
    <glyph glyph-name="six" unicode="6" horiz-adv-x="511" 
d="M270 -12q-62 0 -107.5 28t-72 77t-39 109t-12.5 131q0 150 64 247t185 97q105 0 164 -77l-56 -81q-41 60 -107 60q-65 0 -101.5 -67.5t-36.5 -160.5v-15q19 37 58.5 63.5t85.5 26.5q78 0 130 -56.5t52 -158.5q0 -94 -57 -158.5t-150 -64.5zM264 87q48 0 74 36t26 84
q0 63 -29 93.5t-73 30.5q-34 0 -62.5 -23.5t-47.5 -59.5q2 -39 11.5 -72.5t35.5 -61t65 -27.5z" />
    <glyph glyph-name="seven" unicode="7" horiz-adv-x="448" 
d="M217 0h-119l204 570h-279v97h404v-76z" />
    <glyph glyph-name="eight" unicode="8" horiz-adv-x="507" 
d="M254 -12q-97 0 -156.5 48t-59.5 132q0 60 37.5 107.5t91.5 68.5q-51 19 -85.5 60.5t-34.5 100.5q0 84 60.5 128t146.5 44q85 0 146 -44t61 -128q0 -59 -34.5 -100.5t-86.5 -60.5q54 -21 92 -68.5t38 -107.5q0 -84 -60 -132t-156 -48zM254 385q31 7 63.5 32.5t32.5 69.5
q0 42 -26.5 67t-69.5 25q-44 0 -70 -25t-26 -67q0 -44 32.5 -69.5t63.5 -32.5zM254 87q45 0 75 25.5t30 70.5q0 49 -37 80.5t-68 35.5q-31 -4 -68 -35.5t-37 -80.5q0 -45 29.5 -70.5t75.5 -25.5z" />
    <glyph glyph-name="nine" unicode="9" horiz-adv-x="511" 
d="M223 -11q-105 0 -164 77l56 81q40 -59 107 -59t102.5 67t35.5 160v16q-20 -38 -59 -64.5t-85 -26.5q-78 0 -130 56.5t-52 158.5q0 94 57 158.5t150 64.5q81 0 134.5 -49.5t75 -124t21.5 -171.5q0 -150 -64.5 -247t-184.5 -97zM248 336q69 0 111 82q-2 40 -11.5 73t-35 61
t-64.5 28q-48 0 -74.5 -36.5t-26.5 -84.5q0 -63 28.5 -93t72.5 -30z" />
    <glyph glyph-name="colon" unicode=":" horiz-adv-x="242" 
d="M121 356q-27 0 -47 20t-20 47q0 28 20 47.5t47 19.5q28 0 47.5 -19.5t19.5 -47.5q0 -27 -19.5 -47t-47.5 -20zM121 -11q-27 0 -47 20t-20 48q0 27 20 47t47 20q28 0 47.5 -20t19.5 -47q0 -28 -19.5 -48t-47.5 -20z" />
    <glyph glyph-name="semicolon" unicode=";" horiz-adv-x="242" 
d="M121 356q-27 0 -47 20.5t-20 46.5q0 28 20 47.5t47 19.5q28 0 47.5 -19.5t19.5 -47.5q0 -27 -20 -47t-47 -20zM194 38q0 -50 -25 -94t-67 -73l-45 37q24 14 45 41.5t26 52.5q-9 -3 -16 -3q-25 0 -41.5 17.5t-16.5 44.5t19 46.5t46 19.5q31 0 53 -24t22 -65z" />
    <glyph glyph-name="less" unicode="&#x3c;" horiz-adv-x="442" 
d="M413 124l-384 175v71l384 176v-77l-307 -135l307 -133v-77z" />
    <glyph glyph-name="equal" unicode="=" horiz-adv-x="442" 
d="M413 397h-384v65h384v-65zM413 206h-384v65h384v-65z" />
    <glyph glyph-name="greater" unicode="&#x3e;" horiz-adv-x="442" 
d="M413 299l-384 -175v77l307 133l-307 135v77l384 -176v-71z" />
    <glyph glyph-name="question" unicode="?" horiz-adv-x="389" 
d="M157 194q-30 34 -30 86q0 33 13.5 60t32.5 46l37.5 36.5t32 39t13.5 46.5q0 30 -21 51t-58 21q-58 0 -99 -51l-56 71q67 78 173 78q78 0 125.5 -42.5t47.5 -107.5q0 -38 -15 -69.5t-36.5 -53.5t-43 -41.5t-36.5 -43t-15 -48.5q0 -28 19 -47zM194 -11q-27 0 -47 20t-20 48
q0 27 20 47t47 20q28 0 47.5 -20t19.5 -47q0 -28 -19.5 -48t-47.5 -20z" />
    <glyph glyph-name="at" unicode="@" horiz-adv-x="702" 
d="M310 -70q-123 0 -199 83.5t-76 216.5q0 162 111 285.5t258 123.5q116 0 189 -78t73 -199q0 -120 -53 -198.5t-120 -78.5q-38 0 -61 20.5t-27 52.5l-1 7q-55 -80 -130 -80q-55 0 -89.5 38t-34.5 108q0 104 62 186t147 82q72 0 99 -70l11 54h89l-55 -259q-2 -10 -2 -24
q0 -46 35 -46q30 0 60.5 56t30.5 151q0 110 -61.5 175.5t-164.5 65.5q-87 0 -163 -53t-120.5 -139t-44.5 -179q0 -116 66 -191t175 -75q83 0 164 56l19 -28q-90 -63 -187 -63zM310 157q58 0 105 73l29 137q-18 60 -69 60q-57 0 -94.5 -59.5t-37.5 -126.5q0 -38 17.5 -61
t49.5 -23z" />
    <glyph glyph-name="A" unicode="A" horiz-adv-x="536" 
d="M533 0h-120l-36 132h-219l-36 -132h-120l199 667h133zM355 230l-87 319l-87 -319h174z" />
    <glyph glyph-name="B" unicode="B" horiz-adv-x="540" 
d="M324 0h-260v667h252q82 0 127 -48t45 -122q0 -61 -29.5 -100.5t-75.5 -52.5q49 -7 82.5 -54.5t33.5 -109.5q0 -81 -45 -130.5t-130 -49.5zM292 389q41 0 61.5 24.5t20.5 65.5t-21 66t-61 25h-117v-181h117zM296 98q44 0 66.5 25.5t22.5 71.5q0 42 -23 69t-66 27h-121
v-193h121z" />
    <glyph glyph-name="C" unicode="C" horiz-adv-x="547" 
d="M311 -12q-124 0 -198 96.5t-74 248.5q0 153 74 249t198 96q141 0 211 -147l-92 -41q-39 90 -119 90q-72 0 -115.5 -69t-43.5 -178q0 -108 43.5 -177t115.5 -69q42 0 72.5 27t47.5 71l92 -41q-68 -156 -212 -156z" />
    <glyph glyph-name="D" unicode="D" horiz-adv-x="583" 
d="M263 0h-199v667h199q131 0 206 -92.5t75 -241.5t-74.5 -241t-206.5 -92zM263 98q80 0 123.5 64.5t43.5 170.5q0 108 -43 172.5t-124 64.5h-88v-472h88z" />
    <glyph glyph-name="E" unicode="E" horiz-adv-x="472" 
d="M429 0h-365v667h365v-97h-254v-181h247v-98h-247v-193h254v-98z" />
    <glyph glyph-name="F" unicode="F" horiz-adv-x="464" 
d="M175 0h-111v667h365v-97h-254v-181h247v-98h-247v-291z" />
    <glyph glyph-name="G" unicode="G" horiz-adv-x="576" 
d="M311 -13q-123 0 -197.5 95.5t-74.5 250.5t74.5 250t197.5 95q143 0 212 -142l-90 -42q-42 86 -122 86q-72 0 -115.5 -67t-43.5 -180t43.5 -180t115.5 -67q69 0 111 48v124h-140v97h245v-265q-87 -103 -216 -103z" />
    <glyph glyph-name="H" unicode="H" horiz-adv-x="593" 
d="M530 0h-111v294h-244v-294h-111v667h111v-275h244v275h111v-667z" />
    <glyph glyph-name="I" unicode="I" horiz-adv-x="239" 
d="M175 0h-111v667h111v-667z" />
    <glyph glyph-name="J" unicode="J" horiz-adv-x="409" 
d="M150 -12q-87 0 -142 55l43 87q38 -43 89 -43q45 0 70 26t25 74v480h111v-483q0 -98 -53 -147t-143 -49z" />
    <glyph glyph-name="K" unicode="K" horiz-adv-x="535" 
d="M528 0h-131l-172 275l-50 -76v-199h-111v667h111v-321l207 321h130l-218 -315z" />
    <glyph glyph-name="L" unicode="L" horiz-adv-x="434" 
d="M406 0h-342v667h111v-569h231v-98z" />
    <glyph glyph-name="M" unicode="M" horiz-adv-x="713" 
d="M650 0h-110v460l-162 -460h-43l-160 460v-460h-111v667h150l143 -406l144 406h149v-667z" />
    <glyph glyph-name="N" unicode="N" horiz-adv-x="592" 
d="M528 0h-106l-247 431v-431h-111v667h112l241 -419v419h111v-667z" />
    <glyph glyph-name="O" unicode="O" horiz-adv-x="612" 
d="M306 -12q-124 0 -195.5 97t-71.5 248t71.5 248t195.5 97t195.5 -97t71.5 -248t-71.5 -248t-195.5 -97zM306 87q72 0 113 69.5t41 176.5q0 108 -41 177.5t-113 69.5q-73 0 -113.5 -69t-40.5 -178q0 -108 40.5 -177t113.5 -69z" />
    <glyph glyph-name="P" unicode="P" horiz-adv-x="513" 
d="M175 0h-111v667h227q94 0 145.5 -59.5t51.5 -147.5q0 -89 -51.5 -148.5t-145.5 -59.5h-116v-252zM278 350q44 0 70.5 30t26.5 80t-26.5 80t-70.5 30h-103v-220h103z" />
    <glyph glyph-name="Q" unicode="Q" horiz-adv-x="612" 
d="M306 -12q-124 0 -195.5 97t-71.5 248t71.5 248t195.5 97t195.5 -97t71.5 -248q0 -175 -92 -272l31 -48l-77 -49l-28 44q-46 -20 -101 -20zM306 87q25 0 46 9l-72 115l77 48l63 -101q40 68 40 175q0 108 -41 177.5t-113 69.5q-73 0 -113.5 -69t-40.5 -178
q0 -108 40.5 -177t113.5 -69z" />
    <glyph glyph-name="R" unicode="R" horiz-adv-x="533" 
d="M494 0h-124l-113 252h-82v-252h-111v667h230q86 0 140 -57t54 -149q0 -81 -36 -128.5t-87 -61.5zM278 350q44 0 70.5 30t26.5 80t-26.5 80t-70.5 30h-103v-220h103z" />
    <glyph glyph-name="S" unicode="S" horiz-adv-x="486" 
d="M237 -12q-135 0 -215 85l56 86q63 -72 159 -72q49 0 76.5 25.5t27.5 62.5t-31 63t-74.5 44.5t-87.5 40.5t-75 65t-31 104q0 80 57 133t150 53q117 0 192 -72l-54 -84q-57 57 -141 57q-41 0 -66 -22t-25 -59q0 -32 31 -56t74.5 -42.5t87.5 -41.5t75 -67.5t31 -106.5
q0 -86 -57 -141t-160 -55z" />
    <glyph glyph-name="T" unicode="T" horiz-adv-x="462" 
d="M286 0h-110v570h-153v97h416v-97h-153v-570z" />
    <glyph glyph-name="U" unicode="U" horiz-adv-x="592" 
d="M296 -12q-109 0 -170.5 62t-61.5 174v443h111v-444q0 -66 31.5 -101.5t89.5 -35.5t89.5 35.5t31.5 101.5v444h111v-443q0 -112 -61.5 -174t-170.5 -62z" />
    <glyph glyph-name="V" unicode="V" horiz-adv-x="536" 
d="M334 0h-133l-199 667h120l146 -536l145 536h120z" />
    <glyph glyph-name="W" unicode="W" horiz-adv-x="745" 
d="M584 0h-116l-96 479l-95 -479h-116l-151 667h119l96 -498l103 498h89l104 -498l95 498h119z" />
    <glyph glyph-name="X" unicode="X" horiz-adv-x="535" 
d="M533 0h-128l-138 254l-137 -254h-128l197 341l-185 326h127l126 -240l126 240h128l-185 -325z" />
    <glyph glyph-name="Y" unicode="Y" horiz-adv-x="521" 
d="M316 0h-110v278l-207 389h123l139 -285l139 285h122l-206 -389v-278z" />
    <glyph glyph-name="Z" unicode="Z" horiz-adv-x="475" 
d="M437 0h-399v92l258 478h-258v97h392v-90l-259 -479h266v-98z" />
    <glyph glyph-name="bracketleft" unicode="[" horiz-adv-x="230" 
d="M212 -190h-172v868h172v-69h-99v-730h99v-69z" />
    <glyph glyph-name="backslash" unicode="\" horiz-adv-x="266" 
d="M193 -20l-192 707h73l192 -707h-73z" />
    <glyph glyph-name="bracketright" unicode="]" horiz-adv-x="230" 
d="M190 -190h-173v69h99v730h-99v69h173v-868z" />
    <glyph glyph-name="asciicircum" unicode="^" horiz-adv-x="386" 
d="M367 333h-75l-99 259l-99 -259h-75l137 334h74z" />
    <glyph glyph-name="underscore" unicode="_" horiz-adv-x="422" 
d="M425 -109h-428v69h428v-69z" />
    <glyph glyph-name="grave" unicode="`" horiz-adv-x="202" 
d="M202 556h-68l-134 144h93z" />
    <glyph glyph-name="a" unicode="a" 
d="M408 0h-99v49q-44 -61 -127 -61q-62 0 -105 43.5t-43 117.5t43 115.5t105 41.5q85 0 127 -58v70q0 44 -24.5 68t-69.5 24q-66 0 -120 -55l-39 70q70 70 177 70q80 0 127.5 -40.5t47.5 -124.5v-330zM218 57q60 0 91 53v73q-14 25 -39 39.5t-52 14.5q-38 0 -61 -25t-23 -65
t23 -65t61 -25z" />
    <glyph glyph-name="b" unicode="b" horiz-adv-x="494" 
d="M159 142q13 -28 39.5 -47t54.5 -19q50 0 76.5 46t26.5 119q0 74 -26.5 120t-76.5 46q-28 0 -54.5 -19.5t-39.5 -47.5v-198zM159 0h-100v667h100v-249q43 77 124 77t128.5 -69.5t47.5 -184.5q0 -116 -47.5 -184.5t-128.5 -68.5q-78 0 -124 76v-64z" />
    <glyph glyph-name="c" unicode="c" horiz-adv-x="415" 
d="M247 -12q-95 0 -153.5 71.5t-58.5 182.5t58 182t154 71q95 0 147 -65l-51 -68q-35 45 -86 45q-55 0 -87 -47t-32 -118q0 -72 32 -119t87 -47q50 0 86 45l51 -68q-52 -65 -147 -65z" />
    <glyph glyph-name="d" unicode="d" horiz-adv-x="494" 
d="M435 0h-100v64q-22 -36 -55 -56t-69 -20q-81 0 -128.5 68.5t-47.5 184.5t47.5 185t128.5 69t124 -77v249h100v-667zM241 76q28 0 54.5 19t39.5 47v199q-13 28 -39.5 47t-54.5 19q-50 0 -76.5 -46t-26.5 -120q0 -72 26.5 -118.5t76.5 -46.5z" />
    <glyph glyph-name="e" unicode="e" horiz-adv-x="474" 
d="M252 -12q-99 0 -158 70t-59 184q0 108 56.5 180.5t150.5 72.5q95 0 148 -72t53 -185v-29h-307q3 -62 36 -100.5t90 -38.5q65 0 109 52l48 -60q-65 -74 -167 -74zM346 280q-1 53 -26.5 93.5t-78.5 40.5q-51 0 -77 -41t-29 -93h211z" />
    <glyph glyph-name="f" unicode="f" horiz-adv-x="274" 
d="M179 0h-100v396h-63v87h63v45q0 70 36.5 109.5t99.5 39.5q62 0 97 -34l-34 -70q-20 20 -45 20q-54 0 -54 -65v-45h80v-87h-80v-396z" />
    <glyph glyph-name="g" unicode="g" horiz-adv-x="493" 
d="M226 -196q-106 0 -171 61l41 77q50 -54 125 -54q49 0 81.5 29.5t32.5 91.5v69q-22 -37 -55 -58t-69 -21q-81 0 -128.5 66t-47.5 182q0 115 47 181.5t129 66.5q80 0 124 -77v65h99v-466q0 -115 -59 -164t-149 -49zM241 88q28 0 54.5 19t39.5 47v187q-13 28 -39.5 47
t-54.5 19q-50 0 -76.5 -44t-26.5 -116t26.5 -115.5t76.5 -43.5z" />
    <glyph glyph-name="h" unicode="h" horiz-adv-x="485" 
d="M426 0h-99v331q0 76 -70 76q-30 0 -56 -19.5t-42 -47.5v-340h-100v667h100v-249q21 32 59.5 54.5t81.5 22.5q126 0 126 -130v-365z" />
    <glyph glyph-name="i" unicode="i" horiz-adv-x="218" 
d="M109 544q-26 0 -44.5 18.5t-18.5 43.5q0 26 18.5 44.5t44.5 18.5t44 -18.5t18 -44.5t-18.5 -44t-43.5 -18zM159 0h-100v483h100v-483z" />
    <glyph glyph-name="j" unicode="j" horiz-adv-x="218" 
d="M109 544q-26 0 -44.5 18.5t-18.5 43.5q0 26 18.5 44.5t44.5 18.5t44 -18.5t18 -44.5t-18.5 -44t-43.5 -18zM19 -196q-53 0 -87 31l28 75q20 -22 47 -22q52 0 52 71v524h100v-524q0 -155 -140 -155z" />
    <glyph glyph-name="k" unicode="k" horiz-adv-x="456" 
d="M448 0h-117l-114 202l-58 -78v-124h-100v667h100v-421l170 237h116l-160 -217z" />
    <glyph glyph-name="l" unicode="l" horiz-adv-x="218" 
d="M159 0h-100v667h100v-667z" />
    <glyph glyph-name="m" unicode="m" horiz-adv-x="722" 
d="M663 0h-100v336q0 71 -60 71q-28 0 -53.5 -20t-38.5 -47v-340h-100v336q0 71 -60 71q-28 0 -53 -20t-39 -47v-340h-100v483h100v-65q16 29 54 53t80 24q46 0 75.5 -22t37.5 -63q18 34 57 59.5t82 25.5q118 0 118 -127v-368z" />
    <glyph glyph-name="n" unicode="n" horiz-adv-x="485" 
d="M426 0h-100v329q0 78 -69 78q-30 0 -56.5 -19.5t-41.5 -47.5v-340h-100v483h100v-65q21 32 59.5 54.5t80.5 22.5q127 0 127 -131v-364z" />
    <glyph glyph-name="o" unicode="o" horiz-adv-x="488" 
d="M244 -12q-98 0 -153.5 73t-55.5 181t55 180.5t154 72.5t154 -72.5t55 -180.5t-55.5 -181t-153.5 -73zM244 76q52 0 79 48t27 118t-27 117.5t-79 47.5t-79 -47.5t-27 -117.5t27 -118t79 -48z" />
    <glyph glyph-name="p" unicode="p" horiz-adv-x="492" 
d="M283 -12q-81 0 -124 77v-249h-100v667h100v-64q21 36 54 56t70 20q82 0 129 -68t47 -185q0 -116 -47.5 -185t-128.5 -69zM253 76q50 0 76.5 46.5t26.5 119.5t-26.5 119t-76.5 46q-28 0 -54.5 -19t-39.5 -47v-198q13 -28 39.5 -47.5t54.5 -19.5z" />
    <glyph glyph-name="q" unicode="q" horiz-adv-x="492" 
d="M240 76q28 0 54.5 19.5t39.5 47.5v198q-13 28 -39.5 47t-54.5 19q-50 0 -76.5 -46t-26.5 -119t26.5 -119.5t76.5 -46.5zM210 -12q-81 0 -128.5 69t-47.5 185q0 117 47 185t129 68q36 0 69 -20t55 -56v64h99v-667h-99v249q-44 -77 -124 -77z" />
    <glyph glyph-name="r" unicode="r" horiz-adv-x="308" 
d="M159 0h-100v483h100v-71q22 36 58 59t75 23v-99q-12 3 -26 3q-30 0 -61 -19.5t-46 -47.5v-331z" />
    <glyph glyph-name="s" unicode="s" horiz-adv-x="401" 
d="M198 -12q-113 0 -177 69l45 70q23 -25 58.5 -42.5t71.5 -17.5q37 0 58.5 17t21.5 46q0 25 -24.5 42t-60 29t-70.5 27.5t-59.5 48t-24.5 80.5q0 59 44.5 98.5t121.5 39.5q95 0 159 -62l-42 -68q-42 51 -115 51q-33 0 -53.5 -16t-20.5 -40q0 -20 18 -34.5t44.5 -22.5
t57.5 -21.5t57.5 -29.5t44.5 -47t18 -73q0 -63 -47.5 -103.5t-125.5 -40.5z" />
    <glyph glyph-name="t" unicode="t" horiz-adv-x="283" 
d="M189 -12q-112 0 -112 120v288h-63v87h63v132h100v-132h80v-87h-80v-267q0 -53 37 -53q26 0 38 16l24 -75q-29 -29 -87 -29z" />
    <glyph glyph-name="u" unicode="u" horiz-adv-x="485" 
d="M426 0h-100v64q-22 -32 -59.5 -54t-81.5 -22q-126 0 -126 130v365h100v-330q0 -77 69 -77q30 0 56.5 19t41.5 47v341h100v-483z" />
    <glyph glyph-name="v" unicode="v" horiz-adv-x="430" 
d="M269 0h-108l-159 483h106l107 -364l108 364h106z" />
    <glyph glyph-name="w" unicode="w" horiz-adv-x="667" 
d="M531 0h-104l-93 355l-94 -355h-104l-129 483h103l84 -352l92 352h92l94 -352l85 352h103z" />
    <glyph glyph-name="x" unicode="x" horiz-adv-x="424" 
d="M418 0h-109l-97 176l-97 -176h-109l144 246l-136 237h109l89 -166l89 166h109l-136 -237z" />
    <glyph glyph-name="y" unicode="y" horiz-adv-x="430" 
d="M42 -189l15 88q13 -7 32 -7q40 0 55 40l20 58l-162 493h106l107 -363l108 363h106l-191 -574q-19 -58 -53.5 -81.5t-88.5 -23.5q-31 0 -54 7z" />
    <glyph glyph-name="z" unicode="z" horiz-adv-x="399" 
d="M360 0h-322v76l193 320h-193v87h318v-73l-193 -323h197v-87z" />
    <glyph glyph-name="braceleft" unicode="{" horiz-adv-x="244" 
d="M227 -190h-45q-50 0 -87.5 36t-37.5 94v206q0 29 -13.5 48.5t-38.5 19.5v60q25 0 38.5 19.5t13.5 48.5v205q0 58 37.5 94.5t87.5 36.5h45v-69h-45q-21 0 -36 -17.5t-15 -44.5v-214q0 -69 -46 -89q46 -20 46 -89v-215q0 -27 15 -44.5t36 -17.5h45v-68z" />
    <glyph glyph-name="bar" unicode="|" horiz-adv-x="197" 
d="M133 -20h-69v707h69v-707z" />
    <glyph glyph-name="braceright" unicode="}" horiz-adv-x="244" 
d="M17 -190v68h45q21 0 36.5 17.5t15.5 44.5v215q0 70 45 89q-45 19 -45 89v214q0 27 -15 44.5t-37 17.5h-45v69h45q51 0 88.5 -36.5t37.5 -94.5v-205q0 -29 13.5 -48.5t38.5 -19.5v-60q-25 0 -38.5 -19.5t-13.5 -48.5v-206q0 -58 -37.5 -94t-88.5 -36h-45z" />
    <glyph glyph-name="asciitilde" unicode="~" horiz-adv-x="457" 
d="M360 667l70 -7q-3 -49 -9 -85.5t-19.5 -75.5t-39 -60t-62.5 -21q-39 0 -62.5 29t-30.5 63t-19 63t-31 29q-27 0 -39.5 -44.5t-20.5 -140.5l-70 8q4 49 10 85t19.5 75t39 60t61.5 21q39 0 62.5 -29t31 -63t19.5 -63t30 -29q27 0 40 44.5t20 140.5z" />
    <glyph glyph-name="nbspace" unicode="&#xa0;" horiz-adv-x="212" 
 />
    <glyph glyph-name="exclamdown" unicode="&#xa1;" horiz-adv-x="242" 
d="M61 -184l18 466h85l19 -466h-122zM54 427q0 27 20 46.5t47 19.5q28 0 48 -19.5t20 -46.5q0 -28 -20 -47.5t-48 -19.5q-27 0 -47 19.5t-20 47.5z" />
    <glyph glyph-name="cent" unicode="&#xa2;" horiz-adv-x="415" 
d="M211 -100v91q-81 13 -128.5 82t-47.5 169t47.5 168.5t128.5 81.5v73h74v-73q66 -10 109 -62l-51 -68q-25 32 -58 41v-324q32 9 58 42l51 -68q-43 -52 -109 -62v-91h-74zM138 242q0 -55 19 -96.5t54 -59.5v310q-35 -17 -54 -58.5t-19 -95.5z" />
    <glyph glyph-name="sterling" unicode="&#xa3;" horiz-adv-x="471" 
d="M26 271v67h69q-48 73 -48 140q0 84 61 141.5t144 57.5q68 0 116.5 -31t69.5 -89l-88 -46q-11 34 -34 54.5t-55 20.5q-40 0 -67.5 -30t-27.5 -80q0 -18 2.5 -33.5t9.5 -31.5l10.5 -24t15 -26.5t13.5 -22.5h111v-67h-86q3 -16 3 -34q0 -36 -18.5 -71t-46.5 -56q20 8 44 8
q28 0 62 -16t56 -16q51 0 78 35l39 -87q-40 -47 -124 -47q-42 0 -85.5 22t-68.5 22q-41 0 -99 -38l-37 78q46 25 73.5 62.5t27.5 77.5q0 27 -13 60h-107z" />
    <glyph glyph-name="currency" unicode="&#xa4;" horiz-adv-x="516" 
d="M258 93q-67 0 -115 34l-70 -70l-60 59l73 72q-37 61 -37 145q0 85 37 146l-73 73l60 60l71 -72q50 32 114 32q65 0 113 -32l72 72l60 -60l-73 -74q37 -63 37 -145q0 -84 -38 -146l74 -72l-60 -60l-71 71q-49 -33 -114 -33zM258 182q53 0 82 43.5t29 107.5q0 63 -29 106.5
t-82 43.5t-81.5 -43.5t-28.5 -106.5q0 -64 28.5 -107.5t81.5 -43.5z" />
    <glyph glyph-name="yen" unicode="&#xa5;" horiz-adv-x="521" 
d="M316 0h-110v119h-183v65h183v94h-183v65h148l-172 324h123l139 -285l139 285h122l-172 -324h148v-65h-182v-94h182v-65h-182v-119z" />
    <glyph glyph-name="brokenbar" unicode="&#xa6;" horiz-adv-x="197" 
d="M133 -20h-69v316h69v-316zM133 371h-69v316h69v-316z" />
    <glyph glyph-name="section" unicode="&#xa7;" horiz-adv-x="404" 
d="M371 315q0 -84 -79 -124q79 -45 79 -127q0 -64 -48.5 -104.5t-124.5 -40.5q-108 0 -176 70l44 65q56 -63 128 -63q37 0 59.5 19t22.5 49q0 28 -24.5 47t-60 32t-70.5 29t-59.5 47.5t-24.5 78.5q0 43 26.5 75t66.5 45q-93 47 -93 131q0 58 45.5 95.5t116.5 37.5
q103 0 162 -63l-41 -60q-46 52 -114 52q-34 0 -54.5 -17t-20.5 -44q0 -26 24.5 -43.5t60 -30t71 -28t60 -48t24.5 -80.5zM278 296q0 58 -73 87q-76 -18 -76 -75q0 -31 22.5 -50t69.5 -39q57 26 57 77z" />
    <glyph glyph-name="dieresis" unicode="&#xa8;" horiz-adv-x="279" 
d="M287 607q0 -23 -17 -39.5t-40 -16.5t-39.5 16.5t-16.5 39.5t16.5 39.5t39.5 16.5t40 -16.5t17 -39.5zM105 607q0 -23 -16.5 -39.5t-39.5 -16.5t-40 16.5t-17 39.5t17 39.5t40 16.5t39.5 -16.5t16.5 -39.5z" />
    <glyph glyph-name="copyright" unicode="&#xa9;" horiz-adv-x="778" 
d="M734 334q0 -143 -101 -244t-244 -101t-244 101.5t-101 243.5q0 143 101 244t244 101t244 -101t101 -244zM701 334q0 128 -92 220t-220 92t-219.5 -92t-91.5 -220t91.5 -219.5t219.5 -91.5t220 91.5t92 219.5zM512 216l29 -27q-57 -67 -148 -67q-87 0 -147.5 61.5
t-60.5 151.5q0 91 60.5 151.5t147.5 60.5q91 0 147 -66l-28 -28q-20 26 -52 42t-67 16q-69 0 -118 -49.5t-49 -126.5q0 -75 49.5 -126t117.5 -51q76 0 119 58z" />
    <glyph glyph-name="ordfeminine" unicode="&#xaa;" horiz-adv-x="337" 
d="M289 326h-73v33q-30 -41 -87 -41q-41 0 -70.5 28t-29.5 76t29 75t71 27q58 0 87 -38v45q0 29 -17 44.5t-46 15.5q-45 0 -81 -39l-29 48q49 48 123 48q123 0 123 -116v-206zM156 366q40 0 60 33v47q-19 33 -60 33q-24 0 -39 -15.5t-15 -40.5t15 -41t39 -16z" />
    <glyph glyph-name="guillemotleft" unicode="&#xab;" horiz-adv-x="424" 
d="M394 63h-87l-125 180l125 177h87l-125 -177zM242 63h-87l-125 180l125 177h87l-125 -177z" />
    <glyph glyph-name="logicalnot" unicode="&#xac;" horiz-adv-x="446" 
d="M413 462v-256h-68v191h-316v65h384z" />
    <glyph glyph-name="uni00AD" unicode="&#xad;" horiz-adv-x="269" 
d="M239 199h-209v86h209v-86z" />
    <glyph glyph-name="registered" unicode="&#xae;" horiz-adv-x="494" 
d="M459 465q0 -88 -62 -150t-150 -62t-150 62t-62 150t62 150t150 62q89 0 150.5 -61.5t61.5 -150.5zM429 465q0 76 -53 129t-129 53t-129 -53t-53 -129q0 -75 53 -128.5t129 -53.5t129 53.5t53 128.5zM346 343h-41l-63 96h-43v-96h-33v243h99q32 0 55 -20.5t23 -53.5
q0 -35 -22.5 -53.5t-39.5 -18.5zM309 512q0 19 -13.5 32t-30.5 13h-66v-88h66q17 0 30.5 12.5t13.5 30.5z" />
    <glyph glyph-name="macron" unicode="&#xaf;" horiz-adv-x="309" 
d="M309 567h-309v60h309v-60z" />
    <glyph glyph-name="degree" unicode="&#xb0;" horiz-adv-x="300" 
d="M278 549q0 -53 -38 -90.5t-91 -37.5t-90 37.5t-37 90.5t37.5 90.5t89.5 37.5q53 0 91 -37.5t38 -90.5zM220 549q0 29 -21 49.5t-50 20.5q-28 0 -48.5 -20.5t-20.5 -49.5t20 -49.5t49 -20.5t50 20.5t21 49.5z" />
    <glyph glyph-name="plusminus" unicode="&#xb1;" horiz-adv-x="442" 
d="M413 316h-157v-179h-70v179h-157v64h157v172h70v-172h157v-64zM413 17h-384v65h384v-65z" />
    <glyph glyph-name="twosuperior" unicode="&#xb2;" horiz-adv-x="337" 
d="M307 421h-268v57q117 106 153 149t36 80q0 27 -18 42.5t-45 15.5q-59 0 -90 -50l-44 47q50 65 137 65q60 0 98 -30.5t38 -85.5q0 -46 -35.5 -93.5t-125.5 -134.5h164v-62z" />
    <glyph glyph-name="threesuperior" unicode="&#xb3;" horiz-adv-x="337" 
d="M308 531q0 -52 -38 -84.5t-103 -32.5q-96 0 -140 65l44 47q37 -50 93 -50q33 0 50.5 16t17.5 44q0 59 -76 59q-30 0 -36 -1v62q7 -1 34 -1q72 0 72 55q0 27 -17.5 41t-47.5 14q-51 0 -87 -45l-43 44q50 63 136 63q62 0 98.5 -28.5t36.5 -79.5q0 -35 -23 -60.5t-55 -30.5
q32 -4 58 -30.5t26 -66.5z" />
    <glyph glyph-name="acute" unicode="&#xb4;" horiz-adv-x="202" 
d="M202 700l-134 -144h-68l110 144h92z" />
    <glyph glyph-name="mu" unicode="&#xb5;" horiz-adv-x="497" 
d="M159 14v-198h-100v667h100v-330q0 -78 70 -78q30 0 55.5 19.5t41.5 47.5v341h100v-360q0 -47 35 -47q7 0 17 2l7 -84q-16 -6 -47 -6q-91 0 -108 86q-18 -38 -47.5 -62t-63.5 -24q-43 0 -60 26z" />
    <glyph glyph-name="paragraph" unicode="&#xb6;" horiz-adv-x="449" 
d="M390 -100h-54v714h-84v-714h-53v423q-71 0 -121.5 50.5t-50.5 121.5t50.5 121.5t121.5 50.5h191v-767z" />
    <glyph glyph-name="periodcentered" unicode="&#xb7;" horiz-adv-x="242" 
d="M188 245q0 -27 -19.5 -47t-47.5 -20t-47.5 20t-19.5 47t19.5 47t47.5 20t47.5 -20t19.5 -47z" />
    <glyph glyph-name="cedilla" unicode="&#xb8;" horiz-adv-x="195" 
d="M94 -194q-55 0 -94 31l21 44q34 -28 71 -28q21 0 35.5 10t14.5 27q0 30 -30 30q-18 0 -30 -14l-39 22l31 83h53l-26 -65q14 11 32 11q27 0 44.5 -19t17.5 -49q0 -37 -29 -60t-72 -23z" />
    <glyph glyph-name="onesuperior" unicode="&#xb9;" horiz-adv-x="248" 
d="M194 421h-77v301l-62 -64l-44 46l117 117h66v-400z" />
    <glyph glyph-name="ordmasculine" unicode="&#xba;" horiz-adv-x="353" 
d="M176 318q-67 0 -106 48t-39 117q0 70 39 117.5t106 47.5q68 0 107 -47.5t39 -117.5t-39 -117.5t-107 -47.5zM176 378q34 0 52 29t18 76t-17.5 75.5t-52.5 28.5q-34 0 -51.5 -29t-17.5 -75q0 -47 17.5 -76t51.5 -29z" />
    <glyph glyph-name="guillemotright" unicode="&#xbb;" horiz-adv-x="424" 
d="M242 243l-125 -180h-87l125 180l-125 177h87zM394 243l-125 -180h-87l125 180l-125 177h87z" />
    <glyph glyph-name="onequarter" unicode="&#xbc;" horiz-adv-x="712" 
d="M194 267h-77v301l-62 -64l-44 46l117 117h66v-400zM690 94h-45v-94h-76v94h-171v57l147 249h100v-245h45v-61zM569 155v170l-100 -170h100zM544 667l-352 -667h-57l352 667h57z" />
    <glyph glyph-name="onehalf" unicode="&#xbd;" horiz-adv-x="746" 
d="M194 267h-77v301l-62 -64l-44 46l117 117h66v-400zM716 0h-268v57q117 106 153 149t36 80q0 27 -18 42.5t-45 15.5q-59 0 -90 -50l-44 47q50 65 137 65q60 0 98 -30.5t38 -85.5q0 -46 -35.5 -93.5t-125.5 -134.5h164v-62zM544 667l-352 -667h-57l352 667h57z" />
    <glyph glyph-name="threequarters" unicode="&#xbe;" horiz-adv-x="778" 
d="M757 94h-45v-94h-76v94h-171v57l147 249h100v-245h45v-61zM636 155v170l-100 -170h100zM610 667l-352 -667h-57l352 667h57zM308 377q0 -52 -38 -84.5t-103 -32.5q-96 0 -140 65l44 47q37 -50 93 -50q33 0 50.5 16t17.5 44q0 59 -76 59q-30 0 -36 -1v62q7 -1 34 -1
q72 0 72 55q0 27 -17.5 41t-47.5 14q-51 0 -87 -45l-43 44q50 63 136 63q62 0 98.5 -28.5t36.5 -79.5q0 -35 -23 -60.5t-55 -30.5q32 -4 58 -30.5t26 -66.5z" />
    <glyph glyph-name="questiondown" unicode="&#xbf;" horiz-adv-x="338" 
d="M232 287q31 -34 31 -85q0 -33 -13.5 -60t-32.5 -46l-38 -36.5t-32.5 -39.5t-13.5 -47q0 -30 21 -51t58 -21q59 0 100 51l55 -71q-66 -77 -172 -77q-79 0 -126 42t-47 107q0 46 23 84.5t50 60.5t50 51.5t23 60.5q0 27 -20 47zM195 493q28 0 48 -19.5t20 -47.5
q0 -27 -20 -46.5t-48 -19.5q-27 0 -47 19.5t-20 46.5q0 28 20 47.5t47 19.5z" />
    <glyph glyph-name="Agrave" unicode="&#xc0;" horiz-adv-x="536" 
d="M533 0h-120l-36 132h-219l-36 -132h-120l199 667h133zM355 230l-87 319l-87 -319h174zM319 723h-68l-134 144h93z" />
    <glyph glyph-name="Aacute" unicode="&#xc1;" horiz-adv-x="536" 
d="M533 0h-120l-36 132h-219l-36 -132h-120l199 667h133zM355 230l-87 319l-87 -319h174zM419 867l-134 -144h-68l110 144h92z" />
    <glyph glyph-name="Acircumflex" unicode="&#xc2;" horiz-adv-x="536" 
d="M394 723h-60l-67 97l-64 -97h-60l79 144h91zM533 0h-120l-36 132h-219l-36 -132h-120l199 667h133zM355 230l-87 319l-87 -319h174z" />
    <glyph glyph-name="Atilde" unicode="&#xc3;" horiz-adv-x="536" 
d="M533 0h-120l-36 132h-219l-36 -132h-120l199 667h133zM355 230l-87 319l-87 -319h174zM318 721q-21 0 -37.5 12.5t-24.5 28t-19 28t-22 12.5q-15 0 -24.5 -19t-9.5 -56h-54q0 61 24 97.5t68 36.5q21 0 37 -12.5t24.5 -27.5t19.5 -27.5t22 -12.5q33 0 33 74h54
q0 -61 -23.5 -97.5t-67.5 -36.5z" />
    <glyph glyph-name="Adieresis" unicode="&#xc4;" horiz-adv-x="536" 
d="M416 774q0 -23 -17 -39.5t-40 -16.5t-39.5 16.5t-16.5 39.5t16.5 39.5t39.5 16.5t40 -16.5t17 -39.5zM234 774q0 -23 -16.5 -39.5t-39.5 -16.5t-40 16.5t-17 39.5t17 39.5t40 16.5t39.5 -16.5t16.5 -39.5zM533 0h-120l-36 132h-219l-36 -132h-120l199 667h133zM355 230
l-87 319l-87 -319h174z" />
    <glyph glyph-name="Aring" unicode="&#xc5;" horiz-adv-x="536" 
d="M533 0h-120l-36 132h-219l-36 -132h-120l199 667h133zM355 230l-87 319l-87 -319h174zM268 691q-38 0 -66 28t-28 67q0 38 28 66t66 28q39 0 66.5 -28t27.5 -66q0 -39 -27.5 -67t-66.5 -28zM268 738q20 0 33.5 14t13.5 34t-13.5 33.5t-33.5 13.5q-19 0 -33 -14t-14 -33
t14 -33.5t33 -14.5z" />
    <glyph glyph-name="AE" unicode="&#xc6;" horiz-adv-x="772" 
d="M730 0h-365v132h-183l-59 -132h-119l315 667h411v-97h-254v-181h247v-98h-247v-193h254v-98zM365 230v319l-142 -319h142z" />
    <glyph glyph-name="Ccedilla" unicode="&#xc7;" horiz-adv-x="547" 
d="M305 -190q-55 0 -94 31l21 44q34 -28 71 -28q21 0 35.5 10t14.5 27q0 30 -30 30q-18 0 -30 -14l-39 22l22 59q-109 13 -173 107t-64 235q0 153 74 249t198 96q141 0 211 -147l-92 -41q-39 90 -119 90q-72 0 -115.5 -69t-43.5 -178q0 -108 43.5 -177t115.5 -69
q42 0 72.5 27t47.5 71l92 -41q-64 -146 -196 -155l-15 -39q14 11 32 11q27 0 44.5 -19t17.5 -49q0 -37 -29 -60t-72 -23z" />
    <glyph glyph-name="Egrave" unicode="&#xc8;" horiz-adv-x="472" 
d="M429 0h-365v667h365v-97h-254v-181h247v-98h-247v-193h254v-98zM297 723h-68l-134 144h93z" />
    <glyph glyph-name="Eacute" unicode="&#xc9;" horiz-adv-x="472" 
d="M397 867l-134 -144h-68l110 144h92zM429 0h-365v667h365v-97h-254v-181h247v-98h-247v-193h254v-98z" />
    <glyph glyph-name="Ecircumflex" unicode="&#xca;" horiz-adv-x="472" 
d="M373 723h-60l-67 97l-64 -97h-60l79 144h91zM429 0h-365v667h365v-97h-254v-181h247v-98h-247v-193h254v-98z" />
    <glyph glyph-name="Edieresis" unicode="&#xcb;" horiz-adv-x="472" 
d="M395 774q0 -23 -17 -39.5t-40 -16.5t-39.5 16.5t-16.5 39.5t16.5 39.5t39.5 16.5t40 -16.5t17 -39.5zM213 774q0 -23 -16.5 -39.5t-39.5 -16.5t-40 16.5t-17 39.5t17 39.5t40 16.5t39.5 -16.5t16.5 -39.5zM429 0h-365v667h365v-97h-254v-181h247v-98h-247v-193h254v-98z
" />
    <glyph glyph-name="Igrave" unicode="&#xcc;" horiz-adv-x="239" 
d="M175 0h-111v667h111v-667zM170 723h-68l-134 144h93z" />
    <glyph glyph-name="Iacute" unicode="&#xcd;" horiz-adv-x="239" 
d="M175 0h-111v667h111v-667zM271 867l-134 -144h-68l110 144h92z" />
    <glyph glyph-name="Icircumflex" unicode="&#xce;" horiz-adv-x="239" 
d="M245 723h-60l-67 97l-64 -97h-60l79 144h91zM175 0h-111v667h111v-667z" />
    <glyph glyph-name="Idieresis" unicode="&#xcf;" horiz-adv-x="239" 
d="M268 774q0 -23 -17 -39.5t-40 -16.5t-39.5 16.5t-16.5 39.5t16.5 39.5t39.5 16.5t40 -16.5t17 -39.5zM86 774q0 -23 -16.5 -39.5t-39.5 -16.5t-40 16.5t-17 39.5t17 39.5t40 16.5t39.5 -16.5t16.5 -39.5zM175 0h-111v667h111v-667z" />
    <glyph glyph-name="Eth" unicode="&#xd0;" horiz-adv-x="606" 
d="M287 0h-199v287h-74v82h74v298h199q131 0 206 -92.5t75 -241.5t-74.5 -241t-206.5 -92zM287 98q80 0 123.5 64.5t43.5 170.5q0 108 -43 172.5t-124 64.5h-88v-201h114v-82h-114v-189h88z" />
    <glyph glyph-name="Ntilde" unicode="&#xd1;" horiz-adv-x="592" 
d="M344 721q-21 0 -37.5 12.5t-24.5 28t-19 28t-22 12.5q-15 0 -24.5 -19t-9.5 -56h-54q0 61 24 97.5t68 36.5q21 0 37 -12.5t24.5 -27.5t19.5 -27.5t22 -12.5q33 0 33 74h54q0 -61 -23.5 -97.5t-67.5 -36.5zM528 0h-106l-247 431v-431h-111v667h112l241 -419v419h111v-667z
" />
    <glyph glyph-name="Ograve" unicode="&#xd2;" horiz-adv-x="612" 
d="M357 723h-68l-134 144h93zM306 -12q-124 0 -195.5 97t-71.5 248t71.5 248t195.5 97t195.5 -97t71.5 -248t-71.5 -248t-195.5 -97zM306 87q72 0 113 69.5t41 176.5q0 108 -41 177.5t-113 69.5q-73 0 -113.5 -69t-40.5 -178q0 -108 40.5 -177t113.5 -69z" />
    <glyph glyph-name="Oacute" unicode="&#xd3;" horiz-adv-x="612" 
d="M457 867l-134 -144h-68l110 144h92zM306 -12q-124 0 -195.5 97t-71.5 248t71.5 248t195.5 97t195.5 -97t71.5 -248t-71.5 -248t-195.5 -97zM306 87q72 0 113 69.5t41 176.5q0 108 -41 177.5t-113 69.5q-73 0 -113.5 -69t-40.5 -178q0 -108 40.5 -177t113.5 -69z" />
    <glyph glyph-name="Ocircumflex" unicode="&#xd4;" horiz-adv-x="612" 
d="M433 723h-60l-67 97l-64 -97h-60l79 144h91zM306 -12q-124 0 -195.5 97t-71.5 248t71.5 248t195.5 97t195.5 -97t71.5 -248t-71.5 -248t-195.5 -97zM306 87q72 0 113 69.5t41 176.5q0 108 -41 177.5t-113 69.5q-73 0 -113.5 -69t-40.5 -178q0 -108 40.5 -177t113.5 -69z
" />
    <glyph glyph-name="Otilde" unicode="&#xd5;" horiz-adv-x="612" 
d="M306 -12q-124 0 -195.5 97t-71.5 248t71.5 248t195.5 97t195.5 -97t71.5 -248t-71.5 -248t-195.5 -97zM306 87q72 0 113 69.5t41 176.5q0 108 -41 177.5t-113 69.5q-73 0 -113.5 -69t-40.5 -178q0 -108 40.5 -177t113.5 -69zM357 721q-21 0 -37.5 12.5t-24.5 28t-19 28
t-22 12.5q-15 0 -24.5 -19t-9.5 -56h-54q0 61 24 97.5t68 36.5q21 0 37 -12.5t24.5 -27.5t19.5 -27.5t22 -12.5q33 0 33 74h54q0 -61 -23.5 -97.5t-67.5 -36.5z" />
    <glyph glyph-name="Odieresis" unicode="&#xd6;" horiz-adv-x="612" 
d="M454 774q0 -23 -17 -39.5t-40 -16.5t-39.5 16.5t-16.5 39.5t16.5 39.5t39.5 16.5t40 -16.5t17 -39.5zM272 774q0 -23 -16.5 -39.5t-39.5 -16.5t-40 16.5t-17 39.5t17 39.5t40 16.5t39.5 -16.5t16.5 -39.5zM306 -12q-124 0 -195.5 97t-71.5 248t71.5 248t195.5 97
t195.5 -97t71.5 -248t-71.5 -248t-195.5 -97zM306 87q72 0 113 69.5t41 176.5q0 108 -41 177.5t-113 69.5q-73 0 -113.5 -69t-40.5 -178q0 -108 40.5 -177t113.5 -69z" />
    <glyph glyph-name="multiply" unicode="&#xd7;" horiz-adv-x="442" 
d="M345 165l-124 123l-124 -123l-46 45l124 124l-124 124l46 46l124 -124l124 124l46 -46l-124 -124l124 -124z" />
    <glyph glyph-name="Oslash" unicode="&#xd8;" horiz-adv-x="612" 
d="M306 -12q-81 0 -142 44l-19 -32h-76l46 79q-76 96 -76 254q0 151 71.5 248t195.5 97q77 0 138 -42l18 31h75l-44 -76q80 -95 80 -258q0 -151 -71.5 -248t-195.5 -97zM306 87q72 0 113 69.5t41 176.5q0 90 -29 154l-213 -364q36 -36 88 -36zM152 333q0 -85 26 -148
l213 361q-36 34 -85 34q-73 0 -113.5 -69t-40.5 -178z" />
    <glyph glyph-name="Ugrave" unicode="&#xd9;" horiz-adv-x="592" 
d="M296 -12q-109 0 -170.5 62t-61.5 174v443h111v-444q0 -66 31.5 -101.5t89.5 -35.5t89.5 35.5t31.5 101.5v444h111v-443q0 -112 -61.5 -174t-170.5 -62zM347 723h-68l-134 144h93z" />
    <glyph glyph-name="Uacute" unicode="&#xda;" horiz-adv-x="592" 
d="M447 867l-134 -144h-68l110 144h92zM296 -12q-109 0 -170.5 62t-61.5 174v443h111v-444q0 -66 31.5 -101.5t89.5 -35.5t89.5 35.5t31.5 101.5v444h111v-443q0 -112 -61.5 -174t-170.5 -62z" />
    <glyph glyph-name="Ucircumflex" unicode="&#xdb;" horiz-adv-x="592" 
d="M423 723h-60l-67 97l-64 -97h-60l79 144h91zM296 -12q-109 0 -170.5 62t-61.5 174v443h111v-444q0 -66 31.5 -101.5t89.5 -35.5t89.5 35.5t31.5 101.5v444h111v-443q0 -112 -61.5 -174t-170.5 -62z" />
    <glyph glyph-name="Udieresis" unicode="&#xdc;" horiz-adv-x="592" 
d="M445 774q0 -23 -17 -39.5t-40 -16.5t-39.5 16.5t-16.5 39.5t16.5 39.5t39.5 16.5t40 -16.5t17 -39.5zM263 774q0 -23 -16.5 -39.5t-39.5 -16.5t-40 16.5t-17 39.5t17 39.5t40 16.5t39.5 -16.5t16.5 -39.5zM296 -12q-109 0 -170.5 62t-61.5 174v443h111v-444
q0 -66 31.5 -101.5t89.5 -35.5t89.5 35.5t31.5 101.5v444h111v-443q0 -112 -61.5 -174t-170.5 -62z" />
    <glyph glyph-name="Yacute" unicode="&#xdd;" horiz-adv-x="521" 
d="M316 0h-110v278l-207 389h123l139 -285l139 285h122l-206 -389v-278zM412 867l-134 -144h-68l110 144h92z" />
    <glyph glyph-name="Thorn" unicode="&#xde;" horiz-adv-x="513" 
d="M175 0h-111v667h111v-114h116q94 0 145.5 -59.5t51.5 -148.5q0 -88 -51.5 -147t-145.5 -59h-116v-139zM278 236q44 0 70.5 30t26.5 79q0 50 -26.5 80.5t-70.5 30.5h-103v-220h103z" />
    <glyph glyph-name="germandbls" unicode="&#xdf;" horiz-adv-x="556" 
d="M541 133q0 -61 -46.5 -103t-122.5 -42q-97 0 -165 70l42 70q46 -60 115 -60q35 0 56 18t21 45q0 25 -23 42.5t-55.5 30t-64.5 28t-55 46.5t-23 76q0 33 18 60.5t39 42t39 33.5t18 39q0 26 -23.5 43t-55.5 17q-41 0 -67 -24.5t-26 -70.5v-494h-99v494q0 79 52.5 131
t140.5 52q73 0 126 -38.5t53 -97.5q0 -36 -18.5 -64.5t-41 -43.5t-41 -34t-18.5 -40q0 -20 16.5 -34t41.5 -22.5t54.5 -21.5t54.5 -29t41.5 -46.5t16.5 -72.5z" />
    <glyph glyph-name="agrave" unicode="&#xe0;" 
d="M408 0h-99v49q-44 -61 -127 -61q-62 0 -105 43.5t-43 117.5t43 115.5t105 41.5q85 0 127 -58v70q0 44 -24.5 68t-69.5 24q-66 0 -120 -55l-39 70q70 70 177 70q80 0 127.5 -40.5t47.5 -124.5v-330zM218 57q60 0 91 53v73q-14 25 -39 39.5t-52 14.5q-38 0 -61 -25t-23 -65
t23 -65t61 -25zM284 556h-68l-134 144h93z" />
    <glyph glyph-name="aacute" unicode="&#xe1;" 
d="M408 0h-99v49q-44 -61 -127 -61q-62 0 -105 43.5t-43 117.5t43 115.5t105 41.5q85 0 127 -58v70q0 44 -24.5 68t-69.5 24q-66 0 -120 -55l-39 70q70 70 177 70q80 0 127.5 -40.5t47.5 -124.5v-330zM218 57q60 0 91 53v73q-14 25 -39 39.5t-52 14.5q-38 0 -61 -25t-23 -65
t23 -65t61 -25zM384 700l-134 -144h-68l110 144h92z" />
    <glyph glyph-name="acircumflex" unicode="&#xe2;" 
d="M408 0h-99v49q-44 -61 -127 -61q-62 0 -105 43.5t-43 117.5t43 115.5t105 41.5q85 0 127 -58v70q0 44 -24.5 68t-69.5 24q-66 0 -120 -55l-39 70q70 70 177 70q80 0 127.5 -40.5t47.5 -124.5v-330zM218 57q60 0 91 53v73q-14 25 -39 39.5t-52 14.5q-38 0 -61 -25t-23 -65
t23 -65t61 -25zM360 556h-60l-67 97l-64 -97h-60l79 144h91z" />
    <glyph glyph-name="atilde" unicode="&#xe3;" 
d="M408 0h-99v49q-44 -61 -127 -61q-62 0 -105 43.5t-43 117.5t43 115.5t105 41.5q85 0 127 -58v70q0 44 -24.5 68t-69.5 24q-66 0 -120 -55l-39 70q70 70 177 70q80 0 127.5 -40.5t47.5 -124.5v-330zM218 57q60 0 91 53v73q-14 25 -39 39.5t-52 14.5q-38 0 -61 -25t-23 -65
t23 -65t61 -25zM284 554q-21 0 -37.5 12.5t-24.5 28t-19 28t-22 12.5q-15 0 -24.5 -19t-9.5 -56h-54q0 61 24 97.5t68 36.5q21 0 37 -12.5t24.5 -27.5t19.5 -27.5t22 -12.5q33 0 33 74h54q0 -61 -23.5 -97.5t-67.5 -36.5z" />
    <glyph glyph-name="adieresis" unicode="&#xe4;" 
d="M408 0h-99v49q-44 -61 -127 -61q-62 0 -105 43.5t-43 117.5t43 115.5t105 41.5q85 0 127 -58v70q0 44 -24.5 68t-69.5 24q-66 0 -120 -55l-39 70q70 70 177 70q80 0 127.5 -40.5t47.5 -124.5v-330zM218 57q60 0 91 53v73q-14 25 -39 39.5t-52 14.5q-38 0 -61 -25t-23 -65
t23 -65t61 -25zM382 607q0 -23 -17 -39.5t-40 -16.5t-39.5 16.5t-16.5 39.5t16.5 39.5t39.5 16.5t40 -16.5t17 -39.5zM200 607q0 -23 -16.5 -39.5t-39.5 -16.5t-40 16.5t-17 39.5t17 39.5t40 16.5t39.5 -16.5t16.5 -39.5z" />
    <glyph glyph-name="aring" unicode="&#xe5;" 
d="M408 0h-99v49q-44 -61 -127 -61q-62 0 -105 43.5t-43 117.5t43 115.5t105 41.5q85 0 127 -58v70q0 44 -24.5 68t-69.5 24q-66 0 -120 -55l-39 70q70 70 177 70q80 0 127.5 -40.5t47.5 -124.5v-330zM218 57q60 0 91 53v73q-14 25 -39 39.5t-52 14.5q-38 0 -61 -25t-23 -65
t23 -65t61 -25zM234 538q-38 0 -66 28t-28 67q0 38 28 66t66 28q39 0 66.5 -28t27.5 -66q0 -39 -27.5 -67t-66.5 -28zM234 585q20 0 33.5 14t13.5 34t-13.5 33.5t-33.5 13.5q-19 0 -33 -14t-14 -33t14 -33.5t33 -14.5z" />
    <glyph glyph-name="ae" unicode="&#xe6;" horiz-adv-x="745" 
d="M713 209h-293q4 -62 34.5 -100t84.5 -38q62 0 103 52l48 -61q-65 -74 -159 -74q-106 0 -159 88q-25 -39 -69 -63.5t-100 -24.5q-75 0 -122 42t-47 117q0 74 43 116.5t110 42.5q89 0 136 -57v69q0 43 -26.5 67.5t-73.5 24.5q-70 0 -128 -55l-39 70q70 70 176 70
q55 0 92.5 -23t51.5 -62q52 85 148 85q89 0 139 -72t50 -186v-28zM420 280h197q-1 53 -25 93.5t-73 40.5q-48 0 -72.5 -41t-26.5 -93zM323 167v16q-36 54 -99 54q-40 0 -65 -22.5t-25 -61.5q0 -40 24.5 -62t65.5 -22q40 0 69.5 30t29.5 68z" />
    <glyph glyph-name="ccedilla" unicode="&#xe7;" horiz-adv-x="415" 
d="M247 -192q-55 0 -94 31l21 44q34 -28 71 -28q21 0 35.5 10t14.5 27q0 30 -30 30q-18 0 -30 -14l-39 22l22 60q-83 10 -133 80t-50 172q0 111 58 182t154 71q95 0 147 -65l-51 -68q-35 45 -86 45q-55 0 -87 -47t-32 -118q0 -72 32 -119t87 -47q50 0 86 45l51 -68
q-46 -56 -124 -64l-16 -41q14 11 32 11q27 0 44.5 -19t17.5 -49q0 -37 -29 -60t-72 -23z" />
    <glyph glyph-name="egrave" unicode="&#xe8;" horiz-adv-x="474" 
d="M252 -12q-99 0 -158 70t-59 184q0 108 56.5 180.5t150.5 72.5q95 0 148 -72t53 -185v-29h-307q3 -62 36 -100.5t90 -38.5q65 0 109 52l48 -60q-65 -74 -167 -74zM346 280q-1 53 -26.5 93.5t-78.5 40.5q-51 0 -77 -41t-29 -93h211zM294 556h-68l-134 144h93z" />
    <glyph glyph-name="eacute" unicode="&#xe9;" horiz-adv-x="474" 
d="M394 700l-134 -144h-68l110 144h92zM252 -12q-99 0 -158 70t-59 184q0 108 56.5 180.5t150.5 72.5q95 0 148 -72t53 -185v-29h-307q3 -62 36 -100.5t90 -38.5q65 0 109 52l48 -60q-65 -74 -167 -74zM346 280q-1 53 -26.5 93.5t-78.5 40.5q-51 0 -77 -41t-29 -93h211z" />
    <glyph glyph-name="ecircumflex" unicode="&#xea;" horiz-adv-x="474" 
d="M369 556h-60l-67 97l-64 -97h-60l79 144h91zM252 -12q-99 0 -158 70t-59 184q0 108 56.5 180.5t150.5 72.5q95 0 148 -72t53 -185v-29h-307q3 -62 36 -100.5t90 -38.5q65 0 109 52l48 -60q-65 -74 -167 -74zM346 280q-1 53 -26.5 93.5t-78.5 40.5q-51 0 -77 -41t-29 -93
h211z" />
    <glyph glyph-name="edieresis" unicode="&#xeb;" horiz-adv-x="474" 
d="M391 607q0 -23 -17 -39.5t-40 -16.5t-39.5 16.5t-16.5 39.5t16.5 39.5t39.5 16.5t40 -16.5t17 -39.5zM209 607q0 -23 -16.5 -39.5t-39.5 -16.5t-40 16.5t-17 39.5t17 39.5t40 16.5t39.5 -16.5t16.5 -39.5zM252 -12q-99 0 -158 70t-59 184q0 108 56.5 180.5t150.5 72.5
q95 0 148 -72t53 -185v-29h-307q3 -62 36 -100.5t90 -38.5q65 0 109 52l48 -60q-65 -74 -167 -74zM346 280q-1 53 -26.5 93.5t-78.5 40.5q-51 0 -77 -41t-29 -93h211z" />
    <glyph glyph-name="igrave" unicode="&#xec;" horiz-adv-x="218" 
d="M159 0h-100v483h100v-483zM159 556h-68l-134 144h93z" />
    <glyph glyph-name="iacute" unicode="&#xed;" horiz-adv-x="218" 
d="M260 700l-134 -144h-68l110 144h92zM159 0h-100v483h100v-483z" />
    <glyph glyph-name="icircumflex" unicode="&#xee;" horiz-adv-x="218" 
d="M234 556h-60l-67 97l-64 -97h-60l79 144h91zM159 0h-100v483h100v-483z" />
    <glyph glyph-name="idieresis" unicode="&#xef;" horiz-adv-x="218" 
d="M256 607q0 -23 -17 -39.5t-40 -16.5t-39.5 16.5t-16.5 39.5t16.5 39.5t39.5 16.5t40 -16.5t17 -39.5zM74 607q0 -23 -16.5 -39.5t-39.5 -16.5t-40 16.5t-17 39.5t17 39.5t40 16.5t39.5 -16.5t16.5 -39.5zM159 0h-100v483h100v-483z" />
    <glyph glyph-name="eth" unicode="&#xf0;" horiz-adv-x="488" 
d="M120 493l-22 49l108 47q-19 20 -55 52l70 62q39 -36 74 -74l89 39l21 -48l-75 -34q123 -157 123 -329q0 -121 -54.5 -195t-154.5 -74q-98 0 -153.5 69t-55.5 173q0 103 49.5 171.5t131.5 68.5q78 0 124 -78q-27 76 -96 156zM244 76q52 0 79 44t27 110q0 64 -27 108
t-79 44t-79 -44t-27 -108q0 -66 27 -110t79 -44z" />
    <glyph glyph-name="ntilde" unicode="&#xf1;" horiz-adv-x="485" 
d="M426 0h-100v329q0 78 -69 78q-30 0 -56.5 -19.5t-41.5 -47.5v-340h-100v483h100v-65q21 32 59.5 54.5t80.5 22.5q127 0 127 -131v-364zM294 554q-21 0 -37.5 12.5t-24.5 28t-19 28t-22 12.5q-15 0 -24.5 -19t-9.5 -56h-54q0 61 24 97.5t68 36.5q21 0 37 -12.5t24.5 -27.5
t19.5 -27.5t22 -12.5q33 0 33 74h54q0 -61 -23.5 -97.5t-67.5 -36.5z" />
    <glyph glyph-name="ograve" unicode="&#xf2;" horiz-adv-x="488" 
d="M244 -12q-98 0 -153.5 73t-55.5 181t55 180.5t154 72.5t154 -72.5t55 -180.5t-55.5 -181t-153.5 -73zM244 76q52 0 79 48t27 118t-27 117.5t-79 47.5t-79 -47.5t-27 -117.5t27 -118t79 -48zM295 556h-68l-134 144h93z" />
    <glyph glyph-name="oacute" unicode="&#xf3;" horiz-adv-x="488" 
d="M395 700l-134 -144h-68l110 144h92zM244 -12q-98 0 -153.5 73t-55.5 181t55 180.5t154 72.5t154 -72.5t55 -180.5t-55.5 -181t-153.5 -73zM244 76q52 0 79 48t27 118t-27 117.5t-79 47.5t-79 -47.5t-27 -117.5t27 -118t79 -48z" />
    <glyph glyph-name="ocircumflex" unicode="&#xf4;" horiz-adv-x="488" 
d="M370 556h-60l-67 97l-64 -97h-60l79 144h91zM244 -12q-98 0 -153.5 73t-55.5 181t55 180.5t154 72.5t154 -72.5t55 -180.5t-55.5 -181t-153.5 -73zM244 76q52 0 79 48t27 118t-27 117.5t-79 47.5t-79 -47.5t-27 -117.5t27 -118t79 -48z" />
    <glyph glyph-name="otilde" unicode="&#xf5;" horiz-adv-x="488" 
d="M244 -12q-98 0 -153.5 73t-55.5 181t55 180.5t154 72.5t154 -72.5t55 -180.5t-55.5 -181t-153.5 -73zM244 76q52 0 79 48t27 118t-27 117.5t-79 47.5t-79 -47.5t-27 -117.5t27 -118t79 -48zM294 554q-21 0 -37.5 12.5t-24.5 28t-19 28t-22 12.5q-15 0 -24.5 -19t-9.5 -56
h-54q0 61 24 97.5t68 36.5q21 0 37 -12.5t24.5 -27.5t19.5 -27.5t22 -12.5q33 0 33 74h54q0 -61 -23.5 -97.5t-67.5 -36.5z" />
    <glyph glyph-name="odieresis" unicode="&#xf6;" horiz-adv-x="488" 
d="M392 607q0 -23 -17 -39.5t-40 -16.5t-39.5 16.5t-16.5 39.5t16.5 39.5t39.5 16.5t40 -16.5t17 -39.5zM210 607q0 -23 -16.5 -39.5t-39.5 -16.5t-40 16.5t-17 39.5t17 39.5t40 16.5t39.5 -16.5t16.5 -39.5zM244 -12q-98 0 -153.5 73t-55.5 181t55 180.5t154 72.5
t154 -72.5t55 -180.5t-55.5 -181t-153.5 -73zM244 76q52 0 79 48t27 118t-27 117.5t-79 47.5t-79 -47.5t-27 -117.5t27 -118t79 -48z" />
    <glyph glyph-name="divide" unicode="&#xf7;" horiz-adv-x="443" 
d="M275 500q0 -22 -15.5 -37.5t-37.5 -15.5t-37.5 15.5t-15.5 37.5t15.5 37.5t37.5 15.5t37.5 -15.5t15.5 -37.5zM414 305h-385v65h385v-65zM275 171q0 -22 -15.5 -37t-37.5 -15t-37.5 15t-15.5 37t15.5 38t37.5 16t37.5 -16t15.5 -38z" />
    <glyph glyph-name="oslash" unicode="&#xf8;" horiz-adv-x="488" 
d="M106 0h-61l43 63q-53 70 -53 179q0 108 55 180.5t154 72.5q66 0 117 -37l17 25h62l-42 -61q55 -70 55 -180q0 -108 -55.5 -181t-153.5 -73q-70 0 -120 39zM244 76q52 0 79 48t27 118q0 51 -15 90l-157 -227q27 -29 66 -29zM138 242q0 -50 13 -88l156 226q-25 27 -63 27
q-52 0 -79 -47.5t-27 -117.5z" />
    <glyph glyph-name="ugrave" unicode="&#xf9;" horiz-adv-x="485" 
d="M426 0h-100v64q-22 -32 -59.5 -54t-81.5 -22q-126 0 -126 130v365h100v-330q0 -77 69 -77q30 0 56.5 19t41.5 47v341h100v-483zM293 556h-68l-134 144h93z" />
    <glyph glyph-name="uacute" unicode="&#xfa;" horiz-adv-x="485" 
d="M393 700l-134 -144h-68l110 144h92zM426 0h-100v64q-22 -32 -59.5 -54t-81.5 -22q-126 0 -126 130v365h100v-330q0 -77 69 -77q30 0 56.5 19t41.5 47v341h100v-483z" />
    <glyph glyph-name="ucircumflex" unicode="&#xfb;" horiz-adv-x="485" 
d="M368 556h-60l-67 97l-64 -97h-60l79 144h91zM426 0h-100v64q-22 -32 -59.5 -54t-81.5 -22q-126 0 -126 130v365h100v-330q0 -77 69 -77q30 0 56.5 19t41.5 47v341h100v-483z" />
    <glyph glyph-name="udieresis" unicode="&#xfc;" horiz-adv-x="485" 
d="M390 607q0 -23 -17 -39.5t-40 -16.5t-39.5 16.5t-16.5 39.5t16.5 39.5t39.5 16.5t40 -16.5t17 -39.5zM208 607q0 -23 -16.5 -39.5t-39.5 -16.5t-40 16.5t-17 39.5t17 39.5t40 16.5t39.5 -16.5t16.5 -39.5zM426 0h-100v64q-22 -32 -59.5 -54t-81.5 -22q-126 0 -126 130
v365h100v-330q0 -77 69 -77q30 0 56.5 19t41.5 47v341h100v-483z" />
    <glyph glyph-name="yacute" unicode="&#xfd;" horiz-adv-x="430" 
d="M42 -189l15 88q13 -7 32 -7q40 0 55 40l20 58l-162 493h106l107 -363l108 363h106l-191 -574q-19 -58 -53.5 -81.5t-88.5 -23.5q-31 0 -54 7zM366 700l-134 -144h-68l110 144h92z" />
    <glyph glyph-name="thorn" unicode="&#xfe;" horiz-adv-x="492" 
d="M283 -12q-82 0 -124 76v-248h-100v851h100v-246q43 74 124 74q82 0 129 -68t47 -185q0 -116 -47.5 -185t-128.5 -69zM253 76q50 0 76.5 46.5t26.5 119.5t-26.5 119t-76.5 46q-28 0 -54.5 -19t-39.5 -47v-198q13 -28 39.5 -47.5t54.5 -19.5z" />
    <glyph glyph-name="ydieresis" unicode="&#xff;" horiz-adv-x="430" 
d="M42 -189l15 88q13 -7 32 -7q40 0 55 40l20 58l-162 493h106l107 -363l108 363h106l-191 -574q-19 -58 -53.5 -81.5t-88.5 -23.5q-31 0 -54 7zM365 607q0 -23 -17 -39.5t-40 -16.5t-39.5 16.5t-16.5 39.5t16.5 39.5t39.5 16.5t40 -16.5t17 -39.5zM183 607
q0 -23 -16.5 -39.5t-39.5 -16.5t-40 16.5t-17 39.5t17 39.5t40 16.5t39.5 -16.5t16.5 -39.5z" />
    <glyph glyph-name="Amacron" unicode="&#x100;" horiz-adv-x="536" 
d="M533 0h-120l-36 132h-219l-36 -132h-120l199 667h133zM355 230l-87 319l-87 -319h174zM422 734h-309v60h309v-60z" />
    <glyph glyph-name="amacron" unicode="&#x101;" 
d="M408 0h-99v49q-44 -61 -127 -61q-62 0 -105 43.5t-43 117.5t43 115.5t105 41.5q85 0 127 -58v70q0 44 -24.5 68t-69.5 24q-66 0 -120 -55l-39 70q70 70 177 70q80 0 127.5 -40.5t47.5 -124.5v-330zM218 57q60 0 91 53v73q-14 25 -39 39.5t-52 14.5q-38 0 -61 -25t-23 -65
t23 -65t61 -25zM388 567h-309v60h309v-60z" />
    <glyph glyph-name="Abreve" unicode="&#x102;" horiz-adv-x="536" 
d="M533 0h-120l-36 132h-219l-36 -132h-120l199 667h133zM355 230l-87 319l-87 -319h174zM417 783q-55 -75 -149 -75q-92 0 -149 75l47 38q37 -53 102 -53t102 53z" />
    <glyph glyph-name="abreve" unicode="&#x103;" 
d="M408 0h-99v49q-44 -61 -127 -61q-62 0 -105 43.5t-43 117.5t43 115.5t105 41.5q85 0 127 -58v70q0 44 -24.5 68t-69.5 24q-66 0 -120 -55l-39 70q70 70 177 70q80 0 127.5 -40.5t47.5 -124.5v-330zM218 57q60 0 91 53v73q-14 25 -39 39.5t-52 14.5q-38 0 -61 -25t-23 -65
t23 -65t61 -25zM383 616q-55 -75 -149 -75q-92 0 -149 75l47 38q37 -53 102 -53t102 53z" />
    <glyph glyph-name="Aogonek" unicode="&#x104;" horiz-adv-x="536" 
d="M537 -106l44 -25q-25 -55 -82 -55q-38 0 -62 21t-24 63q0 56 48 102h-48l-36 132h-219l-36 -132h-120l199 667h133l199 -667q-67 -40 -67 -99q0 -42 33 -42q28 0 38 35zM355 230l-87 319l-87 -319h174z" />
    <glyph glyph-name="aogonek" unicode="&#x105;" 
d="M412 -106l44 -25q-25 -55 -82 -55q-38 0 -62 21t-24 63q0 56 48 102h-27v49q-44 -61 -127 -61q-62 0 -105 43.5t-43 117.5t43 115.5t105 41.5q85 0 127 -58v70q0 44 -24.5 68t-69.5 24q-66 0 -120 -55l-39 70q70 70 177 70q80 0 127.5 -40.5t47.5 -124.5v-330
q-67 -40 -67 -99q0 -42 33 -42q28 0 38 35zM218 57q60 0 91 53v73q-14 25 -39 39.5t-52 14.5q-38 0 -61 -25t-23 -65t23 -65t61 -25z" />
    <glyph glyph-name="Cacute" unicode="&#x106;" horiz-adv-x="547" 
d="M462 867l-134 -144h-68l110 144h92zM311 -12q-124 0 -198 96.5t-74 248.5q0 153 74 249t198 96q141 0 211 -147l-92 -41q-39 90 -119 90q-72 0 -115.5 -69t-43.5 -178q0 -108 43.5 -177t115.5 -69q42 0 72.5 27t47.5 71l92 -41q-68 -156 -212 -156z" />
    <glyph glyph-name="cacute" unicode="&#x107;" horiz-adv-x="415" 
d="M397 700l-134 -144h-68l110 144h92zM247 -12q-95 0 -153.5 71.5t-58.5 182.5t58 182t154 71q95 0 147 -65l-51 -68q-35 45 -86 45q-55 0 -87 -47t-32 -118q0 -72 32 -119t87 -47q50 0 86 45l51 -68q-52 -65 -147 -65z" />
    <glyph glyph-name="Ccircumflex" unicode="&#x108;" horiz-adv-x="547" 
d="M436 723h-60l-67 97l-64 -97h-60l79 144h91zM311 -12q-124 0 -198 96.5t-74 248.5q0 153 74 249t198 96q141 0 211 -147l-92 -41q-39 90 -119 90q-72 0 -115.5 -69t-43.5 -178q0 -108 43.5 -177t115.5 -69q42 0 72.5 27t47.5 71l92 -41q-68 -156 -212 -156z" />
    <glyph glyph-name="ccircumflex" unicode="&#x109;" horiz-adv-x="415" 
d="M373 556h-60l-67 97l-64 -97h-60l79 144h91zM247 -12q-95 0 -153.5 71.5t-58.5 182.5t58 182t154 71q95 0 147 -65l-51 -68q-35 45 -86 45q-55 0 -87 -47t-32 -118q0 -72 32 -119t87 -47q50 0 86 45l51 -68q-52 -65 -147 -65z" />
    <glyph glyph-name="Cdotaccent" unicode="&#x10a;" horiz-adv-x="547" 
d="M311 -12q-124 0 -198 96.5t-74 248.5q0 153 74 249t198 96q141 0 211 -147l-92 -41q-39 90 -119 90q-72 0 -115.5 -69t-43.5 -178q0 -108 43.5 -177t115.5 -69q42 0 72.5 27t47.5 71l92 -41q-68 -156 -212 -156zM312 717q-23 0 -40 16.5t-17 39.5t17 40t40 17t39.5 -17
t16.5 -40t-16.5 -39.5t-39.5 -16.5z" />
    <glyph glyph-name="cdotaccent" unicode="&#x10b;" horiz-adv-x="415" 
d="M247 -12q-95 0 -153.5 71.5t-58.5 182.5t58 182t154 71q95 0 147 -65l-51 -68q-35 45 -86 45q-55 0 -87 -47t-32 -118q0 -72 32 -119t87 -47q50 0 86 45l51 -68q-52 -65 -147 -65zM248 550q-23 0 -40 16.5t-17 39.5t17 40t40 17t39.5 -17t16.5 -40t-16.5 -39.5
t-39.5 -16.5z" />
    <glyph glyph-name="Ccaron" unicode="&#x10c;" horiz-adv-x="547" 
d="M358 723h-91l-82 144h60l67 -97l64 97h60zM311 -12q-124 0 -198 96.5t-74 248.5q0 153 74 249t198 96q141 0 211 -147l-92 -41q-39 90 -119 90q-72 0 -115.5 -69t-43.5 -178q0 -108 43.5 -177t115.5 -69q42 0 72.5 27t47.5 71l92 -41q-68 -156 -212 -156z" />
    <glyph glyph-name="ccaron" unicode="&#x10d;" horiz-adv-x="415" 
d="M295 556h-91l-82 144h60l67 -97l64 97h60zM247 -12q-95 0 -153.5 71.5t-58.5 182.5t58 182t154 71q95 0 147 -65l-51 -68q-35 45 -86 45q-55 0 -87 -47t-32 -118q0 -72 32 -119t87 -47q50 0 86 45l51 -68q-52 -65 -147 -65z" />
    <glyph glyph-name="Dcaron" unicode="&#x10e;" horiz-adv-x="583" 
d="M338 723h-91l-82 144h60l67 -97l64 97h60zM263 0h-199v667h199q131 0 206 -92.5t75 -241.5t-74.5 -241t-206.5 -92zM263 98q80 0 123.5 64.5t43.5 170.5q0 108 -43 172.5t-124 64.5h-88v-472h88z" />
    <glyph glyph-name="dcaron" unicode="&#x10f;" horiz-adv-x="588" 
d="M594 606q0 -42 -21.5 -79.5t-55.5 -62.5l-38 30q22 14 39.5 37.5t21.5 45.5q-1 0 -6 -0.5t-7 -0.5q-20 0 -33.5 13.5t-13.5 35.5q0 23 15.5 38.5t37.5 15.5q25 0 43 -19.5t18 -53.5zM435 0h-100v64q-22 -36 -55 -56t-69 -20q-81 0 -128.5 68.5t-47.5 184.5t47.5 185
t128.5 69t124 -77v249h100v-667zM241 76q28 0 54.5 19t39.5 47v199q-13 28 -39.5 47t-54.5 19q-50 0 -76.5 -46t-26.5 -120q0 -72 26.5 -118.5t76.5 -46.5z" />
    <glyph glyph-name="Dcroat" unicode="&#x110;" horiz-adv-x="606" 
d="M287 0h-199v287h-74v82h74v298h199q131 0 206 -92.5t75 -241.5t-74.5 -241t-206.5 -92zM287 98q80 0 123.5 64.5t43.5 170.5q0 108 -43 172.5t-124 64.5h-88v-201h114v-82h-114v-189h88z" />
    <glyph glyph-name="dcroat" unicode="&#x111;" horiz-adv-x="502" 
d="M435 0h-100v64q-22 -36 -55 -56t-69 -20q-81 0 -128.5 68.5t-47.5 184.5t47.5 185t128.5 69t124 -77v114h-134v60h134v75h100v-75h56v-60h-56v-532zM241 76q28 0 54.5 19t39.5 47v199q-13 28 -39.5 47t-54.5 19q-50 0 -76.5 -46t-26.5 -120q0 -72 26.5 -118.5t76.5 -46.5
z" />
    <glyph glyph-name="Emacron" unicode="&#x112;" horiz-adv-x="472" 
d="M429 0h-365v667h365v-97h-254v-181h247v-98h-247v-193h254v-98zM402 734h-309v60h309v-60z" />
    <glyph glyph-name="emacron" unicode="&#x113;" horiz-adv-x="474" 
d="M252 -12q-99 0 -158 70t-59 184q0 108 56.5 180.5t150.5 72.5q95 0 148 -72t53 -185v-29h-307q3 -62 36 -100.5t90 -38.5q65 0 109 52l48 -60q-65 -74 -167 -74zM346 280q-1 53 -26.5 93.5t-78.5 40.5q-51 0 -77 -41t-29 -93h211zM398 567h-309v60h309v-60z" />
    <glyph glyph-name="Ebreve" unicode="&#x114;" horiz-adv-x="472" 
d="M429 0h-365v667h365v-97h-254v-181h247v-98h-247v-193h254v-98zM397 783q-55 -75 -149 -75q-92 0 -149 75l47 38q37 -53 102 -53t102 53z" />
    <glyph glyph-name="ebreve" unicode="&#x115;" horiz-adv-x="474" 
d="M252 -12q-99 0 -158 70t-59 184q0 108 56.5 180.5t150.5 72.5q95 0 148 -72t53 -185v-29h-307q3 -62 36 -100.5t90 -38.5q65 0 109 52l48 -60q-65 -74 -167 -74zM346 280q-1 53 -26.5 93.5t-78.5 40.5q-51 0 -77 -41t-29 -93h211zM392 616q-55 -75 -149 -75
q-92 0 -149 75l47 38q37 -53 102 -53t102 53z" />
    <glyph glyph-name="Edotaccent" unicode="&#x116;" horiz-adv-x="472" 
d="M429 0h-365v667h365v-97h-254v-181h247v-98h-247v-193h254v-98zM251 717q-23 0 -40 16.5t-17 39.5t17 40t40 17t39.5 -17t16.5 -40t-16.5 -39.5t-39.5 -16.5z" />
    <glyph glyph-name="edotaccent" unicode="&#x117;" horiz-adv-x="474" 
d="M252 -12q-99 0 -158 70t-59 184q0 108 56.5 180.5t150.5 72.5q95 0 148 -72t53 -185v-29h-307q3 -62 36 -100.5t90 -38.5q65 0 109 52l48 -60q-65 -74 -167 -74zM346 280q-1 53 -26.5 93.5t-78.5 40.5q-51 0 -77 -41t-29 -93h211zM244 550q-23 0 -40 16.5t-17 39.5t17 40
t40 17t39.5 -17t16.5 -40t-16.5 -39.5t-39.5 -16.5z" />
    <glyph glyph-name="Eogonek" unicode="&#x118;" horiz-adv-x="472" 
d="M429 0q-67 -40 -67 -99q0 -42 33 -42q28 0 38 35l44 -25q-25 -55 -82 -55q-38 0 -62 21t-24 63q0 56 48 102h-293v667h365v-97h-254v-181h247v-98h-247v-193h254v-98z" />
    <glyph glyph-name="eogonek" unicode="&#x119;" horiz-adv-x="474" 
d="M330 -106l44 -25q-25 -55 -82 -55q-38 0 -62 21t-24 63q0 49 36 90q-95 4 -151 73.5t-56 180.5q0 108 56.5 180.5t150.5 72.5q95 0 148 -72t53 -185v-29h-307q3 -62 36 -100.5t90 -38.5q65 0 109 52l48 -60q-38 -44 -93 -62q-67 -40 -67 -99q0 -42 33 -42q28 0 38 35z
M346 280q-1 53 -26.5 93.5t-78.5 40.5q-51 0 -77 -41t-29 -93h211z" />
    <glyph glyph-name="Ecaron" unicode="&#x11a;" horiz-adv-x="472" 
d="M293 723h-91l-82 144h60l67 -97l64 97h60zM429 0h-365v667h365v-97h-254v-181h247v-98h-247v-193h254v-98z" />
    <glyph glyph-name="ecaron" unicode="&#x11b;" horiz-adv-x="474" 
d="M290 556h-91l-82 144h60l67 -97l64 97h60zM252 -12q-99 0 -158 70t-59 184q0 108 56.5 180.5t150.5 72.5q95 0 148 -72t53 -185v-29h-307q3 -62 36 -100.5t90 -38.5q65 0 109 52l48 -60q-65 -74 -167 -74zM346 280q-1 53 -26.5 93.5t-78.5 40.5q-51 0 -77 -41t-29 -93
h211z" />
    <glyph glyph-name="Gcircumflex" unicode="&#x11c;" horiz-adv-x="576" 
d="M438 723h-60l-67 97l-64 -97h-60l79 144h91zM311 -13q-123 0 -197.5 95.5t-74.5 250.5t74.5 250t197.5 95q143 0 212 -142l-90 -42q-42 86 -122 86q-72 0 -115.5 -67t-43.5 -180t43.5 -180t115.5 -67q69 0 111 48v124h-140v97h245v-265q-87 -103 -216 -103z" />
    <glyph glyph-name="gcircumflex" unicode="&#x11d;" horiz-adv-x="493" 
d="M375 556h-60l-67 97l-64 -97h-60l79 144h91zM226 -196q-106 0 -171 61l41 77q50 -54 125 -54q49 0 81.5 29.5t32.5 91.5v69q-22 -37 -55 -58t-69 -21q-81 0 -128.5 66t-47.5 182q0 115 47 181.5t129 66.5q80 0 124 -77v65h99v-466q0 -115 -59 -164t-149 -49zM241 88
q28 0 54.5 19t39.5 47v187q-13 28 -39.5 47t-54.5 19q-50 0 -76.5 -44t-26.5 -116t26.5 -115.5t76.5 -43.5z" />
    <glyph glyph-name="Gbreve" unicode="&#x11e;" horiz-adv-x="576" 
d="M311 -13q-123 0 -197.5 95.5t-74.5 250.5t74.5 250t197.5 95q143 0 212 -142l-90 -42q-42 86 -122 86q-72 0 -115.5 -67t-43.5 -180t43.5 -180t115.5 -67q69 0 111 48v124h-140v97h245v-265q-87 -103 -216 -103zM462 783q-55 -75 -149 -75q-92 0 -149 75l47 38
q37 -53 102 -53t102 53z" />
    <glyph glyph-name="gbreve" unicode="&#x11f;" horiz-adv-x="493" 
d="M226 -196q-106 0 -171 61l41 77q50 -54 125 -54q49 0 81.5 29.5t32.5 91.5v69q-22 -37 -55 -58t-69 -21q-81 0 -128.5 66t-47.5 182q0 115 47 181.5t129 66.5q80 0 124 -77v65h99v-466q0 -115 -59 -164t-149 -49zM241 88q28 0 54.5 19t39.5 47v187q-13 28 -39.5 47
t-54.5 19q-50 0 -76.5 -44t-26.5 -116t26.5 -115.5t76.5 -43.5zM398 616q-55 -75 -149 -75q-92 0 -149 75l47 38q37 -53 102 -53t102 53z" />
    <glyph glyph-name="Gdotaccent" unicode="&#x120;" horiz-adv-x="576" 
d="M311 -13q-123 0 -197.5 95.5t-74.5 250.5t74.5 250t197.5 95q143 0 212 -142l-90 -42q-42 86 -122 86q-72 0 -115.5 -67t-43.5 -180t43.5 -180t115.5 -67q69 0 111 48v124h-140v97h245v-265q-87 -103 -216 -103zM313 717q-23 0 -40 16.5t-17 39.5t17 40t40 17t39.5 -17
t16.5 -40t-16.5 -39.5t-39.5 -16.5z" />
    <glyph glyph-name="gdotaccent" unicode="&#x121;" horiz-adv-x="493" 
d="M226 -196q-106 0 -171 61l41 77q50 -54 125 -54q49 0 81.5 29.5t32.5 91.5v69q-22 -37 -55 -58t-69 -21q-81 0 -128.5 66t-47.5 182q0 115 47 181.5t129 66.5q80 0 124 -77v65h99v-466q0 -115 -59 -164t-149 -49zM241 88q28 0 54.5 19t39.5 47v187q-13 28 -39.5 47
t-54.5 19q-50 0 -76.5 -44t-26.5 -116t26.5 -115.5t76.5 -43.5zM249 550q-23 0 -40 16.5t-17 39.5t17 40t40 17t39.5 -17t16.5 -40t-16.5 -39.5t-39.5 -16.5z" />
    <glyph glyph-name="Gcommaaccent" unicode="&#x122;" horiz-adv-x="576" 
d="M369 -138q0 -42 -21.5 -79.5t-55.5 -62.5l-38 30q22 14 39.5 37.5t21.5 45.5q-1 0 -6 -0.5t-7 -0.5q-20 0 -33.5 13.5t-13.5 35.5q0 23 15.5 38.5t37.5 15.5q25 0 43 -19.5t18 -53.5zM311 -13q-123 0 -197.5 95.5t-74.5 250.5t74.5 250t197.5 95q143 0 212 -142l-90 -42
q-42 86 -122 86q-72 0 -115.5 -67t-43.5 -180t43.5 -180t115.5 -67q69 0 111 48v124h-140v97h245v-265q-87 -103 -216 -103z" />
    <glyph glyph-name="gcommaaccent" unicode="&#x123;" horiz-adv-x="493" 
d="M193 611q0 46 20 85.5t54 62.5l38 -30q-22 -14 -40 -36.5t-20 -43.5l2 1h4q19 0 35.5 -15.5t16.5 -36.5q0 -22 -16 -38t-39 -16q-21 0 -38 16.5t-17 50.5zM226 -196q-106 0 -171 61l41 77q50 -54 125 -54q49 0 81.5 29.5t32.5 91.5v69q-22 -37 -55 -58t-69 -21
q-81 0 -128.5 66t-47.5 182q0 115 47 181.5t129 66.5q80 0 124 -77v65h99v-466q0 -115 -59 -164t-149 -49zM241 88q28 0 54.5 19t39.5 47v187q-13 28 -39.5 47t-54.5 19q-50 0 -76.5 -44t-26.5 -116t26.5 -115.5t76.5 -43.5z" />
    <glyph glyph-name="Hcircumflex" unicode="&#x124;" horiz-adv-x="593" 
d="M421 723h-60l-67 97l-64 -97h-60l79 144h91zM530 0h-111v294h-244v-294h-111v667h111v-275h244v275h111v-667z" />
    <glyph glyph-name="hcircumflex" unicode="&#x125;" horiz-adv-x="485" 
d="M369 723h-60l-67 97l-64 -97h-60l79 144h91zM426 0h-99v331q0 76 -70 76q-30 0 -56 -19.5t-42 -47.5v-340h-100v667h100v-249q21 32 59.5 54.5t81.5 22.5q126 0 126 -130v-365z" />
    <glyph glyph-name="Hbar" unicode="&#x126;" horiz-adv-x="620" 
d="M544 0h-111v294h-244v-294h-111v498h-64v60h64v109h111v-109h244v109h111v-109h56v-60h-56v-498zM189 392h244v106h-244v-106z" />
    <glyph glyph-name="hbar" unicode="&#x127;" horiz-adv-x="493" 
d="M303 532h-136v-114q21 32 59.5 54.5t81.5 22.5q126 0 126 -130v-365h-99v331q0 76 -70 76q-30 0 -56 -19.5t-42 -47.5v-340h-100v532h-53v60h53v75h100v-75h136v-60z" />
    <glyph glyph-name="Itilde" unicode="&#x128;" horiz-adv-x="239" 
d="M175 0h-111v667h111v-667zM170 721q-21 0 -37.5 12.5t-24.5 28t-19 28t-22 12.5q-15 0 -24.5 -19t-9.5 -56h-54q0 61 24 97.5t68 36.5q21 0 37 -12.5t24.5 -27.5t19.5 -27.5t22 -12.5q33 0 33 74h54q0 -61 -23.5 -97.5t-67.5 -36.5z" />
    <glyph glyph-name="itilde" unicode="&#x129;" horiz-adv-x="218" 
d="M159 0h-100v483h100v-483zM159 554q-21 0 -37.5 12.5t-24.5 28t-19 28t-22 12.5q-15 0 -24.5 -19t-9.5 -56h-54q0 61 24 97.5t68 36.5q21 0 37 -12.5t24.5 -27.5t19.5 -27.5t22 -12.5q33 0 33 74h54q0 -61 -23.5 -97.5t-67.5 -36.5z" />
    <glyph glyph-name="Imacron" unicode="&#x12a;" horiz-adv-x="239" 
d="M175 0h-111v667h111v-667zM274 734h-309v60h309v-60z" />
    <glyph glyph-name="imacron" unicode="&#x12b;" horiz-adv-x="218" 
d="M159 0h-100v483h100v-483zM263 567h-309v60h309v-60z" />
    <glyph glyph-name="Ibreve" unicode="&#x12c;" horiz-adv-x="239" 
d="M175 0h-111v667h111v-667zM269 783q-55 -75 -149 -75q-92 0 -149 75l47 38q37 -53 102 -53t102 53z" />
    <glyph glyph-name="ibreve" unicode="&#x12d;" horiz-adv-x="218" 
d="M159 0h-100v483h100v-483zM258 616q-55 -75 -149 -75q-92 0 -149 75l47 38q37 -53 102 -53t102 53z" />
    <glyph glyph-name="Iogonek" unicode="&#x12e;" horiz-adv-x="239" 
d="M179 -106l44 -25q-25 -55 -82 -55q-38 0 -62 21t-24 63q0 56 48 102h-39v667h111v-667q-67 -40 -67 -99q0 -42 33 -42q28 0 38 35z" />
    <glyph glyph-name="iogonek" unicode="&#x12f;" horiz-adv-x="218" 
d="M163 -106l44 -25q-25 -55 -82 -55q-38 0 -62 21t-24 63q0 56 48 102h-28v483h100v-483q-67 -40 -67 -99q0 -42 33 -42q28 0 38 35zM109 544q-26 0 -44.5 18.5t-18.5 43.5q0 26 18.5 44.5t44.5 18.5t44 -18.5t18 -44.5t-18.5 -44t-43.5 -18z" />
    <glyph glyph-name="Idotaccent" unicode="&#x130;" horiz-adv-x="239" 
d="M175 0h-111v667h111v-667zM121 717q-23 0 -40 16.5t-17 39.5t17 40t40 17t39.5 -17t16.5 -40t-16.5 -39.5t-39.5 -16.5z" />
    <glyph glyph-name="dotlessi" unicode="&#x131;" horiz-adv-x="218" 
d="M159 0h-100v483h100v-483z" />
    <glyph glyph-name="IJ" unicode="&#x132;" horiz-adv-x="647" 
d="M175 0h-111v667h111v-667zM389 -12q-87 0 -142 55l43 87q38 -43 89 -43q45 0 70 26t25 74v480h111v-483q0 -98 -53 -147t-143 -49z" />
    <glyph glyph-name="ij" unicode="&#x133;" horiz-adv-x="435" 
d="M109 544q-26 0 -44.5 18.5t-18.5 43.5q0 26 18.5 44.5t44.5 18.5t44 -18.5t18 -44.5t-18.5 -44t-43.5 -18zM159 0h-100v483h100v-483zM327 544q-26 0 -44.5 18.5t-18.5 43.5q0 26 18.5 44.5t44.5 18.5t44 -18.5t18 -44.5t-18.5 -44t-43.5 -18zM237 -196q-53 0 -87 31
l28 75q20 -22 47 -22q52 0 52 71v524h100v-524q0 -155 -140 -155z" />
    <glyph glyph-name="Jcircumflex" unicode="&#x134;" horiz-adv-x="409" 
d="M416 723h-60l-67 97l-64 -97h-60l79 144h91zM150 -12q-87 0 -142 55l43 87q38 -43 89 -43q45 0 70 26t25 74v480h111v-483q0 -98 -53 -147t-143 -49z" />
    <glyph glyph-name="jcircumflex" unicode="&#x135;" horiz-adv-x="218" 
d="M236 556h-60l-67 97l-64 -97h-60l79 144h91zM19 -196q-53 0 -87 31l28 75q20 -22 47 -22q52 0 52 71v524h100v-524q0 -155 -140 -155z" />
    <glyph glyph-name="Kcommaaccent" unicode="&#x136;" horiz-adv-x="539" 
d="M334 -138q0 -42 -21.5 -79.5t-55.5 -62.5l-38 30q22 14 39.5 37.5t21.5 45.5q-1 0 -6 -0.5t-7 -0.5q-20 0 -33.5 13.5t-13.5 35.5q0 23 15.5 38.5t37.5 15.5q25 0 43 -19.5t18 -53.5zM528 0h-131l-172 275l-50 -76v-199h-111v667h111v-321l207 321h130l-218 -315z" />
    <glyph glyph-name="kcommaaccent" unicode="&#x137;" horiz-adv-x="456" 
d="M292 -138q0 -42 -21.5 -79.5t-55.5 -62.5l-38 30q22 14 39.5 37.5t21.5 45.5q-1 0 -6 -0.5t-7 -0.5q-20 0 -33.5 13.5t-13.5 35.5q0 23 15.5 38.5t37.5 15.5q25 0 43 -19.5t18 -53.5zM448 0h-117l-114 202l-58 -78v-124h-100v667h100v-421l170 237h116l-160 -217z" />
    <glyph glyph-name="kgreenlandic" unicode="&#x138;" horiz-adv-x="456" 
d="M448 0h-117l-114 202l-58 -78v-124h-100v483h100v-237l170 237h116l-160 -217z" />
    <glyph glyph-name="Lacute" unicode="&#x139;" horiz-adv-x="434" 
d="M386 867l-134 -144h-68l110 144h92zM406 0h-342v667h111v-569h231v-98z" />
    <glyph glyph-name="lacute" unicode="&#x13a;" horiz-adv-x="218" 
d="M260 867l-134 -144h-68l110 144h92zM159 0h-100v667h100v-667z" />
    <glyph glyph-name="Lcommaaccent" unicode="&#x13b;" horiz-adv-x="434" 
d="M281 -138q0 -42 -21.5 -79.5t-55.5 -62.5l-38 30q22 14 39.5 37.5t21.5 45.5q-1 0 -6 -0.5t-7 -0.5q-20 0 -33.5 13.5t-13.5 35.5q0 23 15.5 38.5t37.5 15.5q25 0 43 -19.5t18 -53.5zM406 0h-342v667h111v-569h231v-98z" />
    <glyph glyph-name="lcommaaccent" unicode="&#x13c;" horiz-adv-x="218" 
d="M173 -138q0 -42 -21.5 -79.5t-55.5 -62.5l-38 30q22 14 39.5 37.5t21.5 45.5q-1 0 -6 -0.5t-7 -0.5q-20 0 -33.5 13.5t-13.5 35.5q0 23 15.5 38.5t37.5 15.5q25 0 43 -19.5t18 -53.5zM159 0h-100v667h100v-667z" />
    <glyph glyph-name="Lcaron" unicode="&#x13d;" horiz-adv-x="434" 
d="M358 607q0 -42 -21.5 -79.5t-55.5 -62.5l-38 30q22 14 39.5 37.5t21.5 45.5q-1 0 -6 -0.5t-7 -0.5q-20 0 -33.5 13.5t-13.5 35.5q0 23 15.5 38.5t37.5 15.5q25 0 43 -19.5t18 -53.5zM406 0h-342v667h111v-569h231v-98z" />
    <glyph glyph-name="lcaron" unicode="&#x13e;" horiz-adv-x="310" 
d="M330 607q0 -42 -21.5 -79.5t-55.5 -62.5l-38 30q22 14 39.5 37.5t21.5 45.5q-1 0 -6 -0.5t-7 -0.5q-20 0 -33.5 13.5t-13.5 35.5q0 23 15.5 38.5t37.5 15.5q25 0 43 -19.5t18 -53.5zM159 0h-100v667h100v-667z" />
    <glyph glyph-name="Ldot" unicode="&#x13f;" horiz-adv-x="459" 
d="M406 0h-342v667h111v-569h231v-98zM415 342q0 -27 -19.5 -47t-47.5 -20t-47.5 20t-19.5 47t19.5 47t47.5 20t47.5 -20t19.5 -47z" />
    <glyph glyph-name="ldot" unicode="&#x140;" horiz-adv-x="339" 
d="M159 0h-100v667h100v-667zM345 245q0 -27 -19.5 -47t-47.5 -20t-47.5 20t-19.5 47t19.5 47t47.5 20t47.5 -20t19.5 -47z" />
    <glyph glyph-name="Lslash" unicode="&#x141;" horiz-adv-x="448" 
d="M14 218v92l64 37v320h111v-256l71 42v-93l-71 -41v-221h231v-98h-342v255z" />
    <glyph glyph-name="lslash" unicode="&#x142;" horiz-adv-x="266" 
d="M14 230v76l70 40v321h100v-264l68 39v-75l-68 -39v-328h-100v270z" />
    <glyph glyph-name="Nacute" unicode="&#x143;" horiz-adv-x="592" 
d="M447 867l-134 -144h-68l110 144h92zM528 0h-106l-247 431v-431h-111v667h112l241 -419v419h111v-667z" />
    <glyph glyph-name="nacute" unicode="&#x144;" horiz-adv-x="485" 
d="M393 700l-134 -144h-68l110 144h92zM426 0h-100v329q0 78 -69 78q-30 0 -56.5 -19.5t-41.5 -47.5v-340h-100v483h100v-65q21 32 59.5 54.5t80.5 22.5q127 0 127 -131v-364z" />
    <glyph glyph-name="Ncommaaccent" unicode="&#x145;" horiz-adv-x="592" 
d="M360 -138q0 -42 -21.5 -79.5t-55.5 -62.5l-38 30q22 14 39.5 37.5t21.5 45.5q-1 0 -6 -0.5t-7 -0.5q-20 0 -33.5 13.5t-13.5 35.5q0 23 15.5 38.5t37.5 15.5q25 0 43 -19.5t18 -53.5zM528 0h-106l-247 431v-431h-111v667h112l241 -419v419h111v-667z" />
    <glyph glyph-name="ncommaaccent" unicode="&#x146;" horiz-adv-x="485" 
d="M304 -138q0 -42 -21.5 -79.5t-55.5 -62.5l-38 30q22 14 39.5 37.5t21.5 45.5q-1 0 -6 -0.5t-7 -0.5q-20 0 -33.5 13.5t-13.5 35.5q0 23 15.5 38.5t37.5 15.5q25 0 43 -19.5t18 -53.5zM426 0h-100v329q0 78 -69 78q-30 0 -56.5 -19.5t-41.5 -47.5v-340h-100v483h100v-65
q21 32 59.5 54.5t80.5 22.5q127 0 127 -131v-364z" />
    <glyph glyph-name="Ncaron" unicode="&#x147;" horiz-adv-x="592" 
d="M343 723h-91l-82 144h60l67 -97l64 97h60zM528 0h-106l-247 431v-431h-111v667h112l241 -419v419h111v-667z" />
    <glyph glyph-name="ncaron" unicode="&#x148;" horiz-adv-x="485" 
d="M290 556h-91l-82 144h60l67 -97l64 97h60zM426 0h-100v329q0 78 -69 78q-30 0 -56.5 -19.5t-41.5 -47.5v-340h-100v483h100v-65q21 32 59.5 54.5t80.5 22.5q127 0 127 -131v-364z" />
    <glyph glyph-name="napostrophe" unicode="&#x149;" horiz-adv-x="485" 
d="M159 680q0 -42 -21.5 -79.5t-55.5 -62.5l-38 30q22 14 39.5 37.5t21.5 45.5q-1 0 -6 -0.5t-7 -0.5q-20 0 -33.5 13.5t-13.5 35.5q0 23 15.5 38.5t37.5 15.5q25 0 43 -19.5t18 -53.5zM426 0h-100v329q0 78 -69 78q-30 0 -56.5 -19.5t-41.5 -47.5v-340h-100v483h100v-65
q21 32 59.5 54.5t80.5 22.5q127 0 127 -131v-364z" />
    <glyph glyph-name="Eng" unicode="&#x14a;" horiz-adv-x="592" 
d="M333 -196q-89 0 -143 55l43 86q39 -44 90 -44q44 0 69 26t25 74v8l-242 442v-451h-111v667h112l241 -439v439h111v-668q0 -98 -52.5 -146.5t-142.5 -48.5z" />
    <glyph glyph-name="eng" unicode="&#x14b;" horiz-adv-x="485" 
d="M426 364v-405q0 -155 -140 -155q-52 0 -86 31l28 78q19 -21 46 -21q52 0 52 67v370q0 78 -69 78q-30 0 -56.5 -19.5t-41.5 -47.5v-340h-100v483h100v-65q21 32 59.5 54.5t80.5 22.5q127 0 127 -131z" />
    <glyph glyph-name="Omacron" unicode="&#x14c;" horiz-adv-x="612" 
d="M460 734h-309v60h309v-60zM306 -12q-124 0 -195.5 97t-71.5 248t71.5 248t195.5 97t195.5 -97t71.5 -248t-71.5 -248t-195.5 -97zM306 87q72 0 113 69.5t41 176.5q0 108 -41 177.5t-113 69.5q-73 0 -113.5 -69t-40.5 -178q0 -108 40.5 -177t113.5 -69z" />
    <glyph glyph-name="omacron" unicode="&#x14d;" horiz-adv-x="488" 
d="M399 567h-309v60h309v-60zM244 -12q-98 0 -153.5 73t-55.5 181t55 180.5t154 72.5t154 -72.5t55 -180.5t-55.5 -181t-153.5 -73zM244 76q52 0 79 48t27 118t-27 117.5t-79 47.5t-79 -47.5t-27 -117.5t27 -118t79 -48z" />
    <glyph glyph-name="Obreve" unicode="&#x14e;" horiz-adv-x="612" 
d="M306 -12q-124 0 -195.5 97t-71.5 248t71.5 248t195.5 97t195.5 -97t71.5 -248t-71.5 -248t-195.5 -97zM306 87q72 0 113 69.5t41 176.5q0 108 -41 177.5t-113 69.5q-73 0 -113.5 -69t-40.5 -178q0 -108 40.5 -177t113.5 -69zM455 783q-55 -75 -149 -75q-92 0 -149 75
l47 38q37 -53 102 -53t102 53z" />
    <glyph glyph-name="obreve" unicode="&#x14f;" horiz-adv-x="488" 
d="M244 -12q-98 0 -153.5 73t-55.5 181t55 180.5t154 72.5t154 -72.5t55 -180.5t-55.5 -181t-153.5 -73zM244 76q52 0 79 48t27 118t-27 117.5t-79 47.5t-79 -47.5t-27 -117.5t27 -118t79 -48zM393 616q-55 -75 -149 -75q-92 0 -149 75l47 38q37 -53 102 -53t102 53z" />
    <glyph glyph-name="Ohungarumlaut" unicode="&#x150;" horiz-adv-x="612" 
d="M353 867l-97 -144h-57l73 144h81zM487 867l-97 -144h-56l72 144h81zM306 -12q-124 0 -195.5 97t-71.5 248t71.5 248t195.5 97t195.5 -97t71.5 -248t-71.5 -248t-195.5 -97zM306 87q72 0 113 69.5t41 176.5q0 108 -41 177.5t-113 69.5q-73 0 -113.5 -69t-40.5 -178
q0 -108 40.5 -177t113.5 -69z" />
    <glyph glyph-name="ohungarumlaut" unicode="&#x151;" horiz-adv-x="488" 
d="M291 700l-97 -144h-57l73 144h81zM425 700l-97 -144h-56l72 144h81zM244 -12q-98 0 -153.5 73t-55.5 181t55 180.5t154 72.5t154 -72.5t55 -180.5t-55.5 -181t-153.5 -73zM244 76q52 0 79 48t27 118t-27 117.5t-79 47.5t-79 -47.5t-27 -117.5t27 -118t79 -48z" />
    <glyph glyph-name="OE" unicode="&#x152;" horiz-adv-x="855" 
d="M813 0h-365v77q-25 -45 -68 -67t-89 -22q-117 0 -184.5 97t-67.5 248q0 152 67.5 248t184.5 96q46 0 89 -21.5t68 -65.5v77h365v-97h-254v-181h247v-98h-247v-193h254v-98zM448 206v254q-18 58 -55 88.5t-85 30.5q-75 0 -115.5 -68.5t-40.5 -177.5t40.5 -177.5
t115.5 -68.5q48 0 84.5 31t55.5 88z" />
    <glyph glyph-name="oe" unicode="&#x153;" horiz-adv-x="788" 
d="M757 209h-306q3 -62 35.5 -100.5t89.5 -38.5q65 0 109 52l49 -60q-66 -74 -167 -74q-111 0 -166 109q-52 -109 -157 -109q-98 0 -153.5 73t-55.5 181t55 180.5t154 72.5q106 0 157 -108q50 108 156 108q95 0 147.5 -72t52.5 -186v-28zM450 280h211q-2 54 -27.5 94
t-78.5 40q-51 0 -77 -41t-28 -93zM350 242q0 71 -27.5 118t-78.5 47t-78.5 -47t-27.5 -118t27.5 -118.5t78.5 -47.5t78.5 47.5t27.5 118.5z" />
    <glyph glyph-name="Racute" unicode="&#x154;" horiz-adv-x="533" 
d="M425 867l-134 -144h-68l110 144h92zM494 0h-124l-113 252h-82v-252h-111v667h230q86 0 140 -57t54 -149q0 -81 -36 -128.5t-87 -61.5zM278 350q44 0 70.5 30t26.5 80t-26.5 80t-70.5 30h-103v-220h103z" />
    <glyph glyph-name="racute" unicode="&#x155;" horiz-adv-x="308" 
d="M327 700l-134 -144h-68l110 144h92zM159 0h-100v483h100v-71q22 36 58 59t75 23v-99q-12 3 -26 3q-30 0 -61 -19.5t-46 -47.5v-331z" />
    <glyph glyph-name="Rcommaaccent" unicode="&#x156;" horiz-adv-x="533" 
d="M331 -138q0 -42 -21.5 -79.5t-55.5 -62.5l-38 30q22 14 39.5 37.5t21.5 45.5q-1 0 -6 -0.5t-7 -0.5q-20 0 -33.5 13.5t-13.5 35.5q0 23 15.5 38.5t37.5 15.5q25 0 43 -19.5t18 -53.5zM494 0h-124l-113 252h-82v-252h-111v667h230q86 0 140 -57t54 -149q0 -81 -36 -128.5
t-87 -61.5zM278 350q44 0 70.5 30t26.5 80t-26.5 80t-70.5 30h-103v-220h103z" />
    <glyph glyph-name="rcommaaccent" unicode="&#x157;" horiz-adv-x="308" 
d="M217 -138q0 -42 -21.5 -79.5t-55.5 -62.5l-38 30q22 14 39.5 37.5t21.5 45.5q-1 0 -6 -0.5t-7 -0.5q-20 0 -33.5 13.5t-13.5 35.5q0 23 15.5 38.5t37.5 15.5q25 0 43 -19.5t18 -53.5zM159 0h-100v483h100v-71q22 36 58 59t75 23v-99q-12 3 -26 3q-30 0 -61 -19.5
t-46 -47.5v-331z" />
    <glyph glyph-name="Rcaron" unicode="&#x158;" horiz-adv-x="533" 
d="M314 723h-91l-82 144h60l67 -97l64 97h60zM494 0h-124l-113 252h-82v-252h-111v667h230q86 0 140 -57t54 -149q0 -81 -36 -128.5t-87 -61.5zM278 350q44 0 70.5 30t26.5 80t-26.5 80t-70.5 30h-103v-220h103z" />
    <glyph glyph-name="rcaron" unicode="&#x159;" horiz-adv-x="308" 
d="M221 556h-91l-82 144h60l67 -97l64 97h60zM159 0h-100v483h100v-71q22 36 58 59t75 23v-99q-12 3 -26 3q-30 0 -61 -19.5t-46 -47.5v-331z" />
    <glyph glyph-name="Sacute" unicode="&#x15a;" horiz-adv-x="486" 
d="M394 867l-134 -144h-68l110 144h92zM237 -12q-135 0 -215 85l56 86q63 -72 159 -72q49 0 76.5 25.5t27.5 62.5t-31 63t-74.5 44.5t-87.5 40.5t-75 65t-31 104q0 80 57 133t150 53q117 0 192 -72l-54 -84q-57 57 -141 57q-41 0 -66 -22t-25 -59q0 -32 31 -56t74.5 -42.5
t87.5 -41.5t75 -67.5t31 -106.5q0 -86 -57 -141t-160 -55z" />
    <glyph glyph-name="sacute" unicode="&#x15b;" horiz-adv-x="401" 
d="M353 700l-134 -144h-68l110 144h92zM198 -12q-113 0 -177 69l45 70q23 -25 58.5 -42.5t71.5 -17.5q37 0 58.5 17t21.5 46q0 25 -24.5 42t-60 29t-70.5 27.5t-59.5 48t-24.5 80.5q0 59 44.5 98.5t121.5 39.5q95 0 159 -62l-42 -68q-42 51 -115 51q-33 0 -53.5 -16
t-20.5 -40q0 -20 18 -34.5t44.5 -22.5t57.5 -21.5t57.5 -29.5t44.5 -47t18 -73q0 -63 -47.5 -103.5t-125.5 -40.5z" />
    <glyph glyph-name="Scircumflex" unicode="&#x15c;" horiz-adv-x="486" 
d="M373 723h-60l-67 97l-64 -97h-60l79 144h91zM237 -12q-135 0 -215 85l56 86q63 -72 159 -72q49 0 76.5 25.5t27.5 62.5t-31 63t-74.5 44.5t-87.5 40.5t-75 65t-31 104q0 80 57 133t150 53q117 0 192 -72l-54 -84q-57 57 -141 57q-41 0 -66 -22t-25 -59q0 -32 31 -56
t74.5 -42.5t87.5 -41.5t75 -67.5t31 -106.5q0 -86 -57 -141t-160 -55z" />
    <glyph glyph-name="scircumflex" unicode="&#x15d;" horiz-adv-x="401" 
d="M327 556h-60l-67 97l-64 -97h-60l79 144h91zM198 -12q-113 0 -177 69l45 70q23 -25 58.5 -42.5t71.5 -17.5q37 0 58.5 17t21.5 46q0 25 -24.5 42t-60 29t-70.5 27.5t-59.5 48t-24.5 80.5q0 59 44.5 98.5t121.5 39.5q95 0 159 -62l-42 -68q-42 51 -115 51q-33 0 -53.5 -16
t-20.5 -40q0 -20 18 -34.5t44.5 -22.5t57.5 -21.5t57.5 -29.5t44.5 -47t18 -73q0 -63 -47.5 -103.5t-125.5 -40.5z" />
    <glyph glyph-name="Scedilla" unicode="&#x15e;" horiz-adv-x="486" 
d="M230 -194q-55 0 -94 31l21 44q34 -28 71 -28q21 0 35.5 10t14.5 27q0 30 -30 30q-18 0 -30 -14l-39 22l23 62q-112 10 -180 83l56 86q63 -72 159 -72q49 0 76.5 25.5t27.5 62.5t-31 63t-74.5 44.5t-87.5 40.5t-75 65t-31 104q0 80 57 133t150 53q117 0 192 -72l-54 -84
q-57 57 -141 57q-41 0 -66 -22t-25 -59q0 -32 31 -56t74.5 -42.5t87.5 -41.5t75 -67.5t31 -106.5q0 -82 -52 -136.5t-148 -58.5l-17 -43q14 11 32 11q27 0 44.5 -19t17.5 -49q0 -37 -29 -60t-72 -23z" />
    <glyph glyph-name="scedilla" unicode="&#x15f;" horiz-adv-x="401" 
d="M194 -194q-55 0 -94 31l21 44q34 -28 71 -28q21 0 35.5 10t14.5 27q0 30 -30 30q-18 0 -30 -14l-39 22l23 62q-92 9 -145 67l45 70q23 -25 58.5 -42.5t71.5 -17.5q37 0 58.5 17t21.5 46q0 25 -24.5 42t-60 29t-70.5 27.5t-59.5 48t-24.5 80.5q0 59 44.5 98.5t121.5 39.5
q95 0 159 -62l-42 -68q-42 51 -115 51q-33 0 -53.5 -16t-20.5 -40q0 -20 18 -34.5t44.5 -22.5t57.5 -21.5t57.5 -29.5t44.5 -47t18 -73q0 -59 -41.5 -98t-111.5 -45l-17 -43q14 11 32 11q27 0 44.5 -19t17.5 -49q0 -37 -29 -60t-72 -23z" />
    <glyph glyph-name="Scaron" unicode="&#x160;" horiz-adv-x="486" 
d="M295 723h-91l-82 144h60l67 -97l64 97h60zM237 -12q-135 0 -215 85l56 86q63 -72 159 -72q49 0 76.5 25.5t27.5 62.5t-31 63t-74.5 44.5t-87.5 40.5t-75 65t-31 104q0 80 57 133t150 53q117 0 192 -72l-54 -84q-57 57 -141 57q-41 0 -66 -22t-25 -59q0 -32 31 -56
t74.5 -42.5t87.5 -41.5t75 -67.5t31 -106.5q0 -86 -57 -141t-160 -55z" />
    <glyph glyph-name="scaron" unicode="&#x161;" horiz-adv-x="401" 
d="M249 556h-91l-82 144h60l67 -97l64 97h60zM198 -12q-113 0 -177 69l45 70q23 -25 58.5 -42.5t71.5 -17.5q37 0 58.5 17t21.5 46q0 25 -24.5 42t-60 29t-70.5 27.5t-59.5 48t-24.5 80.5q0 59 44.5 98.5t121.5 39.5q95 0 159 -62l-42 -68q-42 51 -115 51q-33 0 -53.5 -16
t-20.5 -40q0 -20 18 -34.5t44.5 -22.5t57.5 -21.5t57.5 -29.5t44.5 -47t18 -73q0 -63 -47.5 -103.5t-125.5 -40.5z" />
    <glyph glyph-name="Tcommaaccent" unicode="&#x162;" horiz-adv-x="462" 
d="M294 -138q0 -42 -21.5 -79.5t-55.5 -62.5l-38 30q22 14 39.5 37.5t21.5 45.5q-1 0 -6 -0.5t-7 -0.5q-20 0 -33.5 13.5t-13.5 35.5q0 23 15.5 38.5t37.5 15.5q25 0 43 -19.5t18 -53.5zM286 0h-110v570h-153v97h416v-97h-153v-570z" />
    <glyph glyph-name="tcommaaccent" unicode="&#x163;" horiz-adv-x="283" 
d="M205 -138q0 -42 -21.5 -79.5t-55.5 -62.5l-38 30q22 14 39.5 37.5t21.5 45.5q-1 0 -6 -0.5t-7 -0.5q-20 0 -33.5 13.5t-13.5 35.5q0 23 15.5 38.5t37.5 15.5q25 0 43 -19.5t18 -53.5zM189 -12q-112 0 -112 120v288h-63v87h63v132h100v-132h80v-87h-80v-267q0 -53 37 -53
q26 0 38 16l24 -75q-29 -29 -87 -29z" />
    <glyph glyph-name="Tcaron" unicode="&#x164;" horiz-adv-x="462" 
d="M278 723h-91l-82 144h60l67 -97l64 97h60zM286 0h-110v570h-153v97h416v-97h-153v-570z" />
    <glyph glyph-name="tcaron" unicode="&#x165;" horiz-adv-x="299" 
d="M341 680q0 -42 -21.5 -79.5t-55.5 -62.5l-38 30q22 14 39.5 37.5t21.5 45.5q-1 0 -6 -0.5t-7 -0.5q-20 0 -33.5 13.5t-13.5 35.5q0 23 15.5 38.5t37.5 15.5q25 0 43 -19.5t18 -53.5zM189 -12q-112 0 -112 120v288h-63v87h63v132h100v-132h80v-87h-80v-267q0 -53 37 -53
q26 0 38 16l24 -75q-29 -29 -87 -29z" />
    <glyph glyph-name="Tbar" unicode="&#x166;" horiz-adv-x="462" 
d="M286 0h-110v279h-107v60h107v231h-153v97h416v-97h-153v-231h103v-60h-103v-279z" />
    <glyph glyph-name="tbar" unicode="&#x167;" horiz-adv-x="283" 
d="M189 -12q-112 0 -112 120v110h-63v60h63v118h-63v87h63v132h100v-132h80v-87h-80v-118h51v-60h-51v-89q0 -53 37 -53q26 0 38 16l24 -75q-29 -29 -87 -29z" />
    <glyph glyph-name="Utilde" unicode="&#x168;" horiz-adv-x="592" 
d="M296 -12q-109 0 -170.5 62t-61.5 174v443h111v-444q0 -66 31.5 -101.5t89.5 -35.5t89.5 35.5t31.5 101.5v444h111v-443q0 -112 -61.5 -174t-170.5 -62zM348 721q-21 0 -37.5 12.5t-24.5 28t-19 28t-22 12.5q-15 0 -24.5 -19t-9.5 -56h-54q0 61 24 97.5t68 36.5
q21 0 37 -12.5t24.5 -27.5t19.5 -27.5t22 -12.5q33 0 33 74h54q0 -61 -23.5 -97.5t-67.5 -36.5z" />
    <glyph glyph-name="utilde" unicode="&#x169;" horiz-adv-x="485" 
d="M426 0h-100v64q-22 -32 -59.5 -54t-81.5 -22q-126 0 -126 130v365h100v-330q0 -77 69 -77q30 0 56.5 19t41.5 47v341h100v-483zM292 554q-21 0 -37.5 12.5t-24.5 28t-19 28t-22 12.5q-15 0 -24.5 -19t-9.5 -56h-54q0 61 24 97.5t68 36.5q21 0 37 -12.5t24.5 -27.5
t19.5 -27.5t22 -12.5q33 0 33 74h54q0 -61 -23.5 -97.5t-67.5 -36.5z" />
    <glyph glyph-name="Umacron" unicode="&#x16a;" horiz-adv-x="592" 
d="M296 -12q-109 0 -170.5 62t-61.5 174v443h111v-444q0 -66 31.5 -101.5t89.5 -35.5t89.5 35.5t31.5 101.5v444h111v-443q0 -112 -61.5 -174t-170.5 -62zM451 734h-309v60h309v-60z" />
    <glyph glyph-name="umacron" unicode="&#x16b;" horiz-adv-x="485" 
d="M426 0h-100v64q-22 -32 -59.5 -54t-81.5 -22q-126 0 -126 130v365h100v-330q0 -77 69 -77q30 0 56.5 19t41.5 47v341h100v-483zM397 567h-309v60h309v-60z" />
    <glyph glyph-name="Ubreve" unicode="&#x16c;" horiz-adv-x="592" 
d="M296 -12q-109 0 -170.5 62t-61.5 174v443h111v-444q0 -66 31.5 -101.5t89.5 -35.5t89.5 35.5t31.5 101.5v444h111v-443q0 -112 -61.5 -174t-170.5 -62zM447 783q-55 -75 -149 -75q-92 0 -149 75l47 38q37 -53 102 -53t102 53z" />
    <glyph glyph-name="ubreve" unicode="&#x16d;" horiz-adv-x="485" 
d="M426 0h-100v64q-22 -32 -59.5 -54t-81.5 -22q-126 0 -126 130v365h100v-330q0 -77 69 -77q30 0 56.5 19t41.5 47v341h100v-483zM392 616q-55 -75 -149 -75q-92 0 -149 75l47 38q37 -53 102 -53t102 53z" />
    <glyph glyph-name="Uring" unicode="&#x16e;" horiz-adv-x="592" 
d="M297 698q-38 0 -66 28t-28 67q0 38 28 66t66 28q39 0 66.5 -28t27.5 -66q0 -39 -27.5 -67t-66.5 -28zM297 745q20 0 33.5 14t13.5 34t-13.5 33.5t-33.5 13.5q-19 0 -33 -14t-14 -33t14 -33.5t33 -14.5zM296 -12q-109 0 -170.5 62t-61.5 174v443h111v-444
q0 -66 31.5 -101.5t89.5 -35.5t89.5 35.5t31.5 101.5v444h111v-443q0 -112 -61.5 -174t-170.5 -62z" />
    <glyph glyph-name="uring" unicode="&#x16f;" horiz-adv-x="485" 
d="M243 538q-38 0 -66 28t-28 67q0 38 28 66t66 28q39 0 66.5 -28t27.5 -66q0 -39 -27.5 -67t-66.5 -28zM243 585q20 0 33.5 14t13.5 34t-13.5 33.5t-33.5 13.5q-19 0 -33 -14t-14 -33t14 -33.5t33 -14.5zM426 0h-100v64q-22 -32 -59.5 -54t-81.5 -22q-126 0 -126 130v365
h100v-330q0 -77 69 -77q30 0 56.5 19t41.5 47v341h100v-483z" />
    <glyph glyph-name="Uhungarumlaut" unicode="&#x170;" horiz-adv-x="592" 
d="M296 -12q-109 0 -170.5 62t-61.5 174v443h111v-444q0 -66 31.5 -101.5t89.5 -35.5t89.5 35.5t31.5 101.5v444h111v-443q0 -112 -61.5 -174t-170.5 -62zM344 867l-97 -144h-57l73 144h81zM478 867l-97 -144h-56l72 144h81z" />
    <glyph glyph-name="uhungarumlaut" unicode="&#x171;" horiz-adv-x="485" 
d="M426 0h-100v64q-22 -32 -59.5 -54t-81.5 -22q-126 0 -126 130v365h100v-330q0 -77 69 -77q30 0 56.5 19t41.5 47v341h100v-483zM290 700l-97 -144h-57l73 144h81zM424 700l-97 -144h-56l72 144h81z" />
    <glyph glyph-name="Uogonek" unicode="&#x172;" horiz-adv-x="592" 
d="M296 -12q-109 0 -170.5 62t-61.5 174v443h111v-444q0 -66 31.5 -101.5t89.5 -35.5t89.5 35.5t31.5 101.5v444h111v-443q0 -88 -38 -145.5t-108 -78.5q-67 -40 -67 -99q0 -42 33 -42q28 0 38 35l44 -25q-25 -55 -82 -55q-38 0 -62 21t-24 63q0 49 36 90h-2z" />
    <glyph glyph-name="uogonek" unicode="&#x173;" horiz-adv-x="485" 
d="M426 0q-67 -40 -67 -99q0 -42 33 -42q28 0 38 35l44 -25q-25 -55 -82 -55q-38 0 -62 21t-24 63q0 56 48 102h-28v64q-22 -32 -59.5 -54t-81.5 -22q-126 0 -126 130v365h100v-330q0 -77 69 -77q30 0 56.5 19t41.5 47v341h100v-483z" />
    <glyph glyph-name="Wcircumflex" unicode="&#x174;" horiz-adv-x="745" 
d="M498 723h-60l-67 97l-64 -97h-60l79 144h91zM584 0h-116l-96 479l-95 -479h-116l-151 667h119l96 -498l103 498h89l104 -498l95 498h119z" />
    <glyph glyph-name="wcircumflex" unicode="&#x175;" horiz-adv-x="667" 
d="M460 556h-60l-67 97l-64 -97h-60l79 144h91zM531 0h-104l-93 355l-94 -355h-104l-129 483h103l84 -352l92 352h92l94 -352l85 352h103z" />
    <glyph glyph-name="Ycircumflex" unicode="&#x176;" horiz-adv-x="521" 
d="M387 723h-60l-67 97l-64 -97h-60l79 144h91zM316 0h-110v278l-207 389h123l139 -285l139 285h122l-206 -389v-278z" />
    <glyph glyph-name="ycircumflex" unicode="&#x177;" horiz-adv-x="430" 
d="M42 -189l15 88q13 -7 32 -7q40 0 55 40l20 58l-162 493h106l107 -363l108 363h106l-191 -574q-19 -58 -53.5 -81.5t-88.5 -23.5q-31 0 -54 7zM343 556h-60l-67 97l-64 -97h-60l79 144h91z" />
    <glyph glyph-name="Ydieresis" unicode="&#x178;" horiz-adv-x="521" 
d="M410 774q0 -23 -17 -39.5t-40 -16.5t-39.5 16.5t-16.5 39.5t16.5 39.5t39.5 16.5t40 -16.5t17 -39.5zM228 774q0 -23 -16.5 -39.5t-39.5 -16.5t-40 16.5t-17 39.5t17 39.5t40 16.5t39.5 -16.5t16.5 -39.5zM316 0h-110v278l-207 389h123l139 -285l139 285h122l-206 -389
v-278z" />
    <glyph glyph-name="Zacute" unicode="&#x179;" horiz-adv-x="475" 
d="M388 867l-134 -144h-68l110 144h92zM437 0h-399v92l258 478h-258v97h392v-90l-259 -479h266v-98z" />
    <glyph glyph-name="zacute" unicode="&#x17a;" horiz-adv-x="399" 
d="M350 700l-134 -144h-68l110 144h92zM360 0h-322v76l193 320h-193v87h318v-73l-193 -323h197v-87z" />
    <glyph glyph-name="Zdotaccent" unicode="&#x17b;" horiz-adv-x="475" 
d="M437 0h-399v92l258 478h-258v97h392v-90l-259 -479h266v-98zM235 717q-23 0 -40 16.5t-17 39.5t17 40t40 17t39.5 -17t16.5 -40t-16.5 -39.5t-39.5 -16.5z" />
    <glyph glyph-name="zdotaccent" unicode="&#x17c;" horiz-adv-x="399" 
d="M360 0h-322v76l193 320h-193v87h318v-73l-193 -323h197v-87zM198 550q-23 0 -40 16.5t-17 39.5t17 40t40 17t39.5 -17t16.5 -40t-16.5 -39.5t-39.5 -16.5z" />
    <glyph glyph-name="Zcaron" unicode="&#x17d;" horiz-adv-x="475" 
d="M283 723h-91l-82 144h60l67 -97l64 97h60zM437 0h-399v92l258 478h-258v97h392v-90l-259 -479h266v-98z" />
    <glyph glyph-name="zcaron" unicode="&#x17e;" horiz-adv-x="399" 
d="M244 556h-91l-82 144h60l67 -97l64 97h60zM360 0h-322v76l193 320h-193v87h318v-73l-193 -323h197v-87z" />
    <glyph glyph-name="longs" unicode="&#x17f;" horiz-adv-x="274" 
d="M179 0h-100v396h-63v87h63v45q0 70 36.5 109.5t99.5 39.5q62 0 97 -34l-34 -73q-19 19 -45 19q-54 0 -54 -61v-528z" />
    <glyph glyph-name="florin" unicode="&#x192;" horiz-adv-x="414" 
d="M129 -161h-113l90 408h-52v88h72l45 204q13 62 59 100t106 38t91 -32l-40 -83q-13 18 -39 18q-25 0 -43.5 -17.5t-25.5 -48.5l-40 -179h104v-88h-124z" />
    <glyph glyph-name="Ohorn" unicode="&#x1a0;" horiz-adv-x="612" 
d="M306 -12q-124 0 -195.5 97t-71.5 248t71.5 248t195.5 97q127 0 201 -105q35 32 40 67q-2 -2 -12 -2q-19 0 -31 13t-12 33t14 34.5t35 14.5q23 0 39 -18.5t16 -49.5q0 -77 -67 -129q44 -90 44 -203q0 -151 -71.5 -248t-195.5 -97zM306 87q72 0 113 69.5t41 176.5
q0 108 -41 177.5t-113 69.5q-73 0 -113.5 -69t-40.5 -178q0 -108 40.5 -177t113.5 -69z" />
    <glyph glyph-name="ohorn" unicode="&#x1a1;" horiz-adv-x="488" 
d="M466 531q0 -70 -59 -122q46 -69 46 -167q0 -108 -55.5 -181t-153.5 -73t-153.5 73t-55.5 181t55 180.5t154 72.5q80 0 135 -53q34 32 38 64q-2 -2 -12 -2q-19 0 -31 13t-12 33t14 34.5t35 14.5q23 0 39 -18.5t16 -49.5zM244 76q52 0 79 48t27 118t-27 117.5t-79 47.5
t-79 -47.5t-27 -117.5t27 -118t79 -48z" />
    <glyph glyph-name="Uhorn" unicode="&#x1af;" horiz-adv-x="592" 
d="M631 728q0 -45 -27 -85.5t-76 -65.5v-353q0 -112 -61.5 -174t-170.5 -62t-170.5 62t-61.5 174v443h111v-444q0 -66 31.5 -101.5t89.5 -35.5t89.5 35.5t31.5 101.5v444h111v-43q47 33 54 79q-4 -2 -12 -2q-19 0 -31 13t-12 33t14 34t34 14q24 0 40 -18t16 -49z" />
    <glyph glyph-name="uhorn" unicode="&#x1b0;" horiz-adv-x="485" 
d="M426 0h-100v64q-22 -32 -59.5 -54t-81.5 -22q-126 0 -126 130v365h100v-330q0 -77 69 -77q30 0 56.5 19t41.5 47v341h100v-24q26 30 29 56l-5 -1h-7q-19 0 -31.5 12.5t-12.5 32.5t14.5 34.5t34.5 14.5q24 0 40 -18t16 -49q0 -82 -78 -136v-405z" />
    <glyph glyph-name="AEacute" unicode="&#x1fc;" horiz-adv-x="772" 
d="M573 867l-134 -144h-68l110 144h92zM730 0h-365v132h-183l-59 -132h-119l315 667h411v-97h-254v-181h247v-98h-247v-193h254v-98zM365 230v319l-142 -319h142z" />
    <glyph glyph-name="aeacute" unicode="&#x1fd;" horiz-adv-x="745" 
d="M510 700l-134 -144h-68l110 144h92zM713 209h-293q4 -62 34.5 -100t84.5 -38q62 0 103 52l48 -61q-65 -74 -159 -74q-106 0 -159 88q-25 -39 -69 -63.5t-100 -24.5q-75 0 -122 42t-47 117q0 74 43 116.5t110 42.5q89 0 136 -57v69q0 43 -26.5 67.5t-73.5 24.5
q-70 0 -128 -55l-39 70q70 70 176 70q55 0 92.5 -23t51.5 -62q52 85 148 85q89 0 139 -72t50 -186v-28zM420 280h197q-1 53 -25 93.5t-73 40.5q-48 0 -72.5 -41t-26.5 -93zM323 167v16q-36 54 -99 54q-40 0 -65 -22.5t-25 -61.5q0 -40 24.5 -62t65.5 -22q40 0 69.5 30
t29.5 68z" />
    <glyph glyph-name="Oslashacute" unicode="&#x1fe;" horiz-adv-x="612" 
d="M457 867l-134 -144h-68l110 144h92zM306 -12q-81 0 -142 44l-19 -32h-76l46 79q-76 96 -76 254q0 151 71.5 248t195.5 97q77 0 138 -42l18 31h75l-44 -76q80 -95 80 -258q0 -151 -71.5 -248t-195.5 -97zM306 87q72 0 113 69.5t41 176.5q0 90 -29 154l-213 -364
q36 -36 88 -36zM152 333q0 -85 26 -148l213 361q-36 34 -85 34q-73 0 -113.5 -69t-40.5 -178z" />
    <glyph glyph-name="oslashacute" unicode="&#x1ff;" horiz-adv-x="488" 
d="M395 700l-134 -144h-68l110 144h92zM106 0h-61l43 63q-53 70 -53 179q0 108 55 180.5t154 72.5q66 0 117 -37l17 25h62l-42 -61q55 -70 55 -180q0 -108 -55.5 -181t-153.5 -73q-70 0 -120 39zM244 76q52 0 79 48t27 118q0 51 -15 90l-157 -227q27 -29 66 -29zM138 242
q0 -50 13 -88l156 226q-25 27 -63 27q-52 0 -79 -47.5t-27 -117.5z" />
    <glyph glyph-name="Scommaaccent" unicode="&#x218;" horiz-adv-x="486" 
d="M302 -138q0 -42 -21.5 -79.5t-55.5 -62.5l-38 30q22 14 39.5 37.5t21.5 45.5q-1 0 -6 -0.5t-7 -0.5q-20 0 -33.5 13.5t-13.5 35.5q0 23 15.5 38.5t37.5 15.5q25 0 43 -19.5t18 -53.5zM237 -12q-135 0 -215 85l56 86q63 -72 159 -72q49 0 76.5 25.5t27.5 62.5t-31 63
t-74.5 44.5t-87.5 40.5t-75 65t-31 104q0 80 57 133t150 53q117 0 192 -72l-54 -84q-57 57 -141 57q-41 0 -66 -22t-25 -59q0 -32 31 -56t74.5 -42.5t87.5 -41.5t75 -67.5t31 -106.5q0 -86 -57 -141t-160 -55z" />
    <glyph glyph-name="scommaaccent" unicode="&#x219;" horiz-adv-x="402" 
d="M266 -138q0 -42 -21.5 -79.5t-55.5 -62.5l-38 30q22 14 39.5 37.5t21.5 45.5q-1 0 -6 -0.5t-7 -0.5q-20 0 -33.5 13.5t-13.5 35.5q0 23 15.5 38.5t37.5 15.5q25 0 43 -19.5t18 -53.5zM198 -12q-113 0 -177 69l45 70q23 -25 58.5 -42.5t71.5 -17.5q37 0 58.5 17t21.5 46
q0 25 -24.5 42t-60 29t-70.5 27.5t-59.5 48t-24.5 80.5q0 59 44.5 98.5t121.5 39.5q95 0 159 -62l-42 -68q-42 51 -115 51q-33 0 -53.5 -16t-20.5 -40q0 -20 18 -34.5t44.5 -22.5t57.5 -21.5t57.5 -29.5t44.5 -47t18 -73q0 -63 -47.5 -103.5t-125.5 -40.5z" />
    <glyph glyph-name="uni021A" unicode="&#x21a;" horiz-adv-x="462" 
d="M294 -138q0 -42 -21.5 -79.5t-55.5 -62.5l-38 30q22 14 39.5 37.5t21.5 45.5q-1 0 -6 -0.5t-7 -0.5q-20 0 -33.5 13.5t-13.5 35.5q0 23 15.5 38.5t37.5 15.5q25 0 43 -19.5t18 -53.5zM286 0h-110v570h-153v97h416v-97h-153v-570z" />
    <glyph glyph-name="uni021B" unicode="&#x21b;" horiz-adv-x="283" 
d="M205 -138q0 -42 -21.5 -79.5t-55.5 -62.5l-38 30q22 14 39.5 37.5t21.5 45.5q-1 0 -6 -0.5t-7 -0.5q-20 0 -33.5 13.5t-13.5 35.5q0 23 15.5 38.5t37.5 15.5q25 0 43 -19.5t18 -53.5zM189 -12q-112 0 -112 120v288h-63v87h63v132h100v-132h80v-87h-80v-267q0 -53 37 -53
q26 0 38 16l24 -75q-29 -29 -87 -29z" />
    <glyph glyph-name="uni0237" unicode="&#x237;" horiz-adv-x="218" 
d="M19 -196q-53 0 -87 31l28 75q20 -22 47 -22q52 0 52 71v524h100v-524q0 -155 -140 -155z" />
    <glyph glyph-name="hsuperior" unicode="&#x2b0;" horiz-adv-x="353" 
d="M306 326h-74v209q0 51 -47 51q-39 0 -64 -41v-219h-73v434h73v-161q14 20 40 34.5t56 14.5q89 0 89 -90v-232z" />
    <glyph glyph-name="uni02BC" unicode="&#x2bc;" horiz-adv-x="243" 
d="M194 589q0 -50 -25 -94t-67 -73l-45 37q25 15 45.5 42t25.5 52q-9 -3 -16 -3q-25 0 -41.5 17.5t-16.5 43.5q0 27 19 46.5t46 19.5q31 0 53 -24t22 -64z" />
    <glyph glyph-name="circumflex" unicode="&#x2c6;" horiz-adv-x="251" 
d="M251 556h-60l-67 97l-64 -97h-60l79 144h91z" />
    <glyph glyph-name="caron" unicode="&#x2c7;" horiz-adv-x="251" 
d="M173 556h-91l-82 144h60l67 -97l64 97h60z" />
    <glyph glyph-name="uni02C9" unicode="&#x2c9;" horiz-adv-x="309" 
d="M309 591h-309v60h309v-60z" />
    <glyph glyph-name="uni02CB" unicode="&#x2cb;" horiz-adv-x="202" 
d="M202 556h-68l-134 144h93z" />
    <glyph glyph-name="breve" unicode="&#x2d8;" horiz-adv-x="298" 
d="M298 616q-55 -75 -149 -75q-92 0 -149 75l47 38q37 -53 102 -53t102 53z" />
    <glyph glyph-name="dotaccent" unicode="&#x2d9;" horiz-adv-x="141" 
d="M71 550q-23 0 -40 16.5t-17 39.5t17 40t40 17t39.5 -17t16.5 -40t-16.5 -39.5t-39.5 -16.5z" />
    <glyph glyph-name="ring" unicode="&#x2da;" horiz-adv-x="188" 
d="M94 538q-38 0 -66 28t-28 67q0 38 28 66t66 28q39 0 66.5 -28t27.5 -66q0 -39 -27.5 -67t-66.5 -28zM94 585q20 0 33.5 14t13.5 34t-13.5 33.5t-33.5 13.5q-19 0 -33 -14t-14 -33t14 -33.5t33 -14.5z" />
    <glyph glyph-name="ogonek" unicode="&#x2db;" horiz-adv-x="168" 
d="M124 -106l44 -25q-25 -55 -82 -55q-38 0 -62 21t-24 63q0 75 81 128l39 -26q-67 -40 -67 -99q0 -42 33 -42q28 0 38 35z" />
    <glyph glyph-name="tilde" unicode="&#x2dc;" horiz-adv-x="282" 
d="M191 554q-21 0 -37.5 12.5t-24.5 28t-19 28t-22 12.5q-15 0 -24.5 -19t-9.5 -56h-54q0 61 24 97.5t68 36.5q21 0 37 -12.5t24.5 -27.5t19.5 -27.5t22 -12.5q33 0 33 74h54q0 -61 -23.5 -97.5t-67.5 -36.5z" />
    <glyph glyph-name="hungarumlaut" unicode="&#x2dd;" horiz-adv-x="288" 
d="M154 700l-97 -144h-57l73 144h81zM288 700l-97 -144h-56l72 144h81z" />
    <glyph glyph-name="hookabovecomb" unicode="&#x309;" horiz-adv-x="168" 
d="M53 727l-39 10q15 53 70 53q30 0 48.5 -16.5t18.5 -50.5q0 -28 -18 -56h-44q21 25 21 54q0 32 -27 32q-22 0 -30 -26z" />
    <glyph glyph-name="uni037E" unicode="&#x37e;" horiz-adv-x="242" 
d="M121 356q-27 0 -47 20.5t-20 46.5q0 28 20 47.5t47 19.5q28 0 47.5 -19.5t19.5 -47.5q0 -27 -20 -47t-47 -20zM194 38q0 -50 -25 -94t-67 -73l-45 37q24 14 45 41.5t26 52.5q-9 -3 -16 -3q-25 0 -41.5 17.5t-16.5 44.5t19 46.5t46 19.5q31 0 53 -24t22 -65z" />
    <glyph glyph-name="tonos" unicode="&#x384;" horiz-adv-x="211" 
d="M151 560h-46l19 205h90z" />
    <glyph glyph-name="dieresistonos" unicode="&#x385;" horiz-adv-x="485" 
d="M252 560h-47l20 205h90zM434 607q0 -23 -16.5 -39.5t-40.5 -16.5q-23 0 -39.5 16.5t-16.5 39.5t16.5 39.5t39.5 16.5q24 0 40.5 -16.5t16.5 -39.5zM163 607q0 -23 -16.5 -39.5t-39.5 -16.5t-39.5 16.5t-16.5 39.5t16.5 39.5t39.5 16.5t39.5 -16.5t16.5 -39.5z" />
    <glyph glyph-name="Alphatonos" unicode="&#x386;" horiz-adv-x="536" 
d="M121 560h-46l19 205h90zM533 0h-120l-36 132h-219l-36 -132h-120l199 667h133zM355 230l-87 319l-87 -319h174z" />
    <glyph glyph-name="Epsilontonos" unicode="&#x388;" horiz-adv-x="506" 
d="M35 560h-46l19 205h90zM463 0h-365v667h365v-97h-254v-181h247v-98h-247v-193h254v-98z" />
    <glyph glyph-name="Etatonos" unicode="&#x389;" horiz-adv-x="627" 
d="M35 560h-46l19 205h90zM564 0h-111v294h-244v-294h-111v667h111v-275h244v275h111v-667z" />
    <glyph glyph-name="Iotatonos" unicode="&#x38a;" horiz-adv-x="272" 
d="M35 560h-46l19 205h90zM209 0h-111v667h111v-667z" />
    <glyph glyph-name="Omicrontonos" unicode="&#x38c;" horiz-adv-x="621" 
d="M55 560h-46l19 205h90zM315 -12q-124 0 -195.5 97t-71.5 248t71.5 248t195.5 97t195.5 -97t71.5 -248t-71.5 -248t-195.5 -97zM315 87q72 0 113 69.5t41 176.5q0 108 -41 177.5t-113 69.5q-73 0 -113.5 -69t-40.5 -178q0 -108 40.5 -177t113.5 -69z" />
    <glyph glyph-name="Upsilontonos" unicode="&#x38e;" horiz-adv-x="598" 
d="M32 560h-46l19 205h90zM393 0h-110v278l-207 389h123l139 -285l139 285h122l-206 -389v-278z" />
    <glyph glyph-name="Omegatonos" unicode="&#x38f;" horiz-adv-x="621" 
d="M55 560h-46l19 205h90zM65 98h100q-114 89 -114 258q0 146 72 234t195 88q124 0 196 -88t72 -234q0 -169 -115 -258h101v-98h-205v98q44 20 74.5 83.5t30.5 152.5q0 111 -39 178t-115 67q-75 0 -114.5 -67.5t-39.5 -177.5q0 -89 30.5 -152.5t75.5 -83.5v-98h-205v98z" />
    <glyph glyph-name="iotadieresistonos" unicode="&#x390;" horiz-adv-x="230" 
d="M125 560h-47l20 205h90zM307 607q0 -23 -16.5 -39.5t-40.5 -16.5q-23 0 -39.5 16.5t-16.5 39.5t16.5 39.5t39.5 16.5q24 0 40.5 -16.5t16.5 -39.5zM36 607q0 -23 -16.5 -39.5t-39.5 -16.5t-39.5 16.5t-16.5 39.5t16.5 39.5t39.5 16.5t39.5 -16.5t16.5 -39.5zM171 -12
q-112 0 -112 120v375h100v-360q0 -47 35 -47q7 0 17 2l7 -84q-16 -6 -47 -6z" />
    <glyph glyph-name="Alpha" unicode="&#x391;" horiz-adv-x="536" 
d="M533 0h-120l-36 132h-219l-36 -132h-120l199 667h133zM355 230l-87 319l-87 -319h174z" />
    <glyph glyph-name="Beta" unicode="&#x392;" horiz-adv-x="540" 
d="M324 0h-260v667h252q82 0 127 -48t45 -122q0 -61 -29.5 -100.5t-75.5 -52.5q49 -7 82.5 -54.5t33.5 -109.5q0 -81 -45 -130.5t-130 -49.5zM292 389q41 0 61.5 24.5t20.5 65.5t-21 66t-61 25h-117v-181h117zM296 98q44 0 66.5 25.5t22.5 71.5q0 42 -23 69t-66 27h-121
v-193h121z" />
    <glyph glyph-name="Gamma" unicode="&#x393;" horiz-adv-x="464" 
d="M175 0h-111v667h365v-97h-254v-570z" />
    <glyph glyph-name="uni0394" unicode="&#x394;" horiz-adv-x="547" 
d="M545 0h-543l205 667h133zM402 98l-129 451l-127 -451h256z" />
    <glyph glyph-name="Epsilon" unicode="&#x395;" horiz-adv-x="472" 
d="M429 0h-365v667h365v-97h-254v-181h247v-98h-247v-193h254v-98z" />
    <glyph glyph-name="Zeta" unicode="&#x396;" horiz-adv-x="475" 
d="M437 0h-399v92l258 478h-258v97h392v-90l-259 -479h266v-98z" />
    <glyph glyph-name="Eta" unicode="&#x397;" horiz-adv-x="593" 
d="M530 0h-111v294h-244v-294h-111v667h111v-275h244v275h111v-667z" />
    <glyph glyph-name="Theta" unicode="&#x398;" horiz-adv-x="612" 
d="M421 291h-230v98h230v-98zM306 -12q-124 0 -195.5 97t-71.5 248t71.5 248t195.5 97t195.5 -97t71.5 -248t-71.5 -248t-195.5 -97zM306 87q72 0 113 69.5t41 176.5q0 108 -41 177.5t-113 69.5q-73 0 -113.5 -69t-40.5 -178q0 -108 40.5 -177t113.5 -69z" />
    <glyph glyph-name="Iota" unicode="&#x399;" horiz-adv-x="239" 
d="M175 0h-111v667h111v-667z" />
    <glyph glyph-name="Kappa" unicode="&#x39a;" horiz-adv-x="535" 
d="M528 0h-131l-172 275l-50 -76v-199h-111v667h111v-321l207 321h130l-218 -315z" />
    <glyph glyph-name="Lambda" unicode="&#x39b;" horiz-adv-x="536" 
d="M533 0h-120l-145 549l-146 -549h-120l199 667h133z" />
    <glyph glyph-name="Mu" unicode="&#x39c;" horiz-adv-x="713" 
d="M650 0h-110v460l-162 -460h-43l-160 460v-460h-111v667h150l143 -406l144 406h149v-667z" />
    <glyph glyph-name="Nu" unicode="&#x39d;" horiz-adv-x="592" 
d="M528 0h-106l-247 431v-431h-111v667h112l241 -419v419h111v-667z" />
    <glyph glyph-name="Xi" unicode="&#x39e;" horiz-adv-x="504" 
d="M460 570h-416v97h416v-97zM460 0h-416v98h416v-98zM453 291h-402v98h402v-98z" />
    <glyph glyph-name="Omicron" unicode="&#x39f;" horiz-adv-x="612" 
d="M306 -12q-124 0 -195.5 97t-71.5 248t71.5 248t195.5 97t195.5 -97t71.5 -248t-71.5 -248t-195.5 -97zM306 87q72 0 113 69.5t41 176.5q0 108 -41 177.5t-113 69.5q-73 0 -113.5 -69t-40.5 -178q0 -108 40.5 -177t113.5 -69z" />
    <glyph glyph-name="Pi" unicode="&#x3a0;" horiz-adv-x="593" 
d="M530 0h-111v570h-244v-570h-111v667h466v-667z" />
    <glyph glyph-name="Rho" unicode="&#x3a1;" horiz-adv-x="513" 
d="M175 0h-111v667h227q94 0 145.5 -59.5t51.5 -147.5q0 -89 -51.5 -148.5t-145.5 -59.5h-116v-252zM278 350q44 0 70.5 30t26.5 80t-26.5 80t-70.5 30h-103v-220h103z" />
    <glyph glyph-name="Sigma" unicode="&#x3a3;" horiz-adv-x="464" 
d="M171 570l162 -227l-166 -245h257v-98h-380v100l164 243l-164 227v97h380v-97h-253z" />
    <glyph glyph-name="Tau" unicode="&#x3a4;" horiz-adv-x="462" 
d="M286 0h-110v570h-153v97h416v-97h-153v-570z" />
    <glyph glyph-name="Upsilon" unicode="&#x3a5;" horiz-adv-x="521" 
d="M316 0h-110v278l-207 389h123l139 -285l139 285h122l-206 -389v-278z" />
    <glyph glyph-name="Phi" unicode="&#x3a6;" horiz-adv-x="730" 
d="M420 0h-111v67q-131 13 -200.5 84.5t-69.5 181.5q0 109 70 181t200 85v68h111v-68q131 -13 201 -84.5t70 -181.5t-70 -182t-201 -84v-67zM577 333q0 66 -39.5 110.5t-117.5 56.5v-333q78 12 117.5 56t39.5 110zM152 333q0 -66 39.5 -110t117.5 -56v333
q-78 -12 -117.5 -56.5t-39.5 -110.5z" />
    <glyph glyph-name="Chi" unicode="&#x3a7;" horiz-adv-x="535" 
d="M533 0h-128l-138 254l-137 -254h-128l197 341l-185 326h127l126 -240l126 240h128l-185 -325z" />
    <glyph glyph-name="Psi" unicode="&#x3a8;" horiz-adv-x="739" 
d="M425 0h-110v126q-118 12 -184.5 76.5t-66.5 172.5v292h112v-290q0 -131 139 -151v441h110v-441q138 20 138 151v290h112v-291q0 -109 -66 -173.5t-184 -76.5v-126z" />
    <glyph glyph-name="uni03A9" unicode="&#x3a9;" horiz-adv-x="606" 
d="M50 98h100q-114 89 -114 258q0 146 72 234t195 88q124 0 196 -88t72 -234q0 -169 -115 -258h101v-98h-205v98q44 20 74.5 83.5t30.5 152.5q0 111 -39 178t-115 67q-75 0 -114.5 -67.5t-39.5 -177.5q0 -89 30.5 -152.5t75.5 -83.5v-98h-205v98z" />
    <glyph glyph-name="Iotadieresis" unicode="&#x3aa;" horiz-adv-x="239" 
d="M175 0h-111v667h111v-667zM267 791q0 -23 -17 -39.5t-40 -16.5t-39.5 16.5t-16.5 39.5t16.5 39.5t39.5 16.5t40 -16.5t17 -39.5zM85 791q0 -23 -16.5 -39.5t-39.5 -16.5t-40 16.5t-17 39.5t17 39.5t40 16.5t39.5 -16.5t16.5 -39.5z" />
    <glyph glyph-name="Upsilondieresis" unicode="&#x3ab;" horiz-adv-x="521" 
d="M316 0h-110v278l-207 389h123l139 -285l139 285h122l-206 -389v-278zM408 791q0 -23 -17 -39.5t-40 -16.5t-39.5 16.5t-16.5 39.5t16.5 39.5t39.5 16.5t40 -16.5t17 -39.5zM226 791q0 -23 -16.5 -39.5t-39.5 -16.5t-40 16.5t-17 39.5t17 39.5t40 16.5t39.5 -16.5
t16.5 -39.5z" />
    <glyph glyph-name="alphatonos" unicode="&#x3ac;" horiz-adv-x="506" 
d="M267 560h-46l19 205h90zM487 78l7 -84q-16 -6 -47 -6q-91 0 -107 84q-20 -38 -54.5 -61t-74.5 -23q-81 0 -128.5 68.5t-47.5 184.5t47.5 185t128.5 69t124 -77v65h100v-360q0 -47 35 -47q7 0 17 2zM241 76q28 0 54.5 19t39.5 47v198q-13 28 -39.5 47t-54.5 19
q-50 0 -76.5 -45.5t-26.5 -119.5q0 -72 26.5 -118.5t76.5 -46.5z" />
    <glyph glyph-name="epsilontonos" unicode="&#x3ad;" horiz-adv-x="437" 
d="M232 560h-46l19 205h90zM229 -12q-89 0 -141.5 40t-52.5 103q0 49 35.5 80t82.5 36q-46 9 -78 41.5t-32 75.5q0 61 53.5 96t144.5 35q106 0 172 -77l-50 -60q-46 56 -124 56q-43 0 -69.5 -17t-26.5 -46q0 -32 25.5 -49.5t69.5 -17.5h89v-80h-90q-102 0 -102 -65
q0 -32 25.5 -51t70.5 -19q88 0 140 58l49 -61q-68 -78 -191 -78z" />
    <glyph glyph-name="etatonos" unicode="&#x3ae;" horiz-adv-x="485" 
d="M256 560h-46l19 205h90zM426 -184h-100v513q0 78 -69 78q-30 0 -56.5 -19.5t-41.5 -47.5v-340h-100v483h100v-65q21 32 59.5 54.5t80.5 22.5q127 0 127 -131v-548z" />
    <glyph glyph-name="iotatonos" unicode="&#x3af;" horiz-adv-x="230" 
d="M129 560h-46l19 205h90zM171 -12q-112 0 -112 120v375h100v-360q0 -47 35 -47q7 0 17 2l7 -84q-16 -6 -47 -6z" />
    <glyph glyph-name="upsilondieresistonos" unicode="&#x3b0;" horiz-adv-x="486" 
d="M253 560h-47l20 205h90zM435 607q0 -23 -16.5 -39.5t-40.5 -16.5q-23 0 -39.5 16.5t-16.5 39.5t16.5 39.5t39.5 16.5q24 0 40.5 -16.5t16.5 -39.5zM164 607q0 -23 -16.5 -39.5t-39.5 -16.5t-39.5 16.5t-16.5 39.5t16.5 39.5t39.5 16.5t39.5 -16.5t16.5 -39.5zM242 -12
q-87 0 -135 53.5t-48 146.5v295h100v-294q0 -54 21 -83.5t62 -29.5q53 0 79.5 49.5t26.5 128.5q0 113 -56 203l91 38q69 -110 69 -241q0 -116 -55 -191t-155 -75z" />
    <glyph glyph-name="alpha" unicode="&#x3b1;" horiz-adv-x="506" 
d="M487 78l7 -84q-16 -6 -47 -6q-91 0 -107 84q-20 -38 -54.5 -61t-74.5 -23q-81 0 -128.5 68.5t-47.5 184.5t47.5 185t128.5 69t124 -77v65h100v-360q0 -47 35 -47q7 0 17 2zM241 76q28 0 54.5 19t39.5 47v198q-13 28 -39.5 47t-54.5 19q-50 0 -76.5 -45.5t-26.5 -119.5
q0 -72 26.5 -118.5t76.5 -46.5z" />
    <glyph glyph-name="beta" unicode="&#x3b2;" horiz-adv-x="494" 
d="M159 455v-313q14 -28 41 -47t58 -19q47 0 72 31t25 79q0 54 -28 82t-73 28h-28v88h24q42 0 67 26.5t25 75.5q0 48 -23 75t-60 27q-45 0 -72.5 -32.5t-27.5 -100.5zM159 64v-248h-100v639q0 114 58 168t143 54t135 -46.5t50 -132.5q0 -58 -31.5 -100t-81.5 -53
q51 -9 89 -55.5t38 -120.5q0 -77 -48 -129t-121 -52q-85 0 -131 76z" />
    <glyph glyph-name="gamma" unicode="&#x3b3;" horiz-adv-x="430" 
d="M265 -184h-100v125q0 154 -47.5 296.5t-126.5 245.5h112q50 -75 84.5 -169t41.5 -184q35 67 58 165t23 188h99q0 -117 -40 -246t-104 -230v-191z" />
    <glyph glyph-name="delta" unicode="&#x3b4;" horiz-adv-x="488" 
d="M248 -12q-101 0 -157 66t-56 160q0 69 30.5 124t80.5 88q-65 44 -65 115q0 59 44.5 98.5t121.5 39.5q94 0 159 -62l-42 -68q-42 51 -116 51q-33 0 -53 -16t-20 -40q0 -20 20.5 -37.5t51.5 -30.5t67 -35.5t67 -49t51.5 -74t20.5 -108.5q0 -91 -53.5 -156t-151.5 -65z
M358 208q0 66 -33.5 103t-95.5 69q-42 -25 -66.5 -69t-24.5 -97q0 -56 28.5 -97t80.5 -41q53 0 82 40t29 92z" />
    <glyph glyph-name="epsilon" unicode="&#x3b5;" horiz-adv-x="437" 
d="M229 -12q-89 0 -141.5 40t-52.5 103q0 49 35.5 80t82.5 36q-46 9 -78 41.5t-32 75.5q0 61 53.5 96t144.5 35q106 0 172 -77l-50 -60q-46 56 -124 56q-43 0 -69.5 -17t-26.5 -46q0 -32 25.5 -49.5t69.5 -17.5h89v-80h-90q-102 0 -102 -65q0 -32 25.5 -51t70.5 -19
q88 0 140 58l49 -61q-68 -78 -191 -78z" />
    <glyph glyph-name="zeta" unicode="&#x3b6;" horiz-adv-x="410" 
d="M285 -42q0 16 -8 23t-28 7q-96 0 -155 59.5t-59 150.5q0 221 226 382h-215v87h329v-73q-111 -85 -174 -183.5t-63 -199.5q0 -60 34.5 -97.5t96.5 -37.5q59 0 85.5 -23t26.5 -70q0 -56 -45 -140h-98q47 75 47 115z" />
    <glyph glyph-name="eta" unicode="&#x3b7;" horiz-adv-x="485" 
d="M426 -184h-100v513q0 78 -69 78q-30 0 -56.5 -19.5t-41.5 -47.5v-340h-100v483h100v-65q21 32 59.5 54.5t80.5 22.5q127 0 127 -131v-548z" />
    <glyph glyph-name="theta" unicode="&#x3b8;" horiz-adv-x="488" 
d="M244 -12q-103 0 -156 96t-53 250q0 155 53 250t156 95t156 -95t53 -250q0 -154 -53 -250t-156 -96zM244 76q52 0 76.5 54.5t28.5 161.5h-210q6 -216 105 -216zM244 591q-52 0 -76.5 -53.5t-28.5 -158.5h210q-8 212 -105 212z" />
    <glyph glyph-name="iota" unicode="&#x3b9;" horiz-adv-x="230" 
d="M171 -12q-112 0 -112 120v375h100v-360q0 -47 35 -47q7 0 17 2l7 -84q-16 -6 -47 -6z" />
    <glyph glyph-name="kappa" unicode="&#x3ba;" horiz-adv-x="456" 
d="M448 0h-117l-114 202l-58 -78v-124h-100v483h100v-237l170 237h116l-160 -217z" />
    <glyph glyph-name="lambda" unicode="&#x3bb;" horiz-adv-x="430" 
d="M57 584l-15 88q23 7 54 7q54 -1 88.5 -24t53.5 -81l191 -574h-106l-108 363l-107 -363h-106l162 492l-20 58q-15 41 -55 41q-19 0 -32 -7z" />
    <glyph glyph-name="uni03BC" unicode="&#x3bc;" horiz-adv-x="497" 
d="M159 14v-198h-100v667h100v-330q0 -78 70 -78q30 0 55.5 19.5t41.5 47.5v341h100v-360q0 -47 35 -47q7 0 17 2l7 -84q-16 -6 -47 -6q-91 0 -108 86q-18 -38 -47.5 -62t-63.5 -24q-43 0 -60 26z" />
    <glyph glyph-name="nu" unicode="&#x3bd;" horiz-adv-x="430" 
d="M261 0h-100l-159 483h106l111 -377q43 81 67 182t24 195h99q0 -119 -41 -250t-107 -233z" />
    <glyph glyph-name="xi" unicode="&#x3be;" horiz-adv-x="410" 
d="M249 -12q-100 0 -157 50.5t-57 131.5q0 60 32.5 101t79.5 55q-44 9 -73.5 43.5t-29.5 82.5q0 39 24 74t63 54h-79v87h316v-87h-153q-31 -12 -50.5 -39.5t-19.5 -59.5q0 -46 30 -71.5t77 -25.5h110v-86h-110q-51 0 -82.5 -27.5t-31.5 -83.5q0 -47 34 -79t97 -32
q59 0 85.5 -23t26.5 -70q0 -56 -45 -140h-98q47 75 47 115q0 16 -8 23t-28 7z" />
    <glyph glyph-name="omicron" unicode="&#x3bf;" horiz-adv-x="488" 
d="M244 -12q-98 0 -153.5 73t-55.5 181t55 180.5t154 72.5t154 -72.5t55 -180.5t-55.5 -181t-153.5 -73zM244 76q52 0 79 48t27 118t-27 117.5t-79 47.5t-79 -47.5t-27 -117.5t27 -118t79 -48z" />
    <glyph glyph-name="pi" unicode="&#x3c0;" horiz-adv-x="521" 
d="M444 0h-99v396h-168v-396h-100v396h-63v87h494v-87h-64v-396z" />
    <glyph glyph-name="rho" unicode="&#x3c1;" horiz-adv-x="492" 
d="M283 -12q-81 0 -124 77v-249h-100v426q0 107 52.5 180t146.5 73q95 0 148 -72t53 -181q0 -116 -47.5 -185t-128.5 -69zM253 76q50 0 76.5 46.5t26.5 119.5q0 71 -25 118t-74 47q-48 0 -73 -47t-25 -118v-99q13 -28 39.5 -47.5t54.5 -19.5z" />
    <glyph glyph-name="sigma1" unicode="&#x3c2;" horiz-adv-x="408" 
d="M251 -12q-96 0 -156 70.5t-60 183.5q0 111 58 182t154 71q95 0 147 -65l-51 -68q-35 45 -86 45q-55 0 -87 -47t-32 -118q0 -74 35 -120t94 -46q115 0 115 -93q0 -56 -45 -140h-96q48 73 48 115q0 30 -38 30z" />
    <glyph glyph-name="sigma" unicode="&#x3c3;" horiz-adv-x="488" 
d="M447 220q0 -96 -53 -164t-150 -68t-153 72.5t-56 181.5q0 103 57.5 172t163.5 69h213v-88h-89q67 -67 67 -175zM350 234q0 112 -65 161h-29q-59 0 -88.5 -44.5t-29.5 -108.5q0 -70 27 -118t79 -48q51 0 78.5 46.5t27.5 111.5z" />
    <glyph glyph-name="tau" unicode="&#x3c4;" horiz-adv-x="383" 
d="M253 -12q-111 0 -111 120v288h-123v87h345v-87h-123v-267q0 -53 37 -53q26 0 38 16l24 -75q-29 -29 -87 -29z" />
    <glyph glyph-name="upsilon" unicode="&#x3c5;" horiz-adv-x="486" 
d="M242 -12q-87 0 -135 53.5t-48 146.5v295h100v-294q0 -54 21 -83.5t62 -29.5q53 0 79.5 49.5t26.5 128.5q0 113 -56 203l91 38q69 -110 69 -241q0 -116 -55 -191t-155 -75z" />
    <glyph glyph-name="phi" unicode="&#x3c6;" horiz-adv-x="674" 
d="M639 242q0 -103 -63.5 -171t-188.5 -80v-175h-99v175q-126 12 -189.5 81.5t-63.5 177.5q0 168 161 245l43 -77q-101 -51 -101 -168q0 -151 150 -171v416h49q150 0 226 -70t76 -183zM536 242q0 68 -38 112t-111 50v-325q77 11 113 55t36 108z" />
    <glyph glyph-name="chi" unicode="&#x3c7;" horiz-adv-x="424" 
d="M418 -184h-107l-99 244l-99 -244h-107l144 340l-136 327h107l91 -230l91 230h107l-136 -327z" />
    <glyph glyph-name="psi" unicode="&#x3c8;" horiz-adv-x="675" 
d="M387 -184h-99v175q-110 11 -169.5 71t-59.5 164v257h99v-257q0 -128 130 -147v588h99v-588q129 20 129 147v257h100v-257q0 -104 -60 -164t-169 -71v-175z" />
    <glyph glyph-name="omega" unicode="&#x3c9;" horiz-adv-x="722" 
d="M687 242q0 -108 -47 -181t-129 -73q-57 0 -95.5 35t-54.5 94q-17 -59 -55 -94t-95 -35q-82 0 -129 73t-47 181q0 80 27.5 149t76.5 104l73 -57q-74 -59 -74 -197q0 -70 22 -117.5t64 -47.5q44 0 65.5 47.5t21.5 118.5v123h100v-123q0 -71 22 -118.5t64 -47.5t64 47.5
t22 118.5q0 136 -73 196l73 57q49 -35 76.5 -104t27.5 -149z" />
    <glyph glyph-name="iotadieresis" unicode="&#x3ca;" horiz-adv-x="230" 
d="M263 607q0 -23 -17 -39.5t-40 -16.5t-39.5 16.5t-16.5 39.5t16.5 39.5t39.5 16.5t40 -16.5t17 -39.5zM81 607q0 -23 -16.5 -39.5t-39.5 -16.5t-40 16.5t-17 39.5t17 39.5t40 16.5t39.5 -16.5t16.5 -39.5zM171 -12q-112 0 -112 120v375h100v-360q0 -47 35 -47q7 0 17 2
l7 -84q-16 -6 -47 -6z" />
    <glyph glyph-name="upsilondieresis" unicode="&#x3cb;" horiz-adv-x="486" 
d="M391 607q0 -23 -17 -39.5t-40 -16.5t-39.5 16.5t-16.5 39.5t16.5 39.5t39.5 16.5t40 -16.5t17 -39.5zM209 607q0 -23 -16.5 -39.5t-39.5 -16.5t-40 16.5t-17 39.5t17 39.5t40 16.5t39.5 -16.5t16.5 -39.5zM242 -12q-87 0 -135 53.5t-48 146.5v295h100v-294
q0 -54 21 -83.5t62 -29.5q53 0 79.5 49.5t26.5 128.5q0 113 -56 203l91 38q69 -110 69 -241q0 -116 -55 -191t-155 -75z" />
    <glyph glyph-name="omicrontonos" unicode="&#x3cc;" horiz-adv-x="488" 
d="M257 560h-46l19 205h90zM244 -12q-98 0 -153.5 73t-55.5 181t55 180.5t154 72.5t154 -72.5t55 -180.5t-55.5 -181t-153.5 -73zM244 76q52 0 79 48t27 118t-27 117.5t-79 47.5t-79 -47.5t-27 -117.5t27 -118t79 -48z" />
    <glyph glyph-name="upsilontonos" unicode="&#x3cd;" horiz-adv-x="486" 
d="M257 560h-46l19 205h90zM242 -12q-87 0 -135 53.5t-48 146.5v295h100v-294q0 -54 21 -83.5t62 -29.5q53 0 79.5 49.5t26.5 128.5q0 113 -56 203l91 38q69 -110 69 -241q0 -116 -55 -191t-155 -75z" />
    <glyph glyph-name="omegatonos" unicode="&#x3ce;" horiz-adv-x="722" 
d="M375 560h-46l19 205h90zM687 242q0 -108 -47 -181t-129 -73q-57 0 -95.5 35t-54.5 94q-17 -59 -55 -94t-95 -35q-82 0 -129 73t-47 181q0 80 27.5 149t76.5 104l73 -57q-74 -59 -74 -197q0 -70 22 -117.5t64 -47.5q44 0 65.5 47.5t21.5 118.5v123h100v-123
q0 -71 22 -118.5t64 -47.5t64 47.5t22 118.5q0 136 -73 196l73 57q49 -35 76.5 -104t27.5 -149z" />
    <glyph glyph-name="afii10023" unicode="&#x401;" horiz-adv-x="472" 
d="M394 774q0 -23 -17 -39.5t-40 -16.5t-39.5 16.5t-16.5 39.5t16.5 39.5t39.5 16.5t40 -16.5t17 -39.5zM212 774q0 -23 -16.5 -39.5t-39.5 -16.5t-40 16.5t-17 39.5t17 39.5t40 16.5t39.5 -16.5t16.5 -39.5zM429 0h-365v667h365v-97h-254v-181h247v-98h-247v-193h254v-98z
" />
    <glyph glyph-name="afii10051" unicode="&#x402;" horiz-adv-x="640" 
d="M399 -12v99q46 0 73.5 26t27.5 77v15q0 52 -31 82.5t-86 30.5q-52 0 -97 -15l1 -303h-111v570h-153v97h416v-97h-153v-170q52 15 111 15q102 0 158 -60.5t56 -149.5v-15q0 -101 -60 -151.5t-152 -50.5z" />
    <glyph glyph-name="afii10052" unicode="&#x403;" horiz-adv-x="464" 
d="M389 867l-134 -144h-68l110 144h92zM175 0h-111v667h365v-97h-254v-570z" />
    <glyph glyph-name="afii10053" unicode="&#x404;" horiz-adv-x="547" 
d="M311 -12q-124 0 -198 96.5t-74 248.5q0 153 74 249t198 96q141 0 211 -147l-92 -41q-39 90 -119 90q-63 0 -104 -52t-52 -139h267v-98h-268q8 -92 50 -148t107 -56q42 0 72.5 27t47.5 71l92 -41q-68 -156 -212 -156z" />
    <glyph glyph-name="afii10054" unicode="&#x405;" horiz-adv-x="486" 
d="M237 -12q-135 0 -215 85l56 86q63 -72 159 -72q49 0 76.5 25.5t27.5 62.5t-31 63t-74.5 44.5t-87.5 40.5t-75 65t-31 104q0 80 57 133t150 53q117 0 192 -72l-54 -84q-57 57 -141 57q-41 0 -66 -22t-25 -59q0 -32 31 -56t74.5 -42.5t87.5 -41.5t75 -67.5t31 -106.5
q0 -86 -57 -141t-160 -55z" />
    <glyph glyph-name="afii10055" unicode="&#x406;" horiz-adv-x="239" 
d="M175 0h-111v667h111v-667z" />
    <glyph glyph-name="afii10056" unicode="&#x407;" horiz-adv-x="239" 
d="M175 0h-111v667h111v-667zM267 774q0 -23 -17 -39.5t-40 -16.5t-39.5 16.5t-16.5 39.5t16.5 39.5t39.5 16.5t40 -16.5t17 -39.5zM85 774q0 -23 -16.5 -39.5t-39.5 -16.5t-40 16.5t-17 39.5t17 39.5t40 16.5t39.5 -16.5t16.5 -39.5z" />
    <glyph glyph-name="afii10057" unicode="&#x408;" horiz-adv-x="409" 
d="M150 -12q-87 0 -142 55l43 87q38 -43 89 -43q45 0 70 26t25 74v480h111v-483q0 -98 -53 -147t-143 -49z" />
    <glyph glyph-name="afii10058" unicode="&#x409;" horiz-adv-x="868" 
d="M24 -12v99q32 0 50.5 14.5t33.5 65t24 149.5l31 351h367v-252h116q94 0 145.5 -59.5t51.5 -147.5q0 -89 -51.5 -148.5t-145.5 -59.5h-227v570h-155l-23 -261q-9 -101 -27.5 -167t-48.5 -98.5t-62 -44t-79 -11.5zM633 318h-103v-220h103q44 0 70.5 30t26.5 80
q0 49 -26.5 79.5t-70.5 30.5z" />
    <glyph glyph-name="afii10059" unicode="&#x40a;" horiz-adv-x="868" 
d="M64 0v667h111v-275h244v275h111v-275h123q90 0 140 -56.5t50 -139.5q0 -84 -49.5 -140t-140.5 -56h-234v294h-244v-294h-111zM530 98h110q41 0 65.5 27t24.5 71t-24.5 71t-65.5 27h-110v-196z" />
    <glyph glyph-name="afii10060" unicode="&#x40b;" horiz-adv-x="653" 
d="M494 0v192q0 126 -111 126q-52 0 -97 -15l1 -303h-111v570h-153v97h416v-97h-153v-170q52 15 111 15q103 0 155.5 -61.5t52.5 -161.5v-192h-111z" />
    <glyph glyph-name="afii10061" unicode="&#x40c;" horiz-adv-x="535" 
d="M421 867l-134 -144h-68l110 144h92zM528 0h-131l-172 275l-50 -76v-199h-111v667h111v-321l207 321h130l-218 -315z" />
    <glyph glyph-name="afii10062" unicode="&#x40e;" horiz-adv-x="521" 
d="M120 -12q-71 0 -116 38l34 91q32 -29 72 -29q28 0 46 15t34 49l11 32l-202 483h123l139 -354l139 354h122l-232 -559q-26 -62 -66 -91t-104 -29zM410 783q-55 -75 -149 -75q-92 0 -149 75l47 38q37 -53 102 -53t102 53z" />
    <glyph glyph-name="afii10145" unicode="&#x40f;" horiz-adv-x="593" 
d="M64 0v667h111v-569h244v569h111v-667h-178v-128h-110v128h-178z" />
    <glyph glyph-name="afii10017" unicode="&#x410;" horiz-adv-x="536" 
d="M533 0h-120l-36 132h-219l-36 -132h-120l199 667h133zM355 230l-87 319l-87 -319h174z" />
    <glyph glyph-name="afii10018" unicode="&#x411;" horiz-adv-x="513" 
d="M64 667h380v-97h-269v-155h116q94 0 145.5 -59.5t51.5 -147.5q0 -89 -51.5 -148.5t-145.5 -59.5h-227v667zM278 318h-103v-220h103q44 0 70.5 30t26.5 80q0 49 -26.5 79.5t-70.5 30.5z" />
    <glyph glyph-name="afii10019" unicode="&#x412;" horiz-adv-x="540" 
d="M324 0h-260v667h252q82 0 127 -48t45 -122q0 -61 -29.5 -100.5t-75.5 -52.5q49 -7 82.5 -54.5t33.5 -109.5q0 -81 -45 -130.5t-130 -49.5zM292 389q41 0 61.5 24.5t20.5 65.5t-21 66t-61 25h-117v-181h117zM296 98q44 0 66.5 25.5t22.5 71.5q0 42 -23 69t-66 27h-121
v-193h121z" />
    <glyph glyph-name="afii10020" unicode="&#x413;" horiz-adv-x="464" 
d="M175 0h-111v667h365v-97h-254v-570z" />
    <glyph glyph-name="afii10021" unicode="&#x414;" horiz-adv-x="604" 
d="M23 -123v210q34 5 51 19t33 66t25 155l31 340h367v-569h59v-221h-111v123h-345v-123h-110zM242 319q-14 -152 -75 -221h252v472h-155z" />
    <glyph glyph-name="afii10022" unicode="&#x415;" horiz-adv-x="472" 
d="M429 0h-365v667h365v-97h-254v-181h247v-98h-247v-193h254v-98z" />
    <glyph glyph-name="afii10024" unicode="&#x416;" horiz-adv-x="776" 
d="M138 0h-131l234 352l-218 315h130l180 -279v279h110v-279l180 279h130l-218 -315l234 -352h-131l-172 275l-23 -35v-240h-110v240l-23 35z" />
    <glyph glyph-name="afii10025" unicode="&#x417;" horiz-adv-x="509" 
d="M246 -12q-73 0 -132 30.5t-90 78.5l68 69q25 -36 65 -57.5t84 -21.5q57 0 86 28t29 77q0 50 -33 74.5t-91 24.5h-104v98h100q54 0 86 23.5t32 68.5q0 48 -30.5 73t-81.5 25q-82 0 -136 -72l-65 64q33 49 89.5 77.5t123.5 28.5q94 0 153.5 -46.5t59.5 -132.5
q0 -58 -37 -100t-94 -54q58 -7 99 -51t41 -111q0 -85 -61 -139.5t-161 -54.5z" />
    <glyph glyph-name="afii10026" unicode="&#x418;" horiz-adv-x="592" 
d="M170 0h-106v667h111v-434l241 434h112v-667h-110v446z" />
    <glyph glyph-name="afii10027" unicode="&#x419;" horiz-adv-x="592" 
d="M170 0h-106v667h111v-434l241 434h112v-667h-110v446zM445 783q-55 -75 -149 -75q-92 0 -149 75l47 38q37 -53 102 -53t102 53z" />
    <glyph glyph-name="afii10028" unicode="&#x41a;" horiz-adv-x="535" 
d="M528 0h-131l-172 275l-50 -76v-199h-111v667h111v-321l207 321h130l-218 -315z" />
    <glyph glyph-name="afii10029" unicode="&#x41b;" horiz-adv-x="593" 
d="M24 -12v99q32 0 50.5 14.5t33.5 65.5t24 150l31 350h367v-667h-111v570h-155l-23 -261q-9 -101 -27.5 -167t-48.5 -98.5t-62 -44t-79 -11.5z" />
    <glyph glyph-name="afii10030" unicode="&#x41c;" horiz-adv-x="713" 
d="M650 0h-110v460l-162 -460h-43l-160 460v-460h-111v667h150l143 -406l144 406h149v-667z" />
    <glyph glyph-name="afii10031" unicode="&#x41d;" horiz-adv-x="593" 
d="M530 0h-111v294h-244v-294h-111v667h111v-275h244v275h111v-667z" />
    <glyph glyph-name="afii10032" unicode="&#x41e;" horiz-adv-x="612" 
d="M306 -12q-124 0 -195.5 97t-71.5 248t71.5 248t195.5 97t195.5 -97t71.5 -248t-71.5 -248t-195.5 -97zM306 87q72 0 113 69.5t41 176.5q0 108 -41 177.5t-113 69.5q-73 0 -113.5 -69t-40.5 -178q0 -108 40.5 -177t113.5 -69z" />
    <glyph glyph-name="afii10033" unicode="&#x41f;" horiz-adv-x="593" 
d="M530 0h-111v570h-244v-570h-111v667h466v-667z" />
    <glyph glyph-name="afii10034" unicode="&#x420;" horiz-adv-x="513" 
d="M175 0h-111v667h227q94 0 145.5 -59.5t51.5 -147.5q0 -89 -51.5 -148.5t-145.5 -59.5h-116v-252zM278 350q44 0 70.5 30t26.5 80t-26.5 80t-70.5 30h-103v-220h103z" />
    <glyph glyph-name="afii10035" unicode="&#x421;" horiz-adv-x="547" 
d="M311 -12q-124 0 -198 96.5t-74 248.5q0 153 74 249t198 96q141 0 211 -147l-92 -41q-39 90 -119 90q-72 0 -115.5 -69t-43.5 -178q0 -108 43.5 -177t115.5 -69q42 0 72.5 27t47.5 71l92 -41q-68 -156 -212 -156z" />
    <glyph glyph-name="afii10036" unicode="&#x422;" horiz-adv-x="462" 
d="M286 0h-110v570h-153v97h416v-97h-153v-570z" />
    <glyph glyph-name="afii10037" unicode="&#x423;" horiz-adv-x="521" 
d="M120 -12q-71 0 -116 38l34 91q32 -29 72 -29q28 0 46 15t34 49l11 32l-202 483h123l139 -354l139 354h122l-232 -559q-26 -62 -66 -91t-104 -29z" />
    <glyph glyph-name="afii10038" unicode="&#x424;" horiz-adv-x="730" 
d="M420 0h-111v67q-131 13 -200.5 84.5t-69.5 181.5q0 109 70 181t200 85v68h111v-68q131 -13 201 -84.5t70 -181.5t-70 -182t-201 -84v-67zM577 333q0 66 -39.5 110.5t-117.5 56.5v-333q78 12 117.5 56t39.5 110zM152 333q0 -66 39.5 -110t117.5 -56v333
q-78 -12 -117.5 -56.5t-39.5 -110.5z" />
    <glyph glyph-name="afii10039" unicode="&#x425;" horiz-adv-x="535" 
d="M533 0h-128l-138 254l-137 -254h-128l197 341l-185 326h127l126 -240l126 240h128l-185 -325z" />
    <glyph glyph-name="afii10040" unicode="&#x426;" horiz-adv-x="604" 
d="M478 -123v123h-414v667h111v-569h244v569h111v-569h59v-221h-111z" />
    <glyph glyph-name="afii10041" unicode="&#x427;" horiz-adv-x="541" 
d="M159 667v-191q0 -126 111 -126q56 0 96 15v302h111v-667h-111v267q-58 -15 -110 -15q-103 0 -155.5 61.5t-52.5 162.5v191h111z" />
    <glyph glyph-name="afii10042" unicode="&#x428;" horiz-adv-x="806" 
d="M632 667h110v-667h-678v667h110v-569h174v569h110v-569h174v569z" />
    <glyph glyph-name="afii10043" unicode="&#x429;" horiz-adv-x="817" 
d="M632 667h110v-569h59v-221h-110v123h-627v667h110v-569h174v569h110v-569h174v569z" />
    <glyph glyph-name="afii10044" unicode="&#x42a;" horiz-adv-x="625" 
d="M403 0h-227v570h-153v97h263v-252h117q93 0 145 -59.5t52 -147.5q0 -89 -51.5 -148.5t-145.5 -59.5zM390 318h-104v-220h104q44 0 70 30t26 80q0 49 -26 79.5t-70 30.5z" />
    <glyph glyph-name="afii10045" unicode="&#x42b;" horiz-adv-x="722" 
d="M64 667h111v-252h116q94 0 145.5 -59.5t51.5 -147.5q0 -89 -51.5 -148.5t-145.5 -59.5h-227v667zM278 318h-103v-220h103q44 0 70.5 30t26.5 80q0 49 -26.5 79.5t-70.5 30.5zM658 0h-111v667h111v-667z" />
    <glyph glyph-name="afii10046" unicode="&#x42c;" horiz-adv-x="513" 
d="M64 667h111v-252h116q94 0 145.5 -59.5t51.5 -147.5q0 -89 -51.5 -148.5t-145.5 -59.5h-227v667zM278 318h-103v-220h103q44 0 70.5 30t26.5 80q0 49 -26.5 79.5t-70.5 30.5z" />
    <glyph glyph-name="afii10047" unicode="&#x42d;" horiz-adv-x="547" 
d="M237 -12q-143 0 -213 156l93 41q17 -44 47.5 -71t72.5 -27q65 0 106.5 56t49.5 148h-268v98h266q-11 87 -51.5 139t-102.5 52q-79 0 -120 -90l-92 41q72 147 212 147q124 0 198 -96t74 -249q0 -152 -74 -248.5t-198 -96.5z" />
    <glyph glyph-name="afii10048" unicode="&#x42e;" horiz-adv-x="839" 
d="M532 -12q-116 0 -186.5 85t-79.5 221h-91v-294h-111v667h111v-275h93q14 128 83.5 207t180.5 79q124 0 196 -97t72 -248t-72 -248t-196 -97zM532 87q73 0 113.5 69t40.5 177q0 109 -40.5 178t-113.5 69q-72 0 -112.5 -69t-40.5 -178q0 -107 40.5 -176.5t112.5 -69.5z" />
    <glyph glyph-name="afii10049" unicode="&#x42f;" horiz-adv-x="533" 
d="M163 0h-123l129 271q-51 14 -87.5 61.5t-36.5 128.5q0 92 54 149t141 57h229v-667h-110v252h-82zM255 350h104v220h-104q-44 0 -70 -30t-26 -80t26 -80t70 -30z" />
    <glyph glyph-name="afii10065" unicode="&#x430;" 
d="M408 0h-99v49q-44 -61 -127 -61q-62 0 -105 43.5t-43 117.5t43 115.5t105 41.5q85 0 127 -58v70q0 44 -24.5 68t-69.5 24q-66 0 -120 -55l-39 70q70 70 177 70q80 0 127.5 -40.5t47.5 -124.5v-330zM218 57q60 0 91 53v73q-14 25 -39 39.5t-52 14.5q-38 0 -61 -25t-23 -65
t23 -65t61 -25z" />
    <glyph glyph-name="afii10066" unicode="&#x431;" horiz-adv-x="490" 
d="M243 76q52 0 79 48.5t27 119.5q0 68 -27 115.5t-79 47.5q-51 0 -78 -47.5t-27 -115.5q0 -71 27 -119.5t78 -48.5zM243 -12q-100 0 -154 76.5t-54 199.5q0 185 45.5 261t163.5 96q53 9 73.5 19t20.5 27h99q0 -33 -16 -57.5t-44.5 -38.5t-52.5 -21t-55 -12
q-138 -22 -150 -119q21 35 58 55.5t83 20.5q89 0 140.5 -73t51.5 -179q0 -107 -55 -181t-154 -74z" />
    <glyph glyph-name="afii10067" unicode="&#x432;" horiz-adv-x="487" 
d="M288 0h-229v483h223q71 0 108.5 -34.5t37.5 -88.5q0 -42 -22.5 -70.5t-60.5 -39.5q40 -9 66 -42.5t26 -76.5q0 -59 -37.5 -95t-111.5 -36zM267 84q68 0 68 60q0 26 -17.5 44t-50.5 18h-108v-122h108zM263 289q62 0 62 55q0 25 -15.5 40.5t-46.5 15.5h-104v-111h104z" />
    <glyph glyph-name="afii10068" unicode="&#x433;" horiz-adv-x="377" 
d="M359 483v-87h-200v-396h-100v483h300z" />
    <glyph glyph-name="afii10069" unicode="&#x434;" horiz-adv-x="493" 
d="M18 -123v202q34 7 50 35t24 116l22 253h312v-396h52v-210h-100v123h-261v-123h-99zM205 396l-13 -174q-7 -90 -54 -135h189v309h-122z" />
    <glyph glyph-name="afii10070" unicode="&#x435;" horiz-adv-x="474" 
d="M252 -12q-99 0 -158 70t-59 184q0 108 56.5 180.5t150.5 72.5q95 0 148 -72t53 -185v-29h-307q3 -62 36 -100.5t90 -38.5q65 0 109 52l48 -60q-65 -74 -167 -74zM346 280q-1 53 -26.5 93.5t-78.5 40.5q-51 0 -77 -41t-29 -93h211z" />
    <glyph glyph-name="afii10072" unicode="&#x436;" horiz-adv-x="620" 
d="M125 0h-117l163 266l-160 217h116l133 -186v186h100v-186l133 186h116l-160 -217l163 -266h-117l-114 202l-21 -28v-174h-100v174l-21 28z" />
    <glyph glyph-name="afii10073" unicode="&#x437;" horiz-adv-x="437" 
d="M208 -12q-124 0 -190 78l49 61q52 -58 139 -58q45 0 70.5 19t25.5 51q0 65 -101 65h-90v80h88q45 0 70.5 17.5t25.5 49.5q0 29 -26.5 46t-69.5 17q-79 0 -124 -56l-51 60q66 77 172 77q91 0 145 -35t54 -96q0 -43 -32.5 -75.5t-77.5 -41.5q47 -5 82.5 -36t35.5 -80
q0 -63 -52.5 -103t-142.5 -40z" />
    <glyph glyph-name="afii10074" unicode="&#x438;" horiz-adv-x="485" 
d="M156 0h-97v483h100v-303l165 303h102v-483h-99v313z" />
    <glyph glyph-name="afii10075" unicode="&#x439;" horiz-adv-x="485" 
d="M156 0h-97v483h100v-303l165 303h102v-483h-99v313zM392 616q-55 -75 -149 -75q-92 0 -149 75l47 38q37 -53 102 -53t102 53z" />
    <glyph glyph-name="afii10076" unicode="&#x43a;" horiz-adv-x="456" 
d="M448 0h-117l-114 202l-58 -78v-124h-100v483h100v-237l170 237h116l-160 -217z" />
    <glyph glyph-name="afii10077" unicode="&#x43b;" horiz-adv-x="485" 
d="M18 -12v85q31 0 48.5 33t25.5 124l22 253h312v-483h-99v396h-122l-13 -174q-10 -128 -53 -181t-121 -53z" />
    <glyph glyph-name="afii10078" unicode="&#x43c;" horiz-adv-x="593" 
d="M534 0h-98v315l-119 -315h-40l-118 315v-315h-100v483h128l110 -291l110 291h127v-483z" />
    <glyph glyph-name="afii10079" unicode="&#x43d;" horiz-adv-x="485" 
d="M159 0h-100v483h100v-190h168v190h99v-483h-99v206h-168v-206z" />
    <glyph glyph-name="afii10080" unicode="&#x43e;" horiz-adv-x="488" 
d="M244 -12q-98 0 -153.5 73t-55.5 181t55 180.5t154 72.5t154 -72.5t55 -180.5t-55.5 -181t-153.5 -73zM244 76q52 0 79 48t27 118t-27 117.5t-79 47.5t-79 -47.5t-27 -117.5t27 -118t79 -48z" />
    <glyph glyph-name="afii10081" unicode="&#x43f;" horiz-adv-x="485" 
d="M426 0h-99v396h-168v-396h-100v483h367v-483z" />
    <glyph glyph-name="afii10082" unicode="&#x440;" horiz-adv-x="492" 
d="M283 -12q-81 0 -124 77v-249h-100v667h100v-64q21 36 54 56t70 20q82 0 129 -68t47 -185q0 -116 -47.5 -185t-128.5 -69zM253 76q50 0 76.5 46.5t26.5 119.5t-26.5 119t-76.5 46q-28 0 -54.5 -19t-39.5 -47v-198q13 -28 39.5 -47.5t54.5 -19.5z" />
    <glyph glyph-name="afii10083" unicode="&#x441;" horiz-adv-x="415" 
d="M247 -12q-95 0 -153.5 71.5t-58.5 182.5t58 182t154 71q95 0 147 -65l-51 -68q-35 45 -86 45q-55 0 -87 -47t-32 -118q0 -72 32 -119t87 -47q50 0 86 45l51 -68q-52 -65 -147 -65z" />
    <glyph glyph-name="afii10084" unicode="&#x442;" horiz-adv-x="354" 
d="M227 0h-100v396h-109v87h318v-87h-109v-396z" />
    <glyph glyph-name="afii10085" unicode="&#x443;" horiz-adv-x="430" 
d="M42 -189l15 88q13 -7 32 -7q40 0 55 40l20 58l-162 493h106l107 -363l108 363h106l-191 -574q-19 -58 -53.5 -81.5t-88.5 -23.5q-31 0 -54 7z" />
    <glyph glyph-name="afii10086" unicode="&#x444;" horiz-adv-x="722" 
d="M202 495q69 0 109 -76v248h100v-248q40 76 109 76q72 0 113.5 -68t41.5 -185q0 -116 -41.5 -185t-113.5 -69q-70 0 -109 77v-249h-100v249q-18 -37 -47 -57t-62 -20q-72 0 -113.5 68.5t-41.5 185.5t41.5 185t113.5 68zM234 407q-41 0 -63 -46t-22 -119q0 -72 23 -119
t64 -47q22 0 43 19.5t32 47.5v198q-11 28 -32.5 47t-44.5 19zM486 76q41 0 64 47t23 119q0 73 -22 119t-63 46q-23 0 -44.5 -19t-32.5 -47v-198q11 -28 32 -47.5t43 -19.5z" />
    <glyph glyph-name="afii10087" unicode="&#x445;" horiz-adv-x="424" 
d="M418 0h-109l-97 176l-97 -176h-109l144 246l-136 237h109l89 -166l89 166h109l-136 -237z" />
    <glyph glyph-name="afii10088" unicode="&#x446;" horiz-adv-x="493" 
d="M378 -123v123h-319v483h100v-396h168v396h99v-396h52v-210h-100z" />
    <glyph glyph-name="afii10089" unicode="&#x447;" horiz-adv-x="470" 
d="M45 483h99v-142q0 -41 20 -58.5t66 -17.5q48 0 82 16v202h99v-483h-99v203q-45 -26 -113 -26q-84 0 -119 32t-35 98v176z" />
    <glyph glyph-name="afii10090" unicode="&#x448;" horiz-adv-x="688" 
d="M529 483h100v-483h-570v483h100v-396h135v396h100v-396h135v396z" />
    <glyph glyph-name="afii10091" unicode="&#x449;" horiz-adv-x="701" 
d="M529 483h100v-396h56v-210h-99v123h-527v483h100v-396h135v396h100v-396h135v396z" />
    <glyph glyph-name="afii10092" unicode="&#x44a;" horiz-adv-x="527" 
d="M334 0h-207v396h-109v87h209v-177h107q79 0 120.5 -44t41.5 -110q0 -65 -42.5 -108.5t-119.5 -43.5zM322 222h-95v-138h95q34 0 53 19t19 50q0 30 -19 49.5t-53 19.5z" />
    <glyph glyph-name="afii10093" unicode="&#x44b;" horiz-adv-x="648" 
d="M59 483h100v-177h107q79 0 120.5 -44t41.5 -110q0 -65 -42.5 -108.5t-119.5 -43.5h-207v483zM254 222h-95v-138h95q34 0 53 19t19 50q0 30 -19 49.5t-53 19.5zM589 0h-99v483h99v-483z" />
    <glyph glyph-name="afii10094" unicode="&#x44c;" horiz-adv-x="459" 
d="M59 483h100v-177h107q79 0 120.5 -44t41.5 -110q0 -65 -42.5 -108.5t-119.5 -43.5h-207v483zM254 222h-95v-138h95q34 0 53 19t19 50q0 30 -19 49.5t-53 19.5z" />
    <glyph glyph-name="afii10095" unicode="&#x44d;" horiz-adv-x="415" 
d="M169 -12q-96 0 -147 65l49 64q36 -47 88 -47q47 0 77 35.5t39 95.5h-180v86h179q-8 59 -38 93t-77 34q-52 0 -88 -47l-49 63q51 65 147 65t154 -71t58 -182t-58.5 -182.5t-153.5 -71.5z" />
    <glyph glyph-name="afii10096" unicode="&#x44e;" horiz-adv-x="688" 
d="M444 -12q-89 0 -144 61.5t-64 156.5h-77v-206h-100v483h100v-190h79q13 89 66.5 145.5t139.5 56.5q99 0 154 -72.5t55 -180.5t-55 -181t-154 -73zM444 76q52 0 79 47.5t27 118.5t-27 118t-79 47t-78.5 -47t-26.5 -118t26.5 -118.5t78.5 -47.5z" />
    <glyph glyph-name="afii10097" unicode="&#x44f;" horiz-adv-x="482" 
d="M155 0h-114l104 190q-41 11 -69 47.5t-28 93.5q0 66 43 109t119 43h213v-483h-100v178h-80zM222 261h101v139h-101q-34 0 -53.5 -19t-19.5 -50t19 -50.5t54 -19.5z" />
    <glyph glyph-name="afii10071" unicode="&#x451;" horiz-adv-x="474" 
d="M390 607q0 -23 -17 -39.5t-40 -16.5t-39.5 16.5t-16.5 39.5t16.5 39.5t39.5 16.5t40 -16.5t17 -39.5zM208 607q0 -23 -16.5 -39.5t-39.5 -16.5t-40 16.5t-17 39.5t17 39.5t40 16.5t39.5 -16.5t16.5 -39.5zM252 -12q-99 0 -158 70t-59 184q0 108 56.5 180.5t150.5 72.5
q95 0 148 -72t53 -185v-29h-307q3 -62 36 -100.5t90 -38.5q65 0 109 52l48 -60q-65 -74 -167 -74zM346 280q-1 53 -26.5 93.5t-78.5 40.5q-51 0 -77 -41t-29 -93h211z" />
    <glyph glyph-name="afii10099" unicode="&#x452;" horiz-adv-x="493" 
d="M300 532h-133v-114q21 32 59.5 54.5t81.5 22.5q126 0 126 -130v-406q0 -155 -140 -155q-52 0 -86 31l28 75q20 -22 47 -22q52 0 52 71v371q0 77 -70 77q-30 0 -56 -19.5t-42 -47.5v-340h-100v532h-53v60h53v75h100v-75h133v-60z" />
    <glyph glyph-name="afii10100" unicode="&#x453;" horiz-adv-x="377" 
d="M360 700l-134 -144h-68l110 144h92zM359 483v-87h-200v-396h-100v483h300z" />
    <glyph glyph-name="afii10101" unicode="&#x454;" horiz-adv-x="415" 
d="M247 -12q-95 0 -153.5 71.5t-58.5 182.5t58 182t154 71q95 0 147 -65l-49 -63q-38 47 -88 47q-47 0 -77.5 -34.5t-38.5 -92.5h180v-86h-180q8 -59 38 -95t78 -36q50 0 88 47l49 -64q-52 -65 -147 -65z" />
    <glyph glyph-name="afii10102" unicode="&#x455;" horiz-adv-x="401" 
d="M198 -12q-113 0 -177 69l45 70q23 -25 58.5 -42.5t71.5 -17.5q37 0 58.5 17t21.5 46q0 25 -24.5 42t-60 29t-70.5 27.5t-59.5 48t-24.5 80.5q0 59 44.5 98.5t121.5 39.5q95 0 159 -62l-42 -68q-42 51 -115 51q-33 0 -53.5 -16t-20.5 -40q0 -20 18 -34.5t44.5 -22.5
t57.5 -21.5t57.5 -29.5t44.5 -47t18 -73q0 -63 -47.5 -103.5t-125.5 -40.5z" />
    <glyph glyph-name="afii10103" unicode="&#x456;" horiz-adv-x="218" 
d="M109 544q-26 0 -44.5 18.5t-18.5 43.5q0 26 18.5 44.5t44.5 18.5t44 -18.5t18 -44.5t-18.5 -44t-43.5 -18zM159 0h-100v483h100v-483z" />
    <glyph glyph-name="afii10104" unicode="&#x457;" horiz-adv-x="218" 
d="M256 607q0 -23 -17 -39.5t-40 -16.5t-39.5 16.5t-16.5 39.5t16.5 39.5t39.5 16.5t40 -16.5t17 -39.5zM74 607q0 -23 -16.5 -39.5t-39.5 -16.5t-40 16.5t-17 39.5t17 39.5t40 16.5t39.5 -16.5t16.5 -39.5zM159 0h-100v483h100v-483z" />
    <glyph glyph-name="afii10105" unicode="&#x458;" horiz-adv-x="218" 
d="M109 544q-26 0 -44.5 18.5t-18.5 43.5q0 26 18.5 44.5t44.5 18.5t44 -18.5t18 -44.5t-18.5 -44t-43.5 -18zM19 -196q-53 0 -87 31l28 75q20 -22 47 -22q52 0 52 71v524h100v-524q0 -155 -140 -155z" />
    <glyph glyph-name="afii10106" unicode="&#x459;" horiz-adv-x="727" 
d="M18 -12v85q31 0 48.5 33t25.5 124l22 253h312v-177h107q79 0 121 -44t42 -110q0 -65 -42.5 -108.5t-120.5 -43.5h-206v396h-122l-13 -174q-10 -128 -53 -181t-121 -53zM521 222h-95v-138h95q35 0 54 19t19 50q0 30 -19 49.5t-54 19.5z" />
    <glyph glyph-name="afii10107" unicode="&#x45a;" horiz-adv-x="727" 
d="M159 0h-100v483h100v-190h168v190h99v-190h111q77 0 118 -41.5t41 -105.5q0 -63 -41.5 -104.5t-117.5 -41.5h-210v206h-168v-206zM525 210h-99v-126h99q33 0 51 17t18 45q0 29 -18 46.5t-51 17.5z" />
    <glyph glyph-name="afii10108" unicode="&#x45b;" horiz-adv-x="493" 
d="M303 532h-136v-114q21 32 59.5 54.5t81.5 22.5q126 0 126 -130v-365h-99v331q0 76 -70 76q-30 0 -56 -19.5t-42 -47.5v-340h-100v532h-53v60h53v75h100v-75h136v-60z" />
    <glyph glyph-name="afii10109" unicode="&#x45c;" horiz-adv-x="456" 
d="M381 700l-134 -144h-68l110 144h92zM448 0h-117l-114 202l-58 -78v-124h-100v483h100v-237l170 237h116l-160 -217z" />
    <glyph glyph-name="afii10110" unicode="&#x45e;" horiz-adv-x="430" 
d="M42 -189l15 88q13 -7 32 -7q40 0 55 40l20 58l-162 493h106l107 -363l108 363h106l-191 -574q-19 -58 -53.5 -81.5t-88.5 -23.5q-31 0 -54 7zM364 616q-55 -75 -149 -75q-92 0 -149 75l47 38q37 -53 102 -53t102 53z" />
    <glyph glyph-name="afii10193" unicode="&#x45f;" horiz-adv-x="485" 
d="M193 -128v128h-134v483h100v-396h168v396h99v-483h-133v-128h-100z" />
    <glyph glyph-name="afii10050" unicode="&#x490;" horiz-adv-x="464" 
d="M175 570v-570h-111v667h255v123h110v-220h-254z" />
    <glyph glyph-name="afii10098" unicode="&#x491;" horiz-adv-x="377" 
d="M159 396v-396h-100v483h200v128h100v-215h-200z" />
    <glyph glyph-name="uni1E02" unicode="&#x1e02;" horiz-adv-x="540" 
d="M324 0h-260v667h252q82 0 127 -48t45 -122q0 -61 -29.5 -100.5t-75.5 -52.5q49 -7 82.5 -54.5t33.5 -109.5q0 -81 -45 -130.5t-130 -49.5zM292 389q41 0 61.5 24.5t20.5 65.5t-21 66t-61 25h-117v-181h117zM296 98q44 0 66.5 25.5t22.5 71.5q0 42 -23 69t-66 27h-121
v-193h121zM270 717q-23 0 -40 16.5t-17 39.5t17 40t40 17t39.5 -17t16.5 -40t-16.5 -39.5t-39.5 -16.5z" />
    <glyph glyph-name="uni1E03" unicode="&#x1e03;" horiz-adv-x="494" 
d="M159 142q13 -28 39.5 -47t54.5 -19q50 0 76.5 46t26.5 119q0 74 -26.5 120t-76.5 46q-28 0 -54.5 -19.5t-39.5 -47.5v-198zM159 0h-100v667h100v-249q43 77 124 77t128.5 -69.5t47.5 -184.5q0 -116 -47.5 -184.5t-128.5 -68.5q-78 0 -124 76v-64zM254 717q-23 0 -40 16.5
t-17 39.5t17 40t40 17t39.5 -17t16.5 -40t-16.5 -39.5t-39.5 -16.5z" />
    <glyph glyph-name="uni1E0A" unicode="&#x1e0a;" horiz-adv-x="583" 
d="M263 0h-199v667h199q131 0 206 -92.5t75 -241.5t-74.5 -241t-206.5 -92zM263 98q80 0 123.5 64.5t43.5 170.5q0 108 -43 172.5t-124 64.5h-88v-472h88zM292 717q-23 0 -40 16.5t-17 39.5t17 40t40 17t39.5 -17t16.5 -40t-16.5 -39.5t-39.5 -16.5z" />
    <glyph glyph-name="uni1E0B" unicode="&#x1e0b;" horiz-adv-x="494" 
d="M435 0h-100v64q-22 -36 -55 -56t-69 -20q-81 0 -128.5 68.5t-47.5 184.5t47.5 185t128.5 69t124 -77v249h100v-667zM241 76q28 0 54.5 19t39.5 47v199q-13 28 -39.5 47t-54.5 19q-50 0 -76.5 -46t-26.5 -120q0 -72 26.5 -118.5t76.5 -46.5zM242 717q-23 0 -40 16.5
t-17 39.5t17 40t40 17t39.5 -17t16.5 -40t-16.5 -39.5t-39.5 -16.5z" />
    <glyph glyph-name="uni1E1E" unicode="&#x1e1e;" horiz-adv-x="464" 
d="M249 717q-23 0 -40 16.5t-17 39.5t17 40t40 17t39.5 -17t16.5 -40t-16.5 -39.5t-39.5 -16.5zM175 0h-111v667h365v-97h-254v-181h247v-98h-247v-291z" />
    <glyph glyph-name="uni1E1F" unicode="&#x1e1f;" horiz-adv-x="274" 
d="M215 717q-23 0 -40 16.5t-17 39.5t17 40t40 17t39.5 -17t16.5 -40t-16.5 -39.5t-39.5 -16.5zM179 0h-100v396h-63v87h63v45q0 70 36.5 109.5t99.5 39.5q62 0 97 -34l-34 -70q-20 20 -45 20q-54 0 -54 -65v-45h80v-87h-80v-396z" />
    <glyph glyph-name="uni1E22" unicode="&#x1e22;" horiz-adv-x="593" 
d="M530 0h-111v294h-244v-294h-111v667h111v-275h244v275h111v-667zM297 717q-23 0 -40 16.5t-17 39.5t17 40t40 17t39.5 -17t16.5 -40t-16.5 -39.5t-39.5 -16.5z" />
    <glyph glyph-name="uni1E23" unicode="&#x1e23;" horiz-adv-x="485" 
d="M426 0h-99v331q0 76 -70 76q-30 0 -56 -19.5t-42 -47.5v-340h-100v667h100v-249q21 32 59.5 54.5t81.5 22.5q126 0 126 -130v-365zM243 717q-23 0 -40 16.5t-17 39.5t17 40t40 17t39.5 -17t16.5 -40t-16.5 -39.5t-39.5 -16.5z" />
    <glyph glyph-name="uni1E56" unicode="&#x1e56;" horiz-adv-x="513" 
d="M175 0h-111v667h227q94 0 145.5 -59.5t51.5 -147.5q0 -89 -51.5 -148.5t-145.5 -59.5h-116v-252zM278 350q44 0 70.5 30t26.5 80t-26.5 80t-70.5 30h-103v-220h103zM257 717q-23 0 -40 16.5t-17 39.5t17 40t40 17t39.5 -17t16.5 -40t-16.5 -39.5t-39.5 -16.5z" />
    <glyph glyph-name="uni1E57" unicode="&#x1e57;" horiz-adv-x="492" 
d="M283 -12q-81 0 -124 77v-249h-100v667h100v-64q21 36 54 56t70 20q82 0 129 -68t47 -185q0 -116 -47.5 -185t-128.5 -69zM253 76q50 0 76.5 46.5t26.5 119.5t-26.5 119t-76.5 46q-28 0 -54.5 -19t-39.5 -47v-198q13 -28 39.5 -47.5t54.5 -19.5zM254 550q-23 0 -40 16.5
t-17 39.5t17 40t40 17t39.5 -17t16.5 -40t-16.5 -39.5t-39.5 -16.5z" />
    <glyph glyph-name="uni1E60" unicode="&#x1e60;" horiz-adv-x="486" 
d="M237 -12q-135 0 -215 85l56 86q63 -72 159 -72q49 0 76.5 25.5t27.5 62.5t-31 63t-74.5 44.5t-87.5 40.5t-75 65t-31 104q0 80 57 133t150 53q117 0 192 -72l-54 -84q-57 57 -141 57q-41 0 -66 -22t-25 -59q0 -32 31 -56t74.5 -42.5t87.5 -41.5t75 -67.5t31 -106.5
q0 -86 -57 -141t-160 -55zM243 717q-23 0 -40 16.5t-17 39.5t17 40t40 17t39.5 -17t16.5 -40t-16.5 -39.5t-39.5 -16.5z" />
    <glyph glyph-name="uni1E61" unicode="&#x1e61;" horiz-adv-x="401" 
d="M198 -12q-113 0 -177 69l45 70q23 -25 58.5 -42.5t71.5 -17.5q37 0 58.5 17t21.5 46q0 25 -24.5 42t-60 29t-70.5 27.5t-59.5 48t-24.5 80.5q0 59 44.5 98.5t121.5 39.5q95 0 159 -62l-42 -68q-42 51 -115 51q-33 0 -53.5 -16t-20.5 -40q0 -20 18 -34.5t44.5 -22.5
t57.5 -21.5t57.5 -29.5t44.5 -47t18 -73q0 -63 -47.5 -103.5t-125.5 -40.5zM201 550q-23 0 -40 16.5t-17 39.5t17 40t40 17t39.5 -17t16.5 -40t-16.5 -39.5t-39.5 -16.5z" />
    <glyph glyph-name="uni1E6A" unicode="&#x1e6a;" horiz-adv-x="462" 
d="M286 0h-110v570h-153v97h416v-97h-153v-570zM231 717q-23 0 -40 16.5t-17 39.5t17 40t40 17t39.5 -17t16.5 -40t-16.5 -39.5t-39.5 -16.5z" />
    <glyph glyph-name="uni1E6B" unicode="&#x1e6b;" horiz-adv-x="283" 
d="M189 -12q-112 0 -112 120v288h-63v87h63v132h100v-132h80v-87h-80v-267q0 -53 37 -53q26 0 38 16l24 -75q-29 -29 -87 -29zM131 717q-23 0 -40 16.5t-17 39.5t17 40t40 17t39.5 -17t16.5 -40t-16.5 -39.5t-39.5 -16.5z" />
    <glyph glyph-name="Wgrave" unicode="&#x1e80;" horiz-adv-x="745" 
d="M584 0h-116l-96 479l-95 -479h-116l-151 667h119l96 -498l103 498h89l104 -498l95 498h119zM423 723h-68l-134 144h93z" />
    <glyph glyph-name="wgrave" unicode="&#x1e81;" horiz-adv-x="667" 
d="M531 0h-104l-93 355l-94 -355h-104l-129 483h103l84 -352l92 352h92l94 -352l85 352h103zM385 556h-68l-134 144h93z" />
    <glyph glyph-name="Wacute" unicode="&#x1e82;" horiz-adv-x="745" 
d="M523 867l-134 -144h-68l110 144h92zM584 0h-116l-96 479l-95 -479h-116l-151 667h119l96 -498l103 498h89l104 -498l95 498h119z" />
    <glyph glyph-name="wacute" unicode="&#x1e83;" horiz-adv-x="667" 
d="M485 700l-134 -144h-68l110 144h92zM531 0h-104l-93 355l-94 -355h-104l-129 483h103l84 -352l92 352h92l94 -352l85 352h103z" />
    <glyph glyph-name="Wdieresis" unicode="&#x1e84;" horiz-adv-x="745" 
d="M520 774q0 -23 -17 -39.5t-40 -16.5t-39.5 16.5t-16.5 39.5t16.5 39.5t39.5 16.5t40 -16.5t17 -39.5zM338 774q0 -23 -16.5 -39.5t-39.5 -16.5t-40 16.5t-17 39.5t17 39.5t40 16.5t39.5 -16.5t16.5 -39.5zM584 0h-116l-96 479l-95 -479h-116l-151 667h119l96 -498
l103 498h89l104 -498l95 498h119z" />
    <glyph glyph-name="wdieresis" unicode="&#x1e85;" horiz-adv-x="667" 
d="M481 607q0 -23 -17 -39.5t-40 -16.5t-39.5 16.5t-16.5 39.5t16.5 39.5t39.5 16.5t40 -16.5t17 -39.5zM299 607q0 -23 -16.5 -39.5t-39.5 -16.5t-40 16.5t-17 39.5t17 39.5t40 16.5t39.5 -16.5t16.5 -39.5zM531 0h-104l-93 355l-94 -355h-104l-129 483h103l84 -352l92 352
h92l94 -352l85 352h103z" />
    <glyph glyph-name="uni1EA0" unicode="&#x1ea0;" horiz-adv-x="536" 
d="M533 0h-120l-36 132h-219l-36 -132h-120l199 667h133zM355 230l-87 319l-87 -319h174zM269 -189q-23 0 -40 16.5t-17 39.5t17 40t40 17t39.5 -17t16.5 -40t-16.5 -39.5t-39.5 -16.5z" />
    <glyph glyph-name="uni1EA1" unicode="&#x1ea1;" 
d="M408 0h-99v49q-44 -61 -127 -61q-62 0 -105 43.5t-43 117.5t43 115.5t105 41.5q85 0 127 -58v70q0 44 -24.5 68t-69.5 24q-66 0 -120 -55l-39 70q70 70 177 70q80 0 127.5 -40.5t47.5 -124.5v-330zM218 57q60 0 91 53v73q-14 25 -39 39.5t-52 14.5q-38 0 -61 -25t-23 -65
t23 -65t61 -25zM235 -189q-23 0 -40 16.5t-17 39.5t17 40t40 17t39.5 -17t16.5 -40t-16.5 -39.5t-39.5 -16.5z" />
    <glyph glyph-name="uni1EA2" unicode="&#x1ea2;" horiz-adv-x="536" 
d="M533 0h-120l-36 132h-219l-36 -132h-120l199 667h133zM355 230l-87 319l-87 -319h174zM238 757l-39 10q15 53 70 53q30 0 48.5 -16.5t18.5 -50.5q0 -28 -18 -56h-44q21 25 21 54q0 32 -27 32q-22 0 -30 -26z" />
    <glyph glyph-name="uni1EA3" unicode="&#x1ea3;" 
d="M408 0h-99v49q-44 -61 -127 -61q-62 0 -105 43.5t-43 117.5t43 115.5t105 41.5q85 0 127 -58v70q0 44 -24.5 68t-69.5 24q-66 0 -120 -55l-39 70q70 70 177 70q80 0 127.5 -40.5t47.5 -124.5v-330zM218 57q60 0 91 53v73q-14 25 -39 39.5t-52 14.5q-38 0 -61 -25t-23 -65
t23 -65t61 -25zM204 587l-39 10q15 53 70 53q30 0 48.5 -16.5t18.5 -50.5q0 -28 -18 -56h-44q21 25 21 54q0 32 -27 32q-22 0 -30 -26z" />
    <glyph glyph-name="uni1EA4" unicode="&#x1ea4;" horiz-adv-x="536" 
d="M394 682h-60l-67 73l-64 -73h-60l79 108h91zM533 0h-120l-36 132h-219l-36 -132h-120l199 667h133zM355 230l-87 319l-87 -319h174zM568 844l-134 -108h-68l110 108h92z" />
    <glyph glyph-name="uni1EA5" unicode="&#x1ea5;" 
d="M408 0h-99v49q-44 -61 -127 -61q-62 0 -105 43.5t-43 117.5t43 115.5t105 41.5q85 0 127 -58v70q0 44 -24.5 68t-69.5 24q-66 0 -120 -55l-39 70q70 70 177 70q80 0 127.5 -40.5t47.5 -124.5v-330zM218 57q60 0 91 53v73q-14 25 -39 39.5t-52 14.5q-38 0 -61 -25t-23 -65
t23 -65t61 -25zM360 556h-60l-67 97l-64 -97h-60l79 144h91zM531 771l-134 -144h-68l110 144h92z" />
    <glyph glyph-name="uni1EA6" unicode="&#x1ea6;" horiz-adv-x="536" 
d="M394 682h-60l-67 73l-64 -73h-60l79 108h91zM533 0h-120l-36 132h-219l-36 -132h-120l199 667h133zM355 230l-87 319l-87 -319h174zM171 736h-68l-134 108h93z" />
    <glyph glyph-name="uni1EA7" unicode="&#x1ea7;" 
d="M408 0h-99v49q-44 -61 -127 -61q-62 0 -105 43.5t-43 117.5t43 115.5t105 41.5q85 0 127 -58v70q0 44 -24.5 68t-69.5 24q-66 0 -120 -55l-39 70q70 70 177 70q80 0 127.5 -40.5t47.5 -124.5v-330zM218 57q60 0 91 53v73q-14 25 -39 39.5t-52 14.5q-38 0 -61 -25t-23 -65
t23 -65t61 -25zM360 556h-60l-67 97l-64 -97h-60l79 144h91zM138 627h-68l-134 144h93z" />
    <glyph glyph-name="uni1EA8" unicode="&#x1ea8;" horiz-adv-x="536" 
d="M394 682h-60l-67 73l-64 -73h-60l79 108h91zM533 0h-120l-36 132h-219l-36 -132h-120l199 667h133zM355 230l-87 319l-87 -319h174zM373 789l-39 8q15 39 70 39q30 0 48.5 -12.5t18.5 -37.5q0 -21 -18 -42h-44q21 20 21 41q0 24 -27 24q-22 0 -30 -20z" />
    <glyph glyph-name="uni1EA9" unicode="&#x1ea9;" 
d="M408 0h-99v49q-44 -61 -127 -61q-62 0 -105 43.5t-43 117.5t43 115.5t105 41.5q85 0 127 -58v70q0 44 -24.5 68t-69.5 24q-66 0 -120 -55l-39 70q70 70 177 70q80 0 127.5 -40.5t47.5 -124.5v-330zM218 57q60 0 91 53v73q-14 25 -39 39.5t-52 14.5q-38 0 -61 -25t-23 -65
t23 -65t61 -25zM360 556h-60l-67 97l-64 -97h-60l79 144h91zM293 727l-39 10q15 53 70 53q30 0 48.5 -16.5t18.5 -50.5q0 -28 -18 -56h-44q21 25 21 54q0 32 -27 32q-22 0 -30 -26z" />
    <glyph glyph-name="uni1EAA" unicode="&#x1eaa;" horiz-adv-x="536" 
d="M394 678h-60l-67 48l-64 -48h-60l79 72h91zM533 0h-120l-36 132h-219l-36 -132h-120l199 667h133zM355 230l-87 319l-87 -319h174zM317 757q-35 0 -62.5 20t-40.5 20q-15 0 -24.5 -9.5t-9.5 -27.5h-54q0 30 24 48.5t68 18.5q34 0 61.5 -20t41.5 -20q33 0 33 37h54
q0 -31 -23.5 -49t-67.5 -18z" />
    <glyph glyph-name="uni1EAB" unicode="&#x1eab;" 
d="M408 0h-99v49q-44 -61 -127 -61q-62 0 -105 43.5t-43 117.5t43 115.5t105 41.5q85 0 127 -58v70q0 44 -24.5 68t-69.5 24q-66 0 -120 -55l-39 70q70 70 177 70q80 0 127.5 -40.5t47.5 -124.5v-330zM218 57q60 0 91 53v73q-14 25 -39 39.5t-52 14.5q-38 0 -61 -25t-23 -65
t23 -65t61 -25zM360 523h-60l-67 97l-64 -97h-60l79 144h91zM283 682q-21 0 -37.5 12.5t-24.5 28t-19 28t-22 12.5q-15 0 -24.5 -19t-9.5 -56h-54q0 61 24 97.5t68 36.5q21 0 37 -12.5t24.5 -27.5t19.5 -27.5t22 -12.5q33 0 33 74h54q0 -61 -23.5 -97.5t-67.5 -36.5z" />
    <glyph glyph-name="uni1EAC" unicode="&#x1eac;" horiz-adv-x="536" 
d="M533 0h-120l-36 132h-219l-36 -132h-120l199 667h133zM355 230l-87 319l-87 -319h174zM394 723h-60l-67 97l-64 -97h-60l79 144h91zM269 -189q-23 0 -40 16.5t-17 39.5t17 40t40 17t39.5 -17t16.5 -40t-16.5 -39.5t-39.5 -16.5z" />
    <glyph glyph-name="uni1EAD" unicode="&#x1ead;" 
d="M408 0h-99v49q-44 -61 -127 -61q-62 0 -105 43.5t-43 117.5t43 115.5t105 41.5q85 0 127 -58v70q0 44 -24.5 68t-69.5 24q-66 0 -120 -55l-39 70q70 70 177 70q80 0 127.5 -40.5t47.5 -124.5v-330zM218 57q60 0 91 53v73q-14 25 -39 39.5t-52 14.5q-38 0 -61 -25t-23 -65
t23 -65t61 -25zM359 556h-60l-67 97l-64 -97h-60l79 144h91zM235 -189q-23 0 -40 16.5t-17 39.5t17 40t40 17t39.5 -17t16.5 -40t-16.5 -39.5t-39.5 -16.5z" />
    <glyph glyph-name="uni1EAE" unicode="&#x1eae;" horiz-adv-x="536" 
d="M533 0h-120l-36 132h-219l-36 -132h-120l199 667h133zM355 230l-87 319l-87 -319h174zM418 835l-134 -91h-68l110 91h92zM417 742q-55 -58 -149 -58q-93 0 -149 58l47 29q36 -41 102 -41t102 41z" />
    <glyph glyph-name="uni1EAF" unicode="&#x1eaf;" 
d="M408 0h-99v49q-44 -61 -127 -61q-62 0 -105 43.5t-43 117.5t43 115.5t105 41.5q85 0 127 -58v70q0 44 -24.5 68t-69.5 24q-66 0 -120 -55l-39 70q70 70 177 70q80 0 127.5 -40.5t47.5 -124.5v-330zM218 57q60 0 91 53v73q-14 25 -39 39.5t-52 14.5q-38 0 -61 -25t-23 -65
t23 -65t61 -25zM385 772l-134 -144h-68l110 144h92zM383 595q-55 -75 -149 -75q-92 0 -149 75l47 38q37 -53 102 -53t102 53z" />
    <glyph glyph-name="uni1EB0" unicode="&#x1eb0;" horiz-adv-x="536" 
d="M533 0h-120l-36 132h-219l-36 -132h-120l199 667h133zM355 230l-87 319l-87 -319h174zM321 744h-68l-134 91h93zM417 740q-55 -58 -149 -58q-93 0 -149 58l47 29q36 -41 102 -41t102 41z" />
    <glyph glyph-name="uni1EB1" unicode="&#x1eb1;" 
d="M408 0h-99v49q-44 -61 -127 -61q-62 0 -105 43.5t-43 117.5t43 115.5t105 41.5q85 0 127 -58v70q0 44 -24.5 68t-69.5 24q-66 0 -120 -55l-39 70q70 70 177 70q80 0 127.5 -40.5t47.5 -124.5v-330zM218 57q60 0 91 53v73q-14 25 -39 39.5t-52 14.5q-38 0 -61 -25t-23 -65
t23 -65t61 -25zM283 628h-68l-134 144h93zM383 596q-55 -75 -149 -75q-92 0 -149 75l47 38q37 -53 102 -53t102 53z" />
    <glyph glyph-name="uni1EB2" unicode="&#x1eb2;" horiz-adv-x="536" 
d="M533 0h-120l-36 132h-219l-36 -132h-120l199 667h133zM355 230l-87 319l-87 -319h174zM238 784l-39 7q15 33 70 33q30 0 48.5 -10.5t18.5 -31.5q0 -18 -18 -36h-44q21 17 21 34q0 21 -27 21q-22 0 -30 -17zM417 740q-55 -58 -149 -58q-93 0 -149 58l47 29q36 -41 102 -41
t102 41z" />
    <glyph glyph-name="uni1EB3" unicode="&#x1eb3;" 
d="M408 0h-99v49q-44 -61 -127 -61q-62 0 -105 43.5t-43 117.5t43 115.5t105 41.5q85 0 127 -58v70q0 44 -24.5 68t-69.5 24q-66 0 -120 -55l-39 70q70 70 177 70q80 0 127.5 -40.5t47.5 -124.5v-330zM218 57q60 0 91 53v73q-14 25 -39 39.5t-52 14.5q-38 0 -61 -25t-23 -65
t23 -65t61 -25zM205 687l-39 10q15 53 70 53q30 0 48.5 -16.5t18.5 -50.5q0 -28 -18 -56h-44q21 25 21 54q0 32 -27 32q-22 0 -30 -26zM383 596q-55 -75 -149 -75q-92 0 -149 75l47 38q37 -53 102 -53t102 53z" />
    <glyph glyph-name="uni1EB4" unicode="&#x1eb4;" horiz-adv-x="536" 
d="M533 0h-120l-36 132h-219l-36 -132h-120l199 667h133zM355 230l-87 319l-87 -319h174zM417 727q-56 -46 -149 -46q-91 0 -149 46l47 23q37 -32 102 -32t102 32zM317 757q-35 0 -62.5 20t-40.5 20q-15 0 -24.5 -9.5t-9.5 -27.5h-54q0 30 24 48.5t68 18.5q34 0 61.5 -20
t41.5 -20q33 0 33 37h54q0 -31 -23.5 -49t-67.5 -18z" />
    <glyph glyph-name="uni1EB5" unicode="&#x1eb5;" 
d="M408 0h-99v49q-44 -61 -127 -61q-62 0 -105 43.5t-43 117.5t43 115.5t105 41.5q85 0 127 -58v70q0 44 -24.5 68t-69.5 24q-66 0 -120 -55l-39 70q70 70 177 70q80 0 127.5 -40.5t47.5 -124.5v-330zM218 57q60 0 91 53v73q-14 25 -39 39.5t-52 14.5q-38 0 -61 -25t-23 -65
t23 -65t61 -25zM383 596q-55 -75 -149 -75q-92 0 -149 75l47 38q37 -53 102 -53t102 53zM283 653q-21 0 -37.5 12.5t-24.5 28t-19 28t-22 12.5q-15 0 -24.5 -19t-9.5 -56h-54q0 61 24 97.5t68 36.5q21 0 37 -12.5t24.5 -27.5t19.5 -27.5t22 -12.5q33 0 33 74h54
q0 -61 -23.5 -97.5t-67.5 -36.5z" />
    <glyph glyph-name="uni1EB6" unicode="&#x1eb6;" horiz-adv-x="536" 
d="M533 0h-120l-36 132h-219l-36 -132h-120l199 667h133zM355 230l-87 319l-87 -319h174zM269 -189q-23 0 -40 16.5t-17 39.5t17 40t40 17t39.5 -17t16.5 -40t-16.5 -39.5t-39.5 -16.5zM417 783q-55 -75 -149 -75q-92 0 -149 75l47 38q37 -53 102 -53t102 53z" />
    <glyph glyph-name="uni1EB7" unicode="&#x1eb7;" 
d="M408 0h-99v49q-44 -61 -127 -61q-62 0 -105 43.5t-43 117.5t43 115.5t105 41.5q85 0 127 -58v70q0 44 -24.5 68t-69.5 24q-66 0 -120 -55l-39 70q70 70 177 70q80 0 127.5 -40.5t47.5 -124.5v-330zM218 57q60 0 91 53v73q-14 25 -39 39.5t-52 14.5q-38 0 -61 -25t-23 -65
t23 -65t61 -25zM235 -189q-23 0 -40 16.5t-17 39.5t17 40t40 17t39.5 -17t16.5 -40t-16.5 -39.5t-39.5 -16.5zM382 616q-55 -75 -149 -75q-92 0 -149 75l47 38q37 -53 102 -53t102 53z" />
    <glyph glyph-name="uni1EB8" unicode="&#x1eb8;" horiz-adv-x="472" 
d="M429 0h-365v667h365v-97h-254v-181h247v-98h-247v-193h254v-98zM251 -189q-23 0 -40 16.5t-17 39.5t17 40t40 17t39.5 -17t16.5 -40t-16.5 -39.5t-39.5 -16.5z" />
    <glyph glyph-name="uni1EB9" unicode="&#x1eb9;" horiz-adv-x="474" 
d="M252 -12q-99 0 -158 70t-59 184q0 108 56.5 180.5t150.5 72.5q95 0 148 -72t53 -185v-29h-307q3 -62 36 -100.5t90 -38.5q65 0 109 52l48 -60q-65 -74 -167 -74zM346 280q-1 53 -26.5 93.5t-78.5 40.5q-51 0 -77 -41t-29 -93h211zM244 -189q-23 0 -40 16.5t-17 39.5
t17 40t40 17t39.5 -17t16.5 -40t-16.5 -39.5t-39.5 -16.5z" />
    <glyph glyph-name="uni1EBA" unicode="&#x1eba;" horiz-adv-x="472" 
d="M429 0h-365v667h365v-97h-254v-181h247v-98h-247v-193h254v-98zM212 757l-39 10q15 53 70 53q30 0 48.5 -16.5t18.5 -50.5q0 -28 -18 -56h-44q21 25 21 54q0 32 -27 32q-22 0 -30 -26z" />
    <glyph glyph-name="uni1EBB" unicode="&#x1ebb;" horiz-adv-x="474" 
d="M252 -12q-99 0 -158 70t-59 184q0 108 56.5 180.5t150.5 72.5q95 0 148 -72t53 -185v-29h-307q3 -62 36 -100.5t90 -38.5q65 0 109 52l48 -60q-65 -74 -167 -74zM346 280q-1 53 -26.5 93.5t-78.5 40.5q-51 0 -77 -41t-29 -93h211zM213 587l-39 10q15 53 70 53
q30 0 48.5 -16.5t18.5 -50.5q0 -28 -18 -56h-44q21 25 21 54q0 32 -27 32q-22 0 -30 -26z" />
    <glyph glyph-name="uni1EBC" unicode="&#x1ebc;" horiz-adv-x="472" 
d="M429 0h-365v667h365v-97h-254v-181h247v-98h-247v-193h254v-98zM296 721q-21 0 -37.5 12.5t-24.5 28t-19 28t-22 12.5q-15 0 -24.5 -19t-9.5 -56h-54q0 61 24 97.5t68 36.5q21 0 37 -12.5t24.5 -27.5t19.5 -27.5t22 -12.5q33 0 33 74h54q0 -61 -23.5 -97.5t-67.5 -36.5z
" />
    <glyph glyph-name="uni1EBD" unicode="&#x1ebd;" horiz-adv-x="474" 
d="M252 -12q-99 0 -158 70t-59 184q0 108 56.5 180.5t150.5 72.5q95 0 148 -72t53 -185v-29h-307q3 -62 36 -100.5t90 -38.5q65 0 109 52l48 -60q-65 -74 -167 -74zM346 280q-1 53 -26.5 93.5t-78.5 40.5q-51 0 -77 -41t-29 -93h211zM293 554q-21 0 -37.5 12.5t-24.5 28
t-19 28t-22 12.5q-15 0 -24.5 -19t-9.5 -56h-54q0 61 24 97.5t68 36.5q21 0 37 -12.5t24.5 -27.5t19.5 -27.5t22 -12.5q33 0 33 74h54q0 -61 -23.5 -97.5t-67.5 -36.5z" />
    <glyph glyph-name="uni1EBE" unicode="&#x1ebe;" horiz-adv-x="472" 
d="M375 682h-60l-67 73l-64 -73h-60l79 108h91zM549 844l-134 -108h-68l110 108h92zM429 0h-365v667h365v-97h-254v-181h247v-98h-247v-193h254v-98z" />
    <glyph glyph-name="uni1EBF" unicode="&#x1ebf;" horiz-adv-x="474" 
d="M369 556h-60l-67 97l-64 -97h-60l79 144h91zM538 771l-134 -144h-68l110 144h92zM252 -12q-99 0 -158 70t-59 184q0 108 56.5 180.5t150.5 72.5q95 0 148 -72t53 -185v-29h-307q3 -62 36 -100.5t90 -38.5q65 0 109 52l48 -60q-65 -74 -167 -74zM346 280q-1 53 -26.5 93.5
t-78.5 40.5q-51 0 -77 -41t-29 -93h211z" />
    <glyph glyph-name="uni1EC0" unicode="&#x1ec0;" horiz-adv-x="472" 
d="M375 682h-60l-67 73l-64 -73h-60l79 108h91zM429 0h-365v667h365v-97h-254v-181h247v-98h-247v-193h254v-98zM151 736h-68l-134 108h93z" />
    <glyph glyph-name="uni1EC1" unicode="&#x1ec1;" horiz-adv-x="474" 
d="M369 556h-60l-67 97l-64 -97h-60l79 144h91zM252 -12q-99 0 -158 70t-59 184q0 108 56.5 180.5t150.5 72.5q95 0 148 -72t53 -185v-29h-307q3 -62 36 -100.5t90 -38.5q65 0 109 52l48 -60q-65 -74 -167 -74zM346 280q-1 53 -26.5 93.5t-78.5 40.5q-51 0 -77 -41t-29 -93
h211zM146 627h-68l-134 144h93z" />
    <glyph glyph-name="uni1EC2" unicode="&#x1ec2;" horiz-adv-x="472" 
d="M375 682h-60l-67 73l-64 -73h-60l79 108h91zM429 0h-365v667h365v-97h-254v-181h247v-98h-247v-193h254v-98zM353 789l-39 8q15 39 70 39q30 0 48.5 -12.5t18.5 -37.5q0 -21 -18 -42h-44q21 20 21 41q0 24 -27 24q-22 0 -30 -20z" />
    <glyph glyph-name="uni1EC3" unicode="&#x1ec3;" horiz-adv-x="474" 
d="M368 556h-60l-67 97l-64 -97h-60l79 144h91zM252 -12q-99 0 -158 70t-59 184q0 108 56.5 180.5t150.5 72.5q95 0 148 -72t53 -185v-29h-307q3 -62 36 -100.5t90 -38.5q65 0 109 52l48 -60q-65 -74 -167 -74zM346 280q-1 53 -26.5 93.5t-78.5 40.5q-51 0 -77 -41t-29 -93
h211zM301 727l-39 10q15 53 70 53q30 0 48.5 -16.5t18.5 -50.5q0 -28 -18 -56h-44q21 25 21 54q0 32 -27 32q-22 0 -30 -26z" />
    <glyph glyph-name="uni1EC4" unicode="&#x1ec4;" horiz-adv-x="472" 
d="M374 678h-60l-67 48l-64 -48h-60l79 72h91zM429 0h-365v667h365v-97h-254v-181h247v-98h-247v-193h254v-98zM297 757q-35 0 -62 20t-41 20q-15 0 -24.5 -9.5t-9.5 -27.5h-54q0 30 24 48.5t68 18.5q34 0 61.5 -20t41.5 -20q33 0 33 37h54q0 -31 -23.5 -49t-67.5 -18z" />
    <glyph glyph-name="uni1EC5" unicode="&#x1ec5;" horiz-adv-x="474" 
d="M368 523h-60l-67 97l-64 -97h-60l79 144h91zM252 -12q-99 0 -158 70t-59 184q0 108 56.5 180.5t150.5 72.5q95 0 148 -72t53 -185v-29h-307q3 -62 36 -100.5t90 -38.5q65 0 109 52l48 -60q-65 -74 -167 -74zM346 280q-1 53 -26.5 93.5t-78.5 40.5q-51 0 -77 -41t-29 -93
h211zM293 682q-21 0 -37.5 12.5t-24.5 28t-19 28t-22 12.5q-15 0 -24.5 -19t-9.5 -56h-54q0 61 24 97.5t68 36.5q21 0 37 -12.5t24.5 -27.5t19.5 -27.5t22 -12.5q33 0 33 74h54q0 -61 -23.5 -97.5t-67.5 -36.5z" />
    <glyph glyph-name="uni1EC6" unicode="&#x1ec6;" horiz-adv-x="472" 
d="M373 723h-60l-67 97l-64 -97h-60l79 144h91zM429 0h-365v667h365v-97h-254v-181h247v-98h-247v-193h254v-98zM251 -189q-23 0 -40 16.5t-17 39.5t17 40t40 17t39.5 -17t16.5 -40t-16.5 -39.5t-39.5 -16.5z" />
    <glyph glyph-name="uni1EC7" unicode="&#x1ec7;" horiz-adv-x="474" 
d="M369 556h-60l-67 97l-64 -97h-60l79 144h91zM252 -12q-99 0 -158 70t-59 184q0 108 56.5 180.5t150.5 72.5q95 0 148 -72t53 -185v-29h-307q3 -62 36 -100.5t90 -38.5q65 0 109 52l48 -60q-65 -74 -167 -74zM346 280q-1 53 -26.5 93.5t-78.5 40.5q-51 0 -77 -41t-29 -93
h211zM244 -189q-23 0 -40 16.5t-17 39.5t17 40t40 17t39.5 -17t16.5 -40t-16.5 -39.5t-39.5 -16.5z" />
    <glyph glyph-name="uni1EC8" unicode="&#x1ec8;" horiz-adv-x="239" 
d="M175 0h-111v667h111v-667zM90 757l-39 10q15 53 70 53q30 0 48.5 -16.5t18.5 -50.5q0 -28 -18 -56h-44q21 25 21 54q0 32 -27 32q-22 0 -30 -26z" />
    <glyph glyph-name="uni1EC9" unicode="&#x1ec9;" horiz-adv-x="218" 
d="M159 0h-100v483h100v-483zM79 587l-39 10q15 53 70 53q30 0 48.5 -16.5t18.5 -50.5q0 -28 -18 -56h-44q21 25 21 54q0 32 -27 32q-22 0 -30 -26z" />
    <glyph glyph-name="uni1ECA" unicode="&#x1eca;" horiz-adv-x="239" 
d="M175 0h-111v667h111v-667zM121 -189q-23 0 -40 16.5t-17 39.5t17 40t40 17t39.5 -17t16.5 -40t-16.5 -39.5t-39.5 -16.5z" />
    <glyph glyph-name="uni1ECB" unicode="&#x1ecb;" horiz-adv-x="218" 
d="M109 544q-26 0 -44.5 18.5t-18.5 43.5q0 26 18.5 44.5t44.5 18.5t44 -18.5t18 -44.5t-18.5 -44t-43.5 -18zM159 0h-100v483h100v-483zM110 -189q-23 0 -40 16.5t-17 39.5t17 40t40 17t39.5 -17t16.5 -40t-16.5 -39.5t-39.5 -16.5z" />
    <glyph glyph-name="uni1ECC" unicode="&#x1ecc;" horiz-adv-x="612" 
d="M306 -12q-124 0 -195.5 97t-71.5 248t71.5 248t195.5 97t195.5 -97t71.5 -248t-71.5 -248t-195.5 -97zM306 87q72 0 113 69.5t41 176.5q0 108 -41 177.5t-113 69.5q-73 0 -113.5 -69t-40.5 -178q0 -108 40.5 -177t113.5 -69zM309 -189q-23 0 -40 16.5t-17 39.5t17 40
t40 17t39.5 -17t16.5 -40t-16.5 -39.5t-39.5 -16.5z" />
    <glyph glyph-name="uni1ECD" unicode="&#x1ecd;" horiz-adv-x="488" 
d="M244 -12q-98 0 -153.5 73t-55.5 181t55 180.5t154 72.5t154 -72.5t55 -180.5t-55.5 -181t-153.5 -73zM244 76q52 0 79 48t27 118t-27 117.5t-79 47.5t-79 -47.5t-27 -117.5t27 -118t79 -48zM245 -189q-23 0 -40 16.5t-17 39.5t17 40t40 17t39.5 -17t16.5 -40t-16.5 -39.5
t-39.5 -16.5z" />
    <glyph glyph-name="uni1ECE" unicode="&#x1ece;" horiz-adv-x="612" 
d="M306 -12q-124 0 -195.5 97t-71.5 248t71.5 248t195.5 97t195.5 -97t71.5 -248t-71.5 -248t-195.5 -97zM306 87q72 0 113 69.5t41 176.5q0 108 -41 177.5t-113 69.5q-73 0 -113.5 -69t-40.5 -178q0 -108 40.5 -177t113.5 -69zM276 757l-39 10q15 53 70 53q30 0 48.5 -16.5
t18.5 -50.5q0 -28 -18 -56h-44q21 25 21 54q0 32 -27 32q-22 0 -30 -26z" />
    <glyph glyph-name="uni1ECF" unicode="&#x1ecf;" horiz-adv-x="488" 
d="M244 -12q-98 0 -153.5 73t-55.5 181t55 180.5t154 72.5t154 -72.5t55 -180.5t-55.5 -181t-153.5 -73zM244 76q52 0 79 48t27 118t-27 117.5t-79 47.5t-79 -47.5t-27 -117.5t27 -118t79 -48zM215 587l-39 10q15 53 70 53q30 0 48.5 -16.5t18.5 -50.5q0 -28 -18 -56h-44
q21 25 21 54q0 32 -27 32q-22 0 -30 -26z" />
    <glyph glyph-name="uni1ED0" unicode="&#x1ed0;" horiz-adv-x="612" 
d="M429 682h-60l-67 73l-64 -73h-60l79 108h91zM603 844l-134 -108h-68l110 108h92zM306 -12q-124 0 -195.5 97t-71.5 248t71.5 248t195.5 97t195.5 -97t71.5 -248t-71.5 -248t-195.5 -97zM306 87q72 0 113 69.5t41 176.5q0 108 -41 177.5t-113 69.5q-73 0 -113.5 -69
t-40.5 -178q0 -108 40.5 -177t113.5 -69z" />
    <glyph glyph-name="uni1ED1" unicode="&#x1ed1;" horiz-adv-x="488" 
d="M370 556h-60l-67 97l-64 -97h-60l79 144h91zM539 771l-134 -144h-68l110 144h92zM244 -12q-98 0 -153.5 73t-55.5 181t55 180.5t154 72.5t154 -72.5t55 -180.5t-55.5 -181t-153.5 -73zM244 76q52 0 79 48t27 118t-27 117.5t-79 47.5t-79 -47.5t-27 -117.5t27 -118t79 -48
z" />
    <glyph glyph-name="uni1ED2" unicode="&#x1ed2;" horiz-adv-x="612" 
d="M427 682h-60l-67 73l-64 -73h-60l79 108h91zM306 -12q-124 0 -195.5 97t-71.5 248t71.5 248t195.5 97t195.5 -97t71.5 -248t-71.5 -248t-195.5 -97zM306 87q72 0 113 69.5t41 176.5q0 108 -41 177.5t-113 69.5q-73 0 -113.5 -69t-40.5 -178q0 -108 40.5 -177t113.5 -69z
M204 736h-68l-134 108h93z" />
    <glyph glyph-name="uni1ED3" unicode="&#x1ed3;" horiz-adv-x="488" 
d="M370 556h-60l-67 97l-64 -97h-60l79 144h91zM244 -12q-98 0 -153.5 73t-55.5 181t55 180.5t154 72.5t154 -72.5t55 -180.5t-55.5 -181t-153.5 -73zM244 76q52 0 79 48t27 118t-27 117.5t-79 47.5t-79 -47.5t-27 -117.5t27 -118t79 -48zM147 627h-68l-134 144h93z" />
    <glyph glyph-name="uni1ED4" unicode="&#x1ed4;" horiz-adv-x="612" 
d="M427 682h-60l-67 73l-64 -73h-60l79 108h91zM306 -12q-124 0 -195.5 97t-71.5 248t71.5 248t195.5 97t195.5 -97t71.5 -248t-71.5 -248t-195.5 -97zM306 87q72 0 113 69.5t41 176.5q0 108 -41 177.5t-113 69.5q-73 0 -113.5 -69t-40.5 -178q0 -108 40.5 -177t113.5 -69z
M405 789l-39 8q15 39 70 39q30 0 48.5 -12.5t18.5 -37.5q0 -21 -18 -42h-44q21 20 21 41q0 24 -27 24q-22 0 -30 -20z" />
    <glyph glyph-name="uni1ED5" unicode="&#x1ed5;" horiz-adv-x="488" 
d="M370 556h-60l-67 97l-64 -97h-60l79 144h91zM244 -12q-98 0 -153.5 73t-55.5 181t55 180.5t154 72.5t154 -72.5t55 -180.5t-55.5 -181t-153.5 -73zM244 76q52 0 79 48t27 118t-27 117.5t-79 47.5t-79 -47.5t-27 -117.5t27 -118t79 -48zM302 727l-39 10q15 53 70 53
q30 0 48.5 -16.5t18.5 -50.5q0 -28 -18 -56h-44q21 25 21 54q0 32 -27 32q-22 0 -30 -26z" />
    <glyph glyph-name="uni1ED6" unicode="&#x1ed6;" horiz-adv-x="612" 
d="M431 678h-60l-67 48l-64 -48h-60l79 72h91zM306 -12q-124 0 -195.5 97t-71.5 248t71.5 248t195.5 97t195.5 -97t71.5 -248t-71.5 -248t-195.5 -97zM306 87q72 0 113 69.5t41 176.5q0 108 -41 177.5t-113 69.5q-73 0 -113.5 -69t-40.5 -178q0 -108 40.5 -177t113.5 -69z
M354 757q-34 0 -62 20t-41 20q-15 0 -24.5 -9.5t-9.5 -27.5h-54q0 30 24 48.5t68 18.5q34 0 61.5 -20t41.5 -20q33 0 33 37h54q0 -31 -23.5 -49t-67.5 -18z" />
    <glyph glyph-name="uni1ED7" unicode="&#x1ed7;" horiz-adv-x="488" 
d="M370 523h-60l-67 97l-64 -97h-60l79 144h91zM244 -12q-98 0 -153.5 73t-55.5 181t55 180.5t154 72.5t154 -72.5t55 -180.5t-55.5 -181t-153.5 -73zM244 76q52 0 79 48t27 118t-27 117.5t-79 47.5t-79 -47.5t-27 -117.5t27 -118t79 -48zM294 682q-21 0 -37.5 12.5
t-24.5 28t-19 28t-22 12.5q-15 0 -24.5 -19t-9.5 -56h-54q0 61 24 97.5t68 36.5q21 0 37 -12.5t24.5 -27.5t19.5 -27.5t22 -12.5q33 0 33 74h54q0 -61 -23.5 -97.5t-67.5 -36.5z" />
    <glyph glyph-name="uni1ED8" unicode="&#x1ed8;" horiz-adv-x="612" 
d="M433 723h-60l-67 97l-64 -97h-60l79 144h91zM306 -12q-124 0 -195.5 97t-71.5 248t71.5 248t195.5 97t195.5 -97t71.5 -248t-71.5 -248t-195.5 -97zM306 87q72 0 113 69.5t41 176.5q0 108 -41 177.5t-113 69.5q-73 0 -113.5 -69t-40.5 -178q0 -108 40.5 -177t113.5 -69z
M309 -189q-23 0 -40 16.5t-17 39.5t17 40t40 17t39.5 -17t16.5 -40t-16.5 -39.5t-39.5 -16.5z" />
    <glyph glyph-name="uni1ED9" unicode="&#x1ed9;" horiz-adv-x="488" 
d="M370 556h-60l-67 97l-64 -97h-60l79 144h91zM244 -12q-98 0 -153.5 73t-55.5 181t55 180.5t154 72.5t154 -72.5t55 -180.5t-55.5 -181t-153.5 -73zM244 76q52 0 79 48t27 118t-27 117.5t-79 47.5t-79 -47.5t-27 -117.5t27 -118t79 -48zM244 -189q-23 0 -40 16.5t-17 39.5
t17 40t40 17t39.5 -17t16.5 -40t-16.5 -39.5t-39.5 -16.5z" />
    <glyph glyph-name="uni1EDA" unicode="&#x1eda;" horiz-adv-x="612" 
d="M457 867l-134 -144h-68l110 144h92zM306 -12q-124 0 -195.5 97t-71.5 248t71.5 248t195.5 97q127 0 201 -105q35 32 40 67q-2 -2 -12 -2q-19 0 -31 13t-12 33t14 34.5t35 14.5q23 0 39 -18.5t16 -49.5q0 -77 -67 -129q44 -90 44 -203q0 -151 -71.5 -248t-195.5 -97z
M306 87q72 0 113 69.5t41 176.5q0 108 -41 177.5t-113 69.5q-73 0 -113.5 -69t-40.5 -178q0 -108 40.5 -177t113.5 -69z" />
    <glyph glyph-name="uni1EDB" unicode="&#x1edb;" horiz-adv-x="488" 
d="M395 700l-134 -144h-68l110 144h92zM466 531q0 -70 -59 -122q46 -69 46 -167q0 -108 -55.5 -181t-153.5 -73t-153.5 73t-55.5 181t55 180.5t154 72.5q80 0 135 -53q34 32 38 64q-2 -2 -12 -2q-19 0 -31 13t-12 33t14 34.5t35 14.5q23 0 39 -18.5t16 -49.5zM244 76
q52 0 79 48t27 118t-27 117.5t-79 47.5t-79 -47.5t-27 -117.5t27 -118t79 -48z" />
    <glyph glyph-name="uni1EDC" unicode="&#x1edc;" horiz-adv-x="612" 
d="M306 -12q-124 0 -195.5 97t-71.5 248t71.5 248t195.5 97q127 0 201 -105q35 32 40 67q-2 -2 -12 -2q-19 0 -31 13t-12 33t14 34.5t35 14.5q23 0 39 -18.5t16 -49.5q0 -77 -67 -129q44 -90 44 -203q0 -151 -71.5 -248t-195.5 -97zM306 87q72 0 113 69.5t41 176.5
q0 108 -41 177.5t-113 69.5q-73 0 -113.5 -69t-40.5 -178q0 -108 40.5 -177t113.5 -69zM357 723h-68l-134 144h93z" />
    <glyph glyph-name="uni1EDD" unicode="&#x1edd;" horiz-adv-x="488" 
d="M466 531q0 -70 -59 -122q46 -69 46 -167q0 -108 -55.5 -181t-153.5 -73t-153.5 73t-55.5 181t55 180.5t154 72.5q80 0 135 -53q34 32 38 64q-2 -2 -12 -2q-19 0 -31 13t-12 33t14 34.5t35 14.5q23 0 39 -18.5t16 -49.5zM244 76q52 0 79 48t27 118t-27 117.5t-79 47.5
t-79 -47.5t-27 -117.5t27 -118t79 -48zM295 556h-68l-134 144h93z" />
    <glyph glyph-name="uni1EDE" unicode="&#x1ede;" horiz-adv-x="612" 
d="M306 -12q-124 0 -195.5 97t-71.5 248t71.5 248t195.5 97q127 0 201 -105q35 32 40 67q-2 -2 -12 -2q-19 0 -31 13t-12 33t14 34.5t35 14.5q23 0 39 -18.5t16 -49.5q0 -77 -67 -129q44 -90 44 -203q0 -151 -71.5 -248t-195.5 -97zM306 87q72 0 113 69.5t41 176.5
q0 108 -41 177.5t-113 69.5q-73 0 -113.5 -69t-40.5 -178q0 -108 40.5 -177t113.5 -69zM276 757l-39 10q15 53 70 53q30 0 48.5 -16.5t18.5 -50.5q0 -28 -18 -56h-44q21 25 21 54q0 32 -27 32q-22 0 -30 -26z" />
    <glyph glyph-name="uni1EDF" unicode="&#x1edf;" horiz-adv-x="488" 
d="M466 531q0 -70 -59 -122q46 -69 46 -167q0 -108 -55.5 -181t-153.5 -73t-153.5 73t-55.5 181t55 180.5t154 72.5q80 0 135 -53q34 32 38 64q-2 -2 -12 -2q-19 0 -31 13t-12 33t14 34.5t35 14.5q23 0 39 -18.5t16 -49.5zM244 76q52 0 79 48t27 118t-27 117.5t-79 47.5
t-79 -47.5t-27 -117.5t27 -118t79 -48zM215 587l-39 10q15 53 70 53q30 0 48.5 -16.5t18.5 -50.5q0 -28 -18 -56h-44q21 25 21 54q0 32 -27 32q-22 0 -30 -26z" />
    <glyph glyph-name="uni1EE0" unicode="&#x1ee0;" horiz-adv-x="612" 
d="M306 -12q-124 0 -195.5 97t-71.5 248t71.5 248t195.5 97q127 0 201 -105q35 32 40 67q-2 -2 -12 -2q-19 0 -31 13t-12 33t14 34.5t35 14.5q23 0 39 -18.5t16 -49.5q0 -77 -67 -129q44 -90 44 -203q0 -151 -71.5 -248t-195.5 -97zM306 87q72 0 113 69.5t41 176.5
q0 108 -41 177.5t-113 69.5q-73 0 -113.5 -69t-40.5 -178q0 -108 40.5 -177t113.5 -69zM357 721q-21 0 -37.5 12.5t-24.5 28t-19 28t-22 12.5q-15 0 -24.5 -19t-9.5 -56h-54q0 61 24 97.5t68 36.5q21 0 37 -12.5t24.5 -27.5t19.5 -27.5t22 -12.5q33 0 33 74h54
q0 -61 -23.5 -97.5t-67.5 -36.5z" />
    <glyph glyph-name="uni1EE1" unicode="&#x1ee1;" horiz-adv-x="488" 
d="M466 531q0 -70 -59 -122q46 -69 46 -167q0 -108 -55.5 -181t-153.5 -73t-153.5 73t-55.5 181t55 180.5t154 72.5q80 0 135 -53q34 32 38 64q-2 -2 -12 -2q-19 0 -31 13t-12 33t14 34.5t35 14.5q23 0 39 -18.5t16 -49.5zM244 76q52 0 79 48t27 118t-27 117.5t-79 47.5
t-79 -47.5t-27 -117.5t27 -118t79 -48zM286 554q-21 0 -37.5 12.5t-24.5 28t-19 28t-22 12.5q-15 0 -24.5 -19t-9.5 -56h-54q0 61 24 97.5t68 36.5q21 0 37 -12.5t24.5 -27.5t19.5 -27.5t22 -12.5q33 0 33 74h54q0 -61 -23.5 -97.5t-67.5 -36.5z" />
    <glyph glyph-name="uni1EE2" unicode="&#x1ee2;" horiz-adv-x="612" 
d="M306 -12q-124 0 -195.5 97t-71.5 248t71.5 248t195.5 97q127 0 201 -105q35 32 40 67q-2 -2 -12 -2q-19 0 -31 13t-12 33t14 34.5t35 14.5q23 0 39 -18.5t16 -49.5q0 -77 -67 -129q44 -90 44 -203q0 -151 -71.5 -248t-195.5 -97zM306 87q72 0 113 69.5t41 176.5
q0 108 -41 177.5t-113 69.5q-73 0 -113.5 -69t-40.5 -178q0 -108 40.5 -177t113.5 -69zM309 -189q-23 0 -40 16.5t-17 39.5t17 40t40 17t39.5 -17t16.5 -40t-16.5 -39.5t-39.5 -16.5z" />
    <glyph glyph-name="uni1EE3" unicode="&#x1ee3;" horiz-adv-x="488" 
d="M466 531q0 -70 -59 -122q46 -69 46 -167q0 -108 -55.5 -181t-153.5 -73t-153.5 73t-55.5 181t55 180.5t154 72.5q80 0 135 -53q34 32 38 64q-2 -2 -12 -2q-19 0 -31 13t-12 33t14 34.5t35 14.5q23 0 39 -18.5t16 -49.5zM244 76q52 0 79 48t27 118t-27 117.5t-79 47.5
t-79 -47.5t-27 -117.5t27 -118t79 -48zM245 -189q-23 0 -40 16.5t-17 39.5t17 40t40 17t39.5 -17t16.5 -40t-16.5 -39.5t-39.5 -16.5z" />
    <glyph glyph-name="uni1EE4" unicode="&#x1ee4;" horiz-adv-x="592" 
d="M296 -12q-109 0 -170.5 62t-61.5 174v443h111v-444q0 -66 31.5 -101.5t89.5 -35.5t89.5 35.5t31.5 101.5v444h111v-443q0 -112 -61.5 -174t-170.5 -62zM299 -189q-23 0 -40 16.5t-17 39.5t17 40t40 17t39.5 -17t16.5 -40t-16.5 -39.5t-39.5 -16.5z" />
    <glyph glyph-name="uni1EE5" unicode="&#x1ee5;" horiz-adv-x="485" 
d="M426 0h-100v64q-22 -32 -59.5 -54t-81.5 -22q-126 0 -126 130v365h100v-330q0 -77 69 -77q30 0 56.5 19t41.5 47v341h100v-483zM244 -189q-23 0 -40 16.5t-17 39.5t17 40t40 17t39.5 -17t16.5 -40t-16.5 -39.5t-39.5 -16.5z" />
    <glyph glyph-name="uni1EE6" unicode="&#x1ee6;" horiz-adv-x="592" 
d="M296 -12q-109 0 -170.5 62t-61.5 174v443h111v-444q0 -66 31.5 -101.5t89.5 -35.5t89.5 35.5t31.5 101.5v444h111v-443q0 -112 -61.5 -174t-170.5 -62zM267 757l-39 10q15 53 70 53q30 0 48.5 -16.5t18.5 -50.5q0 -28 -18 -56h-44q21 25 21 54q0 32 -27 32q-22 0 -30 -26
z" />
    <glyph glyph-name="uni1EE7" unicode="&#x1ee7;" horiz-adv-x="485" 
d="M426 0h-100v64q-22 -32 -59.5 -54t-81.5 -22q-126 0 -126 130v365h100v-330q0 -77 69 -77q30 0 56.5 19t41.5 47v341h100v-483zM213 587l-39 10q15 53 70 53q30 0 48.5 -16.5t18.5 -50.5q0 -28 -18 -56h-44q21 25 21 54q0 32 -27 32q-22 0 -30 -26z" />
    <glyph glyph-name="uni1EE8" unicode="&#x1ee8;" horiz-adv-x="592" 
d="M447 867l-134 -144h-68l110 144h92zM631 728q0 -45 -27 -85.5t-76 -65.5v-353q0 -112 -61.5 -174t-170.5 -62t-170.5 62t-61.5 174v443h111v-444q0 -66 31.5 -101.5t89.5 -35.5t89.5 35.5t31.5 101.5v444h111v-43q47 33 54 79q-4 -2 -12 -2q-19 0 -31 13t-12 33t14 34
t34 14q24 0 40 -18t16 -49z" />
    <glyph glyph-name="uni1EE9" unicode="&#x1ee9;" horiz-adv-x="485" 
d="M393 700l-134 -144h-68l110 144h92zM426 0h-100v64q-22 -32 -59.5 -54t-81.5 -22q-126 0 -126 130v365h100v-330q0 -77 69 -77q30 0 56.5 19t41.5 47v341h100v-24q26 30 29 56l-5 -1h-7q-19 0 -31.5 12.5t-12.5 32.5t14.5 34.5t34.5 14.5q24 0 40 -18t16 -49
q0 -82 -78 -136v-405z" />
    <glyph glyph-name="uni1EEA" unicode="&#x1eea;" horiz-adv-x="592" 
d="M347 723h-68l-134 144h93zM631 728q0 -45 -27 -85.5t-76 -65.5v-353q0 -112 -61.5 -174t-170.5 -62t-170.5 62t-61.5 174v443h111v-444q0 -66 31.5 -101.5t89.5 -35.5t89.5 35.5t31.5 101.5v444h111v-43q47 33 54 79q-4 -2 -12 -2q-19 0 -31 13t-12 33t14 34t34 14
q24 0 40 -18t16 -49z" />
    <glyph glyph-name="uni1EEB" unicode="&#x1eeb;" horiz-adv-x="485" 
d="M293 556h-68l-134 144h93zM426 0h-100v64q-22 -32 -59.5 -54t-81.5 -22q-126 0 -126 130v365h100v-330q0 -77 69 -77q30 0 56.5 19t41.5 47v341h100v-24q26 30 29 56l-5 -1h-7q-19 0 -31.5 12.5t-12.5 32.5t14.5 34.5t34.5 14.5q24 0 40 -18t16 -49q0 -82 -78 -136v-405z
" />
    <glyph glyph-name="uni1EEC" unicode="&#x1eec;" horiz-adv-x="592" 
d="M267 757l-39 10q15 53 70 53q30 0 48.5 -16.5t18.5 -50.5q0 -28 -18 -56h-44q21 25 21 54q0 32 -27 32q-22 0 -30 -26zM631 728q0 -45 -27 -85.5t-76 -65.5v-353q0 -112 -61.5 -174t-170.5 -62t-170.5 62t-61.5 174v443h111v-444q0 -66 31.5 -101.5t89.5 -35.5t89.5 35.5
t31.5 101.5v444h111v-43q47 33 54 79q-4 -2 -12 -2q-19 0 -31 13t-12 33t14 34t34 14q24 0 40 -18t16 -49z" />
    <glyph glyph-name="uni1EED" unicode="&#x1eed;" horiz-adv-x="485" 
d="M213 587l-39 10q15 53 70 53q30 0 48.5 -16.5t18.5 -50.5q0 -28 -18 -56h-44q21 25 21 54q0 32 -27 32q-22 0 -30 -26zM426 0h-100v64q-22 -32 -59.5 -54t-81.5 -22q-126 0 -126 130v365h100v-330q0 -77 69 -77q30 0 56.5 19t41.5 47v341h100v-24q26 30 29 56l-5 -1h-7
q-19 0 -31.5 12.5t-12.5 32.5t14.5 34.5t34.5 14.5q24 0 40 -18t16 -49q0 -82 -78 -136v-405z" />
    <glyph glyph-name="uni1EEE" unicode="&#x1eee;" horiz-adv-x="592" 
d="M631 728q0 -45 -27 -85.5t-76 -65.5v-353q0 -112 -61.5 -174t-170.5 -62t-170.5 62t-61.5 174v443h111v-444q0 -66 31.5 -101.5t89.5 -35.5t89.5 35.5t31.5 101.5v444h111v-43q47 33 54 79q-4 -2 -12 -2q-19 0 -31 13t-12 33t14 34t34 14q24 0 40 -18t16 -49zM346 721
q-21 0 -37.5 12.5t-24.5 28t-19 28t-22 12.5q-15 0 -24.5 -19t-9.5 -56h-54q0 61 24 97.5t68 36.5q21 0 37 -12.5t24.5 -27.5t19.5 -27.5t22 -12.5q33 0 33 74h54q0 -61 -23.5 -97.5t-67.5 -36.5z" />
    <glyph glyph-name="uni1EEF" unicode="&#x1eef;" horiz-adv-x="485" 
d="M426 0h-100v64q-22 -32 -59.5 -54t-81.5 -22q-126 0 -126 130v365h100v-330q0 -77 69 -77q30 0 56.5 19t41.5 47v341h100v-24q26 30 29 56l-5 -1h-7q-19 0 -31.5 12.5t-12.5 32.5t14.5 34.5t34.5 14.5q24 0 40 -18t16 -49q0 -82 -78 -136v-405zM293 554q-21 0 -37.5 12.5
t-24.5 28t-19 28t-22 12.5q-15 0 -24.5 -19t-9.5 -56h-54q0 61 24 97.5t68 36.5q21 0 37 -12.5t24.5 -27.5t19.5 -27.5t22 -12.5q33 0 33 74h54q0 -61 -23.5 -97.5t-67.5 -36.5z" />
    <glyph glyph-name="uni1EF0" unicode="&#x1ef0;" horiz-adv-x="592" 
d="M299 -189q-23 0 -40 16.5t-17 39.5t17 40t40 17t39.5 -17t16.5 -40t-16.5 -39.5t-39.5 -16.5zM631 728q0 -45 -27 -85.5t-76 -65.5v-353q0 -112 -61.5 -174t-170.5 -62t-170.5 62t-61.5 174v443h111v-444q0 -66 31.5 -101.5t89.5 -35.5t89.5 35.5t31.5 101.5v444h111v-43
q47 33 54 79q-4 -2 -12 -2q-19 0 -31 13t-12 33t14 34t34 14q24 0 40 -18t16 -49z" />
    <glyph glyph-name="uni1EF1" unicode="&#x1ef1;" horiz-adv-x="485" 
d="M244 -189q-23 0 -40 16.5t-17 39.5t17 40t40 17t39.5 -17t16.5 -40t-16.5 -39.5t-39.5 -16.5zM426 0h-100v64q-22 -32 -59.5 -54t-81.5 -22q-126 0 -126 130v365h100v-330q0 -77 69 -77q30 0 56.5 19t41.5 47v341h100v-24q26 30 29 56l-5 -1h-7q-19 0 -31.5 12.5
t-12.5 32.5t14.5 34.5t34.5 14.5q24 0 40 -18t16 -49q0 -82 -78 -136v-405z" />
    <glyph glyph-name="Ygrave" unicode="&#x1ef2;" horiz-adv-x="521" 
d="M316 0h-110v278l-207 389h123l139 -285l139 285h122l-206 -389v-278zM312 723h-68l-134 144h93z" />
    <glyph glyph-name="ygrave" unicode="&#x1ef3;" horiz-adv-x="430" 
d="M42 -189l15 88q13 -7 32 -7q40 0 55 40l20 58l-162 493h106l107 -363l108 363h106l-191 -574q-19 -58 -53.5 -81.5t-88.5 -23.5q-31 0 -54 7zM266 556h-68l-134 144h93z" />
    <glyph glyph-name="thinspace" unicode="&#x2009;" horiz-adv-x="42" 
 />
    <glyph glyph-name="endash" unicode="&#x2013;" horiz-adv-x="527" 
d="M497 199h-467v86h467v-86z" />
    <glyph glyph-name="emdash" unicode="&#x2014;" horiz-adv-x="737" 
d="M707 199h-677v86h677v-86z" />
    <glyph glyph-name="afii00208" unicode="&#x2015;" horiz-adv-x="527" 
d="M497 199h-467v86h467v-86z" />
    <glyph glyph-name="quoteleft" unicode="&#x2018;" horiz-adv-x="243" 
d="M47 511q0 50 25 93.5t66 72.5l46 -36q-25 -16 -46 -42.5t-25 -51.5q6 2 16 2q25 0 41.5 -17t16.5 -44q0 -26 -19.5 -45.5t-46.5 -19.5q-31 0 -52.5 24t-21.5 64z" />
    <glyph glyph-name="quoteright" unicode="&#x2019;" horiz-adv-x="243" 
d="M194 589q0 -50 -25 -94t-67 -73l-45 37q25 15 45.5 42t25.5 52q-9 -3 -16 -3q-25 0 -41.5 17.5t-16.5 43.5q0 27 19 46.5t46 19.5q31 0 53 -24t22 -64z" />
    <glyph glyph-name="quotesinglbase" unicode="&#x201a;" horiz-adv-x="242" 
d="M194 35q0 -50 -25 -94t-67 -73l-45 37q25 15 45.5 42t25.5 52q-6 -2 -16 -2q-25 0 -41.5 17t-16.5 44t19 46.5t46 19.5q31 0 53 -24t22 -65z" />
    <glyph glyph-name="quotereversed" unicode="&#x201b;" horiz-adv-x="243" 
d="M49 589q0 40 22 64t53 24q27 0 46 -19.5t19 -46.5q0 -26 -16.5 -43.5t-41.5 -17.5q-7 0 -16 3q5 -25 25.5 -52t45.5 -42l-46 -37q-41 30 -66 74t-25 93z" />
    <glyph glyph-name="quotedblleft" unicode="&#x201c;" horiz-adv-x="423" 
d="M49 511q0 50 25 93.5t66 72.5l46 -36q-25 -16 -46 -42.5t-25 -51.5q4 2 16 2q24 0 40.5 -17t16.5 -44t-19 -46t-46 -19q-31 0 -52.5 24t-21.5 64zM229 511q0 50 25 93.5t66 72.5l46 -36q-25 -16 -45.5 -42.5t-24.5 -51.5q4 2 16 2q24 0 40.5 -17t16.5 -44
q0 -26 -19 -45.5t-46 -19.5q-31 0 -53 24t-22 64z" />
    <glyph glyph-name="quotedblright" unicode="&#x201d;" horiz-adv-x="423" 
d="M374 589q0 -49 -25 -93t-66 -74l-46 37q25 16 46 42.5t25 51.5q-9 -3 -16 -3q-25 0 -41.5 17.5t-16.5 43.5q0 27 19.5 46.5t46.5 19.5q31 0 52.5 -24t21.5 -64zM194 589q0 -50 -25 -94t-67 -73l-45 37q25 15 45.5 42t25.5 52q-9 -3 -16 -3q-25 0 -41.5 17.5t-16.5 43.5
q0 27 19 46.5t46 19.5q31 0 53 -24t22 -64z" />
    <glyph glyph-name="quotedblbase" unicode="&#x201e;" horiz-adv-x="423" 
d="M194 35q0 -50 -25 -94t-67 -73l-45 37q25 15 45.5 42t25.5 52q-6 -2 -16 -2q-25 0 -41.5 17t-16.5 44t19 46.5t46 19.5q31 0 53 -24t22 -65zM374 35q0 -49 -25 -93t-66 -74l-46 37q25 16 46 42.5t25 51.5q-6 -2 -16 -2q-25 0 -41.5 17t-16.5 44t19.5 46.5t46.5 19.5
q31 0 52.5 -24t21.5 -65z" />
    <glyph glyph-name="dagger" unicode="&#x2020;" horiz-adv-x="270" 
d="M248 527l-89 4l4 -204h-57l5 204l-89 -4v52l89 -3l-5 101h57l-4 -101l89 3v-52z" />
    <glyph glyph-name="daggerdbl" unicode="&#x2021;" horiz-adv-x="270" 
d="M248 579v-52l-89 4v-204l89 4v-52l-89 3l4 -102h-57l4 102l-88 -3v52l88 -4v204l-88 -4v52l88 -3l-4 101h57l-4 -101z" />
    <glyph glyph-name="bullet" unicode="&#x2022;" horiz-adv-x="358" 
d="M293 242q0 -46 -33 -79t-80 -33q-46 0 -79.5 33t-33.5 79q0 47 33 80t80 33t80 -33t33 -80z" />
    <glyph glyph-name="ellipsis" unicode="&#x2026;" horiz-adv-x="726" 
d="M188 57q0 -27 -20 -47.5t-48 -20.5q-27 0 -46.5 20.5t-19.5 47.5t19.5 47t46.5 20q28 0 48 -20t20 -47zM430 57q0 -27 -20 -47.5t-48 -20.5q-27 0 -46.5 20.5t-19.5 47.5t19.5 47t46.5 20q28 0 48 -20t20 -47zM672 57q0 -27 -20 -47.5t-48 -20.5q-27 0 -46.5 20.5
t-19.5 47.5t19.5 47t46.5 20q28 0 48 -20t20 -47z" />
    <glyph glyph-name="perthousand" unicode="&#x2030;" horiz-adv-x="980" 
d="M318 511q0 -71 -40.5 -117.5t-105.5 -46.5t-105.5 46.5t-40.5 117.5q0 72 40.5 119t105.5 47t105.5 -47t40.5 -119zM537 667l-352 -667h-56l351 667h57zM637 152q0 -71 -40.5 -117.5t-105.5 -46.5t-105 46.5t-40 117.5q0 72 40 119.5t105 47.5t105.5 -47.5t40.5 -119.5z
M246 511q0 47 -20 76t-54 29t-54 -29t-20 -76q0 -46 20.5 -75t53.5 -29t53.5 29t20.5 75zM566 152q0 47 -20.5 76.5t-54.5 29.5t-54 -29t-20 -77q0 -46 20 -74.5t54 -28.5t54.5 28.5t20.5 74.5zM954 152q0 -71 -40.5 -117.5t-105.5 -46.5t-105 46.5t-40 117.5q0 72 40 119.5
t105 47.5t105.5 -47.5t40.5 -119.5zM883 152q0 47 -20.5 76.5t-54.5 29.5t-54 -29t-20 -77q0 -46 20 -74.5t54 -28.5t54.5 28.5t20.5 74.5z" />
    <glyph glyph-name="guilsinglleft" unicode="&#x2039;" horiz-adv-x="272" 
d="M242 63h-87l-125 180l125 177h87l-125 -177z" />
    <glyph glyph-name="guilsinglright" unicode="&#x203a;" horiz-adv-x="272" 
d="M242 243l-125 -180h-87l125 180l-125 177h87z" />
    <glyph glyph-name="uni203E" unicode="&#x203e;" horiz-adv-x="309" 
d="M309 567h-309v60h309v-60z" />
    <glyph glyph-name="fraction" unicode="&#x2044;" horiz-adv-x="138" 
d="M273 667l-352 -667h-57l352 667h57z" />
    <glyph glyph-name="zerosuperior" unicode="&#x2070;" horiz-adv-x="337" 
d="M315 621q0 -85 -37 -146t-109 -61q-73 0 -110 61t-37 146t37 145.5t110 60.5q72 0 109 -60.5t37 -145.5zM237 621q0 144 -68 144q-69 0 -69 -144q0 -145 69 -145q68 0 68 145z" />
    <glyph glyph-name="foursuperior" unicode="&#x2074;" horiz-adv-x="337" 
d="M316 515h-45v-94h-76v94h-171v57l147 249h100v-245h45v-61zM195 576v170l-100 -170h100z" />
    <glyph glyph-name="fivesuperior" unicode="&#x2075;" horiz-adv-x="337" 
d="M308 550q0 -60 -39 -98t-104 -38q-91 0 -137 65l46 48q34 -51 90 -51q31 0 49 21t18 51q0 34 -17 53t-47 19q-43 0 -73 -39l-55 19v221h246v-62h-169v-116q29 34 79 34q48 0 80.5 -33.5t32.5 -93.5z" />
    <glyph glyph-name="sixsuperior" unicode="&#x2076;" horiz-adv-x="337" 
d="M312 549q0 -58 -37.5 -96.5t-97.5 -38.5q-77 0 -114.5 58t-37.5 149q0 92 43 149t121 57q65 0 106 -43l-36 -53q-28 34 -69 34t-64 -37t-23 -90v-11q33 54 92 54q50 0 83.5 -35t33.5 -97zM235 547q0 37 -18.5 55t-45.5 18q-40 0 -68 -46q7 -98 70 -98q29 0 45.5 21.5
t16.5 49.5z" />
    <glyph glyph-name="sevensuperior" unicode="&#x2077;" horiz-adv-x="311" 
d="M287 768l-133 -347h-80l135 338h-187v62h265v-53z" />
    <glyph glyph-name="eightsuperior" unicode="&#x2078;" horiz-adv-x="337" 
d="M310 523q0 -52 -39.5 -80.5t-102.5 -28.5q-62 0 -102 28t-40 81q0 36 25 65t61 39q-34 11 -56.5 36t-22.5 60q0 52 40 78t95 26q56 0 96 -26t40 -78q0 -35 -22.5 -60t-55.5 -36q35 -10 59.5 -39t24.5 -65zM229 712q0 26 -16.5 40.5t-44.5 14.5q-27 0 -43 -14.5t-16 -40.5
q0 -19 13 -33t24.5 -19.5t21.5 -7.5q11 2 23 7.5t25 19.5t13 33zM234 531q0 30 -24 48.5t-42 20.5q-18 -3 -41.5 -21.5t-23.5 -48.5q0 -27 18.5 -42t46.5 -15t47 15.5t19 42.5z" />
    <glyph glyph-name="ninesuperior" unicode="&#x2079;" horiz-adv-x="337" 
d="M26 692q0 58 37.5 96.5t97.5 38.5q77 0 114.5 -58t37.5 -149q0 -92 -43 -149t-121 -57q-65 0 -106 44l37 53q26 -35 68 -35q40 0 63.5 37t23.5 91v11q-14 -23 -38.5 -39t-53.5 -16q-50 0 -83.5 35t-33.5 97zM103 695q0 -38 18.5 -56t45.5 -18q42 0 68 47q-2 39 -18.5 68
t-50.5 29q-29 0 -46 -21.5t-17 -48.5z" />
    <glyph glyph-name="parenleftsuperior" unicode="&#x207d;" horiz-adv-x="164" 
d="M152 374l-43 -18q-83 113 -83 265q0 150 83 265l43 -18q-55 -117 -55 -247q0 -131 55 -247z" />
    <glyph glyph-name="parenrightsuperior" unicode="&#x207e;" horiz-adv-x="164" 
d="M142 621q0 -152 -83 -265l-43 18q56 118 56 247t-56 247l43 18q83 -113 83 -265z" />
    <glyph glyph-name="nsuperior" unicode="&#x207f;" horiz-adv-x="354" 
d="M306 326h-74v208q0 52 -46 52q-39 0 -64 -41v-219h-74v314h74v-41q14 20 40 34.5t55 14.5q89 0 89 -91v-231z" />
    <glyph glyph-name="zeroinferior" unicode="&#x2080;" horiz-adv-x="337" 
d="M315 54q0 -85 -37 -146t-109 -61q-73 0 -110 61t-37 146t37 145.5t110 60.5q72 0 109 -60.5t37 -145.5zM237 54q0 144 -68 144q-69 0 -69 -144q0 -145 69 -145q68 0 68 145z" />
    <glyph glyph-name="oneinferior" unicode="&#x2081;" horiz-adv-x="248" 
d="M194 -146h-77v301l-62 -64l-44 46l117 117h66v-400z" />
    <glyph glyph-name="twoinferior" unicode="&#x2082;" horiz-adv-x="337" 
d="M307 -146h-268v57q117 106 153 149t36 80q0 27 -18 42.5t-45 15.5q-59 0 -90 -50l-44 47q50 65 137 65q60 0 98 -30.5t38 -85.5q0 -46 -35.5 -93.5t-125.5 -134.5h164v-62z" />
    <glyph glyph-name="threeinferior" unicode="&#x2083;" horiz-adv-x="337" 
d="M308 -36q0 -52 -38 -84.5t-103 -32.5q-96 0 -140 65l44 47q37 -50 93 -50q33 0 50.5 16t17.5 44q0 59 -76 59q-30 0 -36 -1v62q7 -1 34 -1q72 0 72 55q0 27 -17.5 41t-47.5 14q-51 0 -87 -45l-43 44q50 63 136 63q62 0 98.5 -28.5t36.5 -79.5q0 -35 -23 -60.5t-55 -30.5
q32 -4 58 -30.5t26 -66.5z" />
    <glyph glyph-name="fourinferior" unicode="&#x2084;" horiz-adv-x="337" 
d="M316 -52h-45v-94h-76v94h-171v57l147 249h100v-245h45v-61zM195 9v170l-100 -170h100z" />
    <glyph glyph-name="fiveinferior" unicode="&#x2085;" horiz-adv-x="337" 
d="M308 -17q0 -60 -39 -98t-104 -38q-91 0 -137 65l46 48q34 -51 90 -51q31 0 49 21t18 51q0 34 -17 53t-47 19q-43 0 -73 -39l-55 19v221h246v-62h-169v-116q29 34 79 34q48 0 80.5 -33.5t32.5 -93.5z" />
    <glyph glyph-name="sixinferior" unicode="&#x2086;" horiz-adv-x="337" 
d="M312 -18q0 -58 -37.5 -96.5t-97.5 -38.5q-77 0 -114.5 58t-37.5 149q0 92 43 149t121 57q65 0 106 -43l-36 -53q-28 34 -69 34t-64 -37t-23 -90v-11q33 54 92 54q50 0 83.5 -35t33.5 -97zM235 -20q0 37 -18.5 55t-45.5 18q-40 0 -68 -46q7 -98 70 -98q29 0 45.5 21.5
t16.5 49.5z" />
    <glyph glyph-name="seveninferior" unicode="&#x2087;" horiz-adv-x="311" 
d="M287 201l-133 -347h-80l135 338h-187v62h265v-53z" />
    <glyph glyph-name="eightinferior" unicode="&#x2088;" horiz-adv-x="337" 
d="M310 -44q0 -52 -39.5 -80.5t-102.5 -28.5q-62 0 -102 28t-40 81q0 36 25 65t61 39q-34 11 -56.5 36t-22.5 60q0 52 40 78t95 26q56 0 96 -26t40 -78q0 -35 -22.5 -60t-55.5 -36q35 -10 59.5 -39t24.5 -65zM229 145q0 26 -16.5 40.5t-44.5 14.5q-27 0 -43 -14.5t-16 -40.5
q0 -19 13 -33t24.5 -19.5t21.5 -7.5q11 2 23 7.5t25 19.5t13 33zM234 -36q0 30 -24 48.5t-42 20.5q-18 -3 -41.5 -21.5t-23.5 -48.5q0 -27 18.5 -42t46.5 -15t47 15.5t19 42.5z" />
    <glyph glyph-name="nineinferior" unicode="&#x2089;" horiz-adv-x="337" 
d="M26 125q0 58 37.5 96.5t97.5 38.5q77 0 114.5 -58t37.5 -149q0 -92 -43 -149t-121 -57q-65 0 -106 44l37 53q26 -35 68 -35q40 0 63.5 37t23.5 91v11q-14 -23 -38.5 -39t-53.5 -16q-50 0 -83.5 35t-33.5 97zM103 128q0 -38 18.5 -56t45.5 -18q42 0 68 47q-2 39 -18.5 68
t-50.5 29q-29 0 -46 -21.5t-17 -48.5z" />
    <glyph glyph-name="parenleftinferior" unicode="&#x208d;" horiz-adv-x="164" 
d="M152 -193l-43 -18q-83 113 -83 265q0 150 83 265l43 -18q-55 -117 -55 -247q0 -131 55 -247z" />
    <glyph glyph-name="parenrightinferior" unicode="&#x208e;" horiz-adv-x="164" 
d="M142 54q0 -152 -83 -265l-43 18q56 118 56 247t-56 247l43 18q83 -113 83 -265z" />
    <glyph glyph-name="colonmonetary" unicode="&#x20a1;" horiz-adv-x="541" 
d="M311 -12q-3 0 -7 0.5t-6 0.5l-24 -89h-60l27 98q-29 8 -54 21l-31 -119h-59l40 157q-98 98 -98 276q0 151 72 247t194 98l25 90h60l-26 -96q28 -6 53 -20l31 116h59l-41 -153q31 -32 56 -84l-89 -40l-108 -404q74 10 106 98l92 -41q-68 -156 -212 -156zM216 128
q24 -24 51 -34l122 455q-25 21 -51 27zM152 333q0 -80 23 -138l103 381q-59 -16 -92.5 -82t-33.5 -161z" />
    <glyph glyph-name="frenchfranc" unicode="&#x20a3;" horiz-adv-x="476" 
d="M187 0h-111v124h-62v60h62v483h365v-97h-254v-181h247v-98h-247v-107h134v-60h-134v-124z" />
    <glyph glyph-name="lira" unicode="&#x20a4;" horiz-adv-x="471" 
d="M26 331v55h42q-21 46 -21 92q0 84 61 141.5t144 57.5q68 0 116.5 -31t69.5 -89l-88 -46q-11 34 -34 54.5t-55 20.5q-40 0 -67.5 -30t-27.5 -80q0 -48 23 -90h139v-55h-107q16 -32 21 -62h86v-55h-85q-11 -65 -63 -104q20 8 44 8q28 0 62 -16t56 -16q51 0 78 35l39 -87
q-40 -47 -124 -47q-42 0 -85.5 22t-68.5 22q-41 0 -99 -38l-37 78q46 25 73.5 62.5t27.5 77.5v3h-120v55h108q-8 18 -35 62h-73z" />
    <glyph glyph-name="uni20A6" unicode="&#x20a6;" horiz-adv-x="616" 
d="M540 0h-106l-135 236h-112v-236h-111v236h-62v60h62v81h-62v60h62v230h112l132 -230h109v230h111v-230h60v-60h-60v-81h60v-60h-60v-236zM187 377v-81h77l-46 81h-31zM355 377l46 -81h28v81h-74z" />
    <glyph glyph-name="peseta" unicode="&#x20a7;" horiz-adv-x="565" 
d="M556 428h-58q-10 -78 -60 -127t-135 -49h-116v-252h-111v428h-62v63h62v176h227q85 0 135 -49.5t60 -126.5h58v-63zM187 570v-79h197q-8 36 -33 57.5t-61 21.5h-103zM290 350q36 0 60.5 21t32.5 57h-196v-78h103z" />
    <glyph glyph-name="rupee" unicode="&#x20a8;" horiz-adv-x="891" 
d="M688 -12q-113 0 -177 69l45 70q23 -25 58.5 -42.5t71.5 -17.5q37 0 58.5 17t21.5 46q0 25 -24.5 42t-60 29t-70.5 27.5t-59.5 48t-24.5 80.5q0 59 44.5 98.5t121.5 39.5q95 0 159 -62l-42 -68q-42 51 -115 51q-33 0 -53.5 -16t-20.5 -40q0 -20 18 -34.5t44.5 -22.5
t57.5 -21.5t57.5 -29.5t44.5 -47t18 -73q0 -63 -47.5 -103.5t-125.5 -40.5zM494 0h-124l-113 252h-82v-252h-111v667h230q86 0 140 -57t54 -149q0 -81 -36 -128.5t-87 -61.5zM278 350q44 0 70.5 30t26.5 80t-26.5 80t-70.5 30h-103v-220h103z" />
    <glyph glyph-name="uni20A9" unicode="&#x20a9;" horiz-adv-x="761" 
d="M592 0h-116l-48 237h-96l-47 -237h-116l-54 237h-93v59h80l-19 81h-61v60h48l-52 230h119l44 -230h107l48 230h89l48 -230h107l44 230h119l-52 -230h45v-60h-59l-18 -81h77v-59h-91zM485 377l17 -81h51l16 81h-84zM193 377l15 -81h51l17 81h-83zM359 377l-16 -81h73
l-16 81h-41zM220 237l13 -68l14 68h-27zM515 237l14 -68l13 68h-27zM380 479l-9 -42h17z" />
    <glyph glyph-name="afii57636" unicode="&#x20aa;" horiz-adv-x="684" 
d="M431 0h-213v387h86v-307h127q56 0 82 27.5t26 86.5v356h86v-342q0 -107 -47 -157.5t-147 -50.5zM273 550q100 0 146.5 -50.5t46.5 -157.5v-180h-86v194q0 59 -26 86.5t-81 27.5h-128v-470h-86v550h214z" />
    <glyph glyph-name="dong" unicode="&#x20ab;" horiz-adv-x="502" 
d="M411 -156h-309v60h309v-60zM435 0h-100v64q-22 -36 -55 -56t-69 -20q-81 0 -128.5 68.5t-47.5 184.5t47.5 185t128.5 69t124 -77v114h-134v60h134v75h100v-75h56v-60h-56v-532zM241 76q28 0 54.5 19t39.5 47v199q-13 28 -39.5 47t-54.5 19q-50 0 -76.5 -46t-26.5 -120
q0 -72 26.5 -118.5t76.5 -46.5z" />
    <glyph glyph-name="Euro" unicode="&#x20ac;" horiz-adv-x="565" 
d="M330 -12q-102 0 -171 66t-91 178h-48v64h39q-1 12 -1 37q0 27 1 40h-39v64h48q23 111 92 176t170 65q141 0 211 -147l-92 -41q-39 90 -119 90q-53 0 -91 -38t-56 -105h190v-64h-200q-2 -26 -2 -40q0 -25 1 -37h201v-64h-191q17 -67 55.5 -106t92.5 -39q42 0 72.5 27
t47.5 71l92 -41q-68 -156 -212 -156z" />
    <glyph glyph-name="afii61289" unicode="&#x2113;" horiz-adv-x="456" 
d="M162 255v-136q0 -53 37 -53q23 0 39 16l24 -65q-29 -29 -87 -29q-112 0 -112 120v395q0 76 53.5 125t139.5 49q72 0 125 -38t53 -98q0 -41 -27 -77t-83 -81zM162 357l109 85q36 29 52 50t16 47q0 29 -24.5 47t-59.5 18q-42 0 -67.5 -27t-25.5 -75v-145z" />
    <glyph glyph-name="afii61352" unicode="&#x2116;" horiz-adv-x="944" 
d="M768 350q-67 0 -106 48t-39 117q0 70 39 117.5t106 47.5q68 0 107 -47.5t39 -117.5t-39 -117.5t-107 -47.5zM768 410q34 0 52 29t18 76t-17.5 75.5t-52.5 28.5q-34 0 -51.5 -29t-17.5 -75q0 -47 17.5 -76t51.5 -29zM528 0h-106l-247 431v-431h-111v667h112l241 -419v419
h111v-667z" />
    <glyph glyph-name="published" unicode="&#x2117;" horiz-adv-x="778" 
d="M734 334q0 -142 -101 -243.5t-244 -101.5t-244 101.5t-101 243.5t101 243.5t244 101.5t244 -101.5t101 -243.5zM701 334q0 128 -92 220t-220 92t-219.5 -92t-91.5 -220t91.5 -219.5t219.5 -91.5t220 91.5t92 219.5zM552 418q0 -52 -36.5 -84t-89.5 -32h-112v-171h-41v405
h153q52 0 89 -32t37 -86zM510 418q0 36 -24 58t-60 22h-112v-159h112q36 0 60 22t24 57z" />
    <glyph glyph-name="servicemark" unicode="&#x2120;" horiz-adv-x="425" 
d="M388 447h-28v182l-65 -182h-8l-65 182v-182h-28v220h43l54 -158l54 158h43v-220zM155 504q0 -29 -19 -46.5t-52 -17.5q-43 0 -69 29l16 23q22 -26 51 -26q20 0 31 10t11 26q0 18 -16 30.5t-36 18.5t-36 22t-16 40q0 26 19 43t48 17q41 0 63 -24l-15 -21q-18 20 -46 20
q-16 0 -26.5 -9t-10.5 -24q0 -16 16 -27t35.5 -18t35.5 -23.5t16 -42.5z" />
    <glyph glyph-name="trademark" unicode="&#x2122;" horiz-adv-x="414" 
d="M379 447h-28v182l-65 -182h-8l-65 182v-182h-28v220h43l54 -158l54 158h43v-220zM149 641h-52v-194h-28v194h-52v26h132v-26z" />
    <glyph glyph-name="Omega" unicode="&#x2126;" horiz-adv-x="606" 
d="M50 98h100q-114 89 -114 258q0 146 72 234t195 88q124 0 196 -88t72 -234q0 -169 -115 -258h101v-98h-205v98q44 20 74.5 83.5t30.5 152.5q0 111 -39 178t-115 67q-75 0 -114.5 -67.5t-39.5 -177.5q0 -89 30.5 -152.5t75.5 -83.5v-98h-205v98z" />
    <glyph glyph-name="estimated" unicode="&#x212e;" horiz-adv-x="842" 
d="M811 324h-632q-5 0 -5 -5v-190q0 -14 9 -23q98 -103 240 -103q151 0 250 115h57q-54 -63 -135 -99.5t-174 -36.5q-161 0 -275.5 103t-114.5 248t114.5 248t275.5 103t275.5 -103t114.5 -248v-9zM668 349v191q0 14 -10 24q-97 99 -235 99q-140 0 -239 -102
q-10 -10 -10 -24v-188q0 -6 5 -6h485q4 0 4 6z" />
    <glyph glyph-name="onethird" unicode="&#x2153;" horiz-adv-x="746" 
d="M194 267h-77v301l-62 -64l-44 46l117 117h66v-400zM544 667l-352 -667h-57l352 667h57zM717 110q0 -52 -38 -84.5t-103 -32.5q-96 0 -140 65l44 47q37 -50 93 -50q33 0 50.5 16t17.5 44q0 59 -76 59q-30 0 -36 -1v62q7 -1 34 -1q72 0 72 55q0 27 -17.5 41t-47.5 14
q-51 0 -87 -45l-43 44q50 63 136 63q62 0 98.5 -28.5t36.5 -79.5q0 -35 -23 -60.5t-55 -30.5q32 -4 58 -30.5t26 -66.5z" />
    <glyph glyph-name="twothirds" unicode="&#x2154;" horiz-adv-x="812" 
d="M307 267h-268v57q117 106 153 149t36 80q0 27 -18 42.5t-45 15.5q-59 0 -90 -50l-44 47q50 65 137 65q60 0 98 -30.5t38 -85.5q0 -46 -35.5 -93.5t-125.5 -134.5h164v-62zM610 667l-352 -667h-57l352 667h57zM783 110q0 -52 -38 -84.5t-103 -32.5q-96 0 -140 65l44 47
q37 -50 93 -50q33 0 50.5 16t17.5 44q0 59 -76 59q-30 0 -36 -1v62q7 -1 34 -1q72 0 72 55q0 27 -17.5 41t-47.5 14q-51 0 -87 -45l-43 44q50 63 136 63q62 0 98.5 -28.5t36.5 -79.5q0 -35 -23 -60.5t-55 -30.5q32 -4 58 -30.5t26 -66.5z" />
    <glyph glyph-name="oneeighth" unicode="&#x215b;" horiz-adv-x="746" 
d="M194 267h-77v301l-62 -64l-44 46l117 117h66v-400zM719 102q0 -52 -39.5 -80.5t-102.5 -28.5q-62 0 -102 28t-40 81q0 36 25 65t61 39q-34 11 -56.5 36t-22.5 60q0 52 40 78t95 26q56 0 96 -26t40 -78q0 -35 -22.5 -60t-55.5 -36q35 -10 59.5 -39t24.5 -65zM638 291
q0 26 -16.5 40.5t-44.5 14.5q-27 0 -43 -14.5t-16 -40.5q0 -19 13 -33t24.5 -19.5t21.5 -7.5q11 2 23 7.5t25 19.5t13 33zM643 110q0 30 -24 48.5t-42 20.5q-18 -3 -41.5 -21.5t-23.5 -48.5q0 -27 18.5 -42t46.5 -15t47 15.5t19 42.5zM544 667l-352 -667h-57l352 667h57z
" />
    <glyph glyph-name="threeeighths" unicode="&#x215c;" horiz-adv-x="812" 
d="M785 102q0 -52 -39.5 -80.5t-102.5 -28.5q-62 0 -102 28t-40 81q0 36 25 65t61 39q-34 11 -56.5 36t-22.5 60q0 52 40 78t95 26q56 0 96 -26t40 -78q0 -35 -22.5 -60t-55.5 -36q35 -10 59.5 -39t24.5 -65zM704 291q0 26 -16.5 40.5t-44.5 14.5q-27 0 -43 -14.5t-16 -40.5
q0 -19 13 -33t24.5 -19.5t21.5 -7.5q11 2 23 7.5t25 19.5t13 33zM709 110q0 30 -24 48.5t-42 20.5q-18 -3 -41.5 -21.5t-23.5 -48.5q0 -27 18.5 -42t46.5 -15t47 15.5t19 42.5zM610 667l-352 -667h-57l352 667h57zM308 377q0 -52 -38 -84.5t-103 -32.5q-96 0 -140 65l44 47
q37 -50 93 -50q33 0 50.5 16t17.5 44q0 59 -76 59q-30 0 -36 -1v62q7 -1 34 -1q72 0 72 55q0 27 -17.5 41t-47.5 14q-51 0 -87 -45l-43 44q50 63 136 63q62 0 98.5 -28.5t36.5 -79.5q0 -35 -23 -60.5t-55 -30.5q32 -4 58 -30.5t26 -66.5z" />
    <glyph glyph-name="fiveeighths" unicode="&#x215d;" horiz-adv-x="808" 
d="M781 102q0 -52 -39.5 -80.5t-102.5 -28.5q-62 0 -102 28t-40 81q0 36 25 65t61 39q-34 11 -56.5 36t-22.5 60q0 52 40 78t95 26q56 0 96 -26t40 -78q0 -35 -22.5 -60t-55.5 -36q35 -10 59.5 -39t24.5 -65zM700 291q0 26 -16.5 40.5t-44.5 14.5q-27 0 -43 -14.5t-16 -40.5
q0 -19 13 -33t24.5 -19.5t21.5 -7.5q11 2 23 7.5t25 19.5t13 33zM705 110q0 30 -24 48.5t-42 20.5q-18 -3 -41.5 -21.5t-23.5 -48.5q0 -27 18.5 -42t46.5 -15t47 15.5t19 42.5zM308 396q0 -60 -39 -98t-104 -38q-91 0 -137 65l46 48q34 -51 90 -51q31 0 49 21t18 51
q0 34 -17 53t-47 19q-43 0 -73 -39l-55 19v221h246v-62h-169v-116q29 34 79 34q48 0 80.5 -33.5t32.5 -93.5zM606 667l-352 -667h-57l352 667h57z" />
    <glyph glyph-name="seveneighths" unicode="&#x215e;" horiz-adv-x="742" 
d="M715 102q0 -52 -39.5 -80.5t-102.5 -28.5q-62 0 -102 28t-40 81q0 36 25 65t61 39q-34 11 -56.5 36t-22.5 60q0 52 40 78t95 26q56 0 96 -26t40 -78q0 -35 -22.5 -60t-55.5 -36q35 -10 59.5 -39t24.5 -65zM634 291q0 26 -16.5 40.5t-44.5 14.5q-27 0 -43 -14.5t-16 -40.5
q0 -19 13 -33t24.5 -19.5t21.5 -7.5q11 2 23 7.5t25 19.5t13 33zM639 110q0 30 -24 48.5t-42 20.5q-18 -3 -41.5 -21.5t-23.5 -48.5q0 -27 18.5 -42t46.5 -15t47 15.5t19 42.5zM287 614l-133 -347h-80l135 338h-187v62h265v-53zM540 667l-352 -667h-57l352 667h57z" />
    <glyph glyph-name="arrowleft" unicode="&#x2190;" horiz-adv-x="582" 
d="M538 211h-269l12 -130l-281 205l281 204l-12 -129h269v-150z" />
    <glyph glyph-name="arrowup" unicode="&#x2191;" horiz-adv-x="582" 
d="M216 17v269l-130 -12l205 281l204 -281l-129 12v-269h-150z" />
    <glyph glyph-name="arrowright" unicode="&#x2192;" horiz-adv-x="582" 
d="M584 286l-281 -205l12 130h-268v150h268l-12 129z" />
    <glyph glyph-name="arrowdown" unicode="&#x2193;" horiz-adv-x="582" 
d="M366 555v-269l130 12l-205 -281l-204 281l129 -12v269h150z" />
    <glyph glyph-name="partialdiff" unicode="&#x2202;" horiz-adv-x="488" 
d="M244 -12q-98 0 -153.5 70t-55.5 172q0 101 49.5 170.5t131.5 69.5q80 0 121 -72q-45 145 -164 235l81 49q88 -81 143.5 -192.5t55.5 -241.5q0 -115 -55 -187.5t-154 -72.5zM244 76q52 0 79 44t27 110q0 65 -27 108.5t-79 43.5t-79 -43.5t-27 -108.5q0 -66 27 -110t79 -44
z" />
    <glyph glyph-name="Delta" unicode="&#x2206;" horiz-adv-x="547" 
d="M545 0h-543l205 667h133zM402 98l-129 451l-127 -451h256z" />
    <glyph glyph-name="product" unicode="&#x220f;" horiz-adv-x="615" 
d="M513 -90h-110v660h-190v-660h-111v660h-79v97h569v-97h-79v-660z" />
    <glyph glyph-name="summation" unicode="&#x2211;" horiz-adv-x="464" 
d="M171 570l162 -272l-166 -290h257v-98h-380v100l164 288l-164 272v97h380v-97h-253z" />
    <glyph glyph-name="minus" unicode="&#x2212;" horiz-adv-x="442" 
d="M413 305h-384v65h384v-65z" />
    <glyph glyph-name="uni2215" unicode="&#x2215;" horiz-adv-x="138" 
d="M273 667l-352 -667h-57l352 667h57z" />
    <glyph glyph-name="uni2219" unicode="&#x2219;" horiz-adv-x="242" 
d="M188 245q0 -27 -19.5 -47t-47.5 -20t-47.5 20t-19.5 47t19.5 47t47.5 20t47.5 -20t19.5 -47z" />
    <glyph glyph-name="radical" unicode="&#x221a;" horiz-adv-x="583" 
d="M352 0h-71l-94 311l-121 -37l-17 63l184 53l85 -289l171 566h71z" />
    <glyph glyph-name="infinity" unicode="&#x221e;" horiz-adv-x="582" 
d="M165 165q-67 0 -101.5 50.5t-34.5 119.5q0 70 34.5 120.5t101.5 50.5q82 0 126 -104q18 45 51 74.5t74 29.5q68 0 102.5 -50.5t34.5 -120.5q0 -69 -34.5 -119.5t-102.5 -50.5q-41 0 -74 29t-51 75q-43 -104 -126 -104zM407 230q36 0 57.5 29t21.5 76q0 48 -21.5 77.5
t-57.5 29.5q-56 0 -87 -107q31 -105 87 -105zM175 229q55 0 88 106q-33 107 -88 107q-36 0 -58 -29.5t-22 -77.5q0 -47 22 -76.5t58 -29.5z" />
    <glyph glyph-name="integral" unicode="&#x222b;" horiz-adv-x="301" 
d="M62 -100h-45v68h45q21 0 36.5 18t15.5 45v606q0 58 37.5 94.5t87.5 36.5h45v-69h-45q-21 0 -36 -17.5t-15 -44.5v-607q0 -58 -37.5 -94t-88.5 -36z" />
    <glyph glyph-name="approxequal" unicode="&#x2248;" horiz-adv-x="442" 
d="M29 206v70q43 -25 96 -25q39 0 90.5 22t100.5 22q55 0 97 -20v-70q-44 26 -97 26q-39 0 -90.5 -22.5t-100.5 -22.5q-54 0 -96 20zM29 393v70q43 -25 96 -25q39 0 90.5 22t100.5 22q55 0 97 -20v-70q-43 25 -97 25q-39 0 -90.5 -22t-100.5 -22q-51 0 -96 20z" />
    <glyph glyph-name="notequal" unicode="&#x2260;" horiz-adv-x="442" 
d="M122 93h-56l59 113h-96v65h130l67 126h-197v65h231l59 112h57l-59 -112h96v-65h-131l-66 -126h197v-65h-231z" />
    <glyph glyph-name="lessequal" unicode="&#x2264;" horiz-adv-x="442" 
d="M413 132l-384 175v71l384 175v-77l-307 -134l307 -133v-77zM413 17h-384v65h384v-65z" />
    <glyph glyph-name="greaterequal" unicode="&#x2265;" horiz-adv-x="442" 
d="M412 307l-383 -175v77l307 133l-307 134v77l383 -175v-71zM412 17h-383v65h383v-65z" />
    <glyph glyph-name="triangleright" unicode="&#x22b2;" horiz-adv-x="587" 
d="M589 286l-535 -309v618z" />
    <glyph glyph-name="triangleleft" unicode="&#x22b3;" horiz-adv-x="587" 
d="M535 595v-618l-535 309z" />
    <glyph glyph-name="dotmath" unicode="&#x22c5;" horiz-adv-x="242" 
d="M188 245q0 -27 -19.5 -47t-47.5 -20t-47.5 20t-19.5 47t19.5 47t47.5 20t47.5 -20t19.5 -47z" />
    <glyph glyph-name="uni2318" unicode="&#x2318;" horiz-adv-x="667" 
d="M223 154v70h-70q-29 0 -49 -20.5t-20 -49.5t20 -50t49 -21t49.5 21t20.5 50zM223 443v71q0 29 -20 49.5t-49 20.5t-49.5 -20.5t-20.5 -49.5t20.5 -50t49.5 -21h69zM265 265h137v137h-137v-137zM583 154q0 29 -20 49.5t-49 20.5h-70v-70q0 -29 20.5 -50t49.5 -21t49 21
t20 50zM583 514q0 29 -20 49.5t-49 20.5t-49.5 -20.5t-20.5 -49.5v-71h70q29 0 49 21t20 50zM625 154q0 -46 -32.5 -79t-78.5 -33t-79 33t-33 79v70h-137v-70q0 -46 -33 -79t-79 -33t-78.5 33t-32.5 79t32.5 78.5t78.5 32.5h70v137h-69q-46 0 -79 33t-33 79t33 78.5t79 32.5
t78.5 -32.5t32.5 -78.5v-71h137v71q0 46 33 78.5t79 32.5t78.5 -32.5t32.5 -78.5t-32.5 -79t-78.5 -33h-70v-137h70q46 0 78.5 -32.5t32.5 -78.5z" />
    <glyph glyph-name="blacksquare" unicode="&#x25a0;" horiz-adv-x="661" 
d="M618 0h-571v572h571v-572z" />
    <glyph glyph-name="triagup" unicode="&#x25b2;" horiz-adv-x="616" 
d="M617 29l-619 1l309 535z" />
    <glyph glyph-name="triagdn" unicode="&#x25bc;" horiz-adv-x="616" 
d="M617 510l-310 -535l-309 535h619z" />
    <glyph glyph-name="lozenge" unicode="&#x25ca;" horiz-adv-x="375" 
d="M198 0h-21l-158 334l158 333h21l158 -333zM188 41l132 293l-133 292l-132 -292z" />
    <glyph glyph-name="circlesolid" unicode="&#x25cf;" horiz-adv-x="695" 
d="M644 285q0 -123 -87 -210t-210 -87t-210 87t-87 210t87 210t210 87t210 -87t87 -210z" />
    <glyph glyph-name="blackstar" unicode="&#x2605;" horiz-adv-x="759" 
d="M759 421l-235 -171l90 -275l-235 170l-234 -170l89 275l-234 171h290l89 276l90 -276h290z" />
    <glyph glyph-name="ballotbox" unicode="&#x2610;" horiz-adv-x="661" 
d="M616 0h-571v572h571v-572zM546 65v442h-431v-442h431z" />
    <glyph glyph-name="boxchecked" unicode="&#x2611;" horiz-adv-x="661" 
d="M684 698l-69 -126h1v-572h-571v572h495l88 161zM546 65v378l-191 -352l-202 246l51 48l142 -173l159 295h-390v-442h431z" />
    <glyph glyph-name="diamond" unicode="&#x2666;" horiz-adv-x="501" 
d="M501 285l-251 -250l-250 250l250 251z" />
    <glyph glyph-name="checkmark" unicode="&#x2713;" horiz-adv-x="531" 
d="M531 698l-329 -607l-202 246l51 48l142 -173l282 521z" />
    <glyph glyph-name="perthousand.onum" unicode="&#xf628;" horiz-adv-x="799" 
d="M261 424q0 -59 -33 -97.5t-87 -38.5q-53 0 -86 38.5t-33 97.5t33 98.5t86 39.5q54 0 87 -39.5t33 -98.5zM517 126q0 -59 -33.5 -98t-86.5 -39t-86.5 39t-33.5 98t33.5 98.5t86.5 39.5t86.5 -39.5t33.5 -98.5zM456 550l-315 -550h-54l314 550h55zM198 424q0 37 -15.5 60.5
t-41.5 23.5q-25 0 -40.5 -23.5t-15.5 -60.5q0 -36 15.5 -59t40.5 -23q26 0 41.5 23t15.5 59zM454 126q0 37 -16 60t-41 23q-26 0 -42 -23t-16 -60q0 -36 16 -59t42 -23q25 0 41 23t16 59zM778 126q0 -59 -33.5 -98t-86.5 -39t-86 39.5t-33 97.5q0 59 33 98.5t86 39.5
t86.5 -39.5t33.5 -98.5zM715 126q0 37 -16 60t-41 23q-26 0 -41.5 -23t-15.5 -60q0 -36 15.5 -59t41.5 -23q25 0 41 23t16 59z" />
    <glyph glyph-name="uniF637" unicode="&#xf637;" horiz-adv-x="353" 
d="M306 326h-74v209q0 51 -47 51q-39 0 -64 -41v-219h-73v434h73v-161q14 20 40 34.5t56 14.5q89 0 89 -90v-232z" />
    <glyph glyph-name="zero.tzero" unicode="&#xf638;" horiz-adv-x="516" 
d="M257 -12q-74 0 -125 48l-20 -36h-74l50 92q-55 93 -55 241q0 65 13 124.5t38.5 109.5t70 80t102.5 30q72 0 125 -47l20 37h74l-50 -92q56 -95 56 -242q0 -89 -21.5 -164t-74 -128t-129.5 -53zM257 87q112 0 112 246q0 69 -10 120l-176 -323q27 -43 74 -43zM146 333
q0 -71 8 -119l176 322q-27 43 -73 43q-111 0 -111 -246z" />
    <glyph glyph-name="zero.tnum" unicode="&#xf639;" horiz-adv-x="516" 
d="M257 -12q-58 0 -102.5 30t-70 80.5t-38.5 110t-13 124.5t13 124.5t38.5 109.5t70 80t102.5 30q77 0 129.5 -52.5t74 -127.5t21.5 -164t-21.5 -164t-74 -128t-129.5 -53zM257 87q112 0 112 246t-112 246q-111 0 -111 -246t111 -246z" />
    </font>
</defs>
</svg>
